<svg xmlns="http://www.w3.org/2000/svg" xmlns:xlink="http://www.w3.org/1999/xlink" width="72" height="72" viewBox="0 0 72 72">
  <defs>
    <linearGradient id="linear-gradient" x1="0.5" x2="0.5" y2="1" gradientUnits="objectBoundingBox">
      <stop offset="0" stop-color="#026888"/>
      <stop offset="1" stop-color="#440370"/>
    </linearGradient>
  </defs>
  <g id="Group_38049" data-name="Group 38049" transform="translate(-190 -2262)">
    <g id="Rectangle_16616" data-name="Rectangle 16616" transform="translate(190 2262)" stroke="#fff" stroke-width="1" fill="url(#linear-gradient)">
      <rect width="72" height="72" rx="7" stroke="none"/>
      <rect x="0.5" y="0.5" width="71" height="71" rx="6.5" fill="none"/>
    </g>
    <g id="Group_38201" data-name="Group 38201" transform="translate(200 2272)">
      <path id="Path_2719" data-name="Path 2719" d="M31,1h1.591V3.387H31Z" transform="translate(-6.134)" fill="#fff"/>
      <path id="Path_2720" data-name="Path 2720" d="M22.719,25.138a56.84,56.84,0,0,0,3.387,5.2c-2.29.668-3.719,1.978-3.719,3.5,0,2.268,3.078,3.978,7.16,3.978s7.16-1.71,7.16-3.978c0-1.542-1.45-2.86-3.781-3.523,1.163-1.674,2.331-3.4,3.34-5.207a18.965,18.965,0,0,0,2.827-9.305A9.689,9.689,0,0,0,29.55,6,9.7,9.7,0,0,0,20,15.809a18.808,18.808,0,0,0,2.719,9.329Zm12.4,8.705c0,1.126-2.382,2.387-5.569,2.387s-5.569-1.26-5.569-2.387c0-.713,1.1-1.655,3.121-2.112.613.857,1.22,1.708,1.792,2.557a.8.8,0,0,0,.659.351h.007a.8.8,0,0,0,.66-.364c.536-.827,1.123-1.677,1.733-2.553,1.828.408,3.164,1.281,3.164,2.121ZM29.55,7.591A8.1,8.1,0,0,1,37.5,15.809a17.473,17.473,0,0,1-2.625,8.53c-1.142,2.045-2.517,4.016-3.846,5.921-.518.742-1.017,1.457-1.492,2.16-.459-.657-.931-1.317-1.407-1.98a65.318,65.318,0,0,1-4.022-6.077,17.292,17.292,0,0,1-2.518-8.553A8.111,8.111,0,0,1,29.55,7.591Z" transform="translate(-3.885 -1.022)" fill="#fff"/>
      <path id="Path_2721" data-name="Path 2721" d="M30.364,22.728A6.364,6.364,0,1,0,24,16.364,6.372,6.372,0,0,0,30.364,22.728Zm0-11.137a4.773,4.773,0,1,1-4.773,4.773A4.778,4.778,0,0,1,30.364,11.591Z" transform="translate(-4.703 -1.84)" fill="#fff"/>
      <path id="Path_2722" data-name="Path 2722" d="M29.139,18.11l-.216,1.33a.8.8,0,0,0,1.17.825l1.089-.6,1.09.6a.8.8,0,0,0,1.17-.825l-.216-1.33.912-.936a.8.8,0,0,0-.449-1.342l-1.229-.188L31.9,14.457a.8.8,0,0,0-1.44,0L29.9,15.644l-1.229.188a.8.8,0,0,0-.449,1.342Zm1.426-.958a.8.8,0,0,0,.6-.448l.017-.037.018.037a.794.794,0,0,0,.6.448l.119.018-.112.115a.794.794,0,0,0-.216.683l.018.11-.041-.022a.8.8,0,0,0-.77,0l-.041.022.018-.11a.794.794,0,0,0-.216-.683l-.112-.115Z" transform="translate(-5.521 -2.658)" fill="#fff"/>
      <path id="Path_2723" data-name="Path 2723" d="M25.8,49a.8.8,0,0,0-.8.8v9.546a.8.8,0,0,0,.8.8h9.546a.8.8,0,0,0,.8-.8V49.8a.8.8,0,0,0-.8-.8Zm3.978,1.591h1.591v2.387H29.773Zm4.773,7.955H26.591V50.591h1.591v3.182a.8.8,0,0,0,.8.8H32.16a.8.8,0,0,0,.8-.8V50.591h1.591Z" transform="translate(-4.908 -9.815)" fill="#fff"/>
      <path id="Path_2724" data-name="Path 2724" d="M59.342,36H49.8a.8.8,0,0,0-.8.8v9.546a.8.8,0,0,0,.8.8h9.546a.8.8,0,0,0,.8-.8V36.8A.8.8,0,0,0,59.342,36Zm-5.569,1.591h1.591v2.387H53.773Zm4.773,7.955H50.591V37.591h1.591v3.182a.8.8,0,0,0,.8.8H56.16a.8.8,0,0,0,.8-.8V37.591h1.591Z" transform="translate(-9.815 -7.157)" fill="#fff"/>
      <path id="Path_2725" data-name="Path 2725" d="M1.8,47.137h9.546a.8.8,0,0,0,.8-.8V36.8a.8.8,0,0,0-.8-.8H1.8a.8.8,0,0,0-.8.8v9.546A.8.8,0,0,0,1.8,47.137Zm3.978-9.546H7.364v2.387H5.773Zm-3.182,0H4.182v3.182a.8.8,0,0,0,.8.8H8.16a.8.8,0,0,0,.8-.8V37.591h1.591v7.955H2.591Z" transform="translate(0 -7.157)" fill="#fff"/>
      <path id="Path_2726" data-name="Path 2726" d="M46,17h2.387v1.591H46Z" transform="translate(-9.202 -3.272)" fill="#fff"/>
      <path id="Path_2727" data-name="Path 2727" d="M15,17h2.387v1.591H15Z" transform="translate(-2.863 -3.272)" fill="#fff"/>
      <path id="Path_2728" data-name="Path 2728" d="M0,0H1.591V2.387H0Z" transform="translate(15.534 5.525) rotate(-45)" fill="#fff"/>
      <path id="Path_2729" data-name="Path 2729" d="M0,0H2.387V1.591H0Z" transform="translate(32.97 6.089) rotate(-45)" fill="#fff"/>
      <path id="Path_2730" data-name="Path 2730" d="M18.758,29.039l-.328-1.557a24.9,24.9,0,0,0-9.195,3.741l.921,1.3A23.338,23.338,0,0,1,18.758,29.039Z" transform="translate(-1.684 -5.415)" fill="#fff"/>
      <path id="Path_2731" data-name="Path 2731" d="M52.769,52.481l-.921-1.3a24.8,24.8,0,0,1-10.012,3.751L42.1,56.5a26.021,26.021,0,0,0,10.67-4.023Z" transform="translate(-8.35 -10.262)" fill="#fff"/>
      <path id="Path_2732" data-name="Path 2732" d="M8.421,52.481A26.036,26.036,0,0,0,19.092,56.5l.263-1.57A24.8,24.8,0,0,1,9.343,51.184Z" transform="translate(-1.517 -10.262)" fill="#fff"/>
      <path id="Path_2733" data-name="Path 2733" d="M43.789,29.073a23.252,23.252,0,0,1,8.458,3.453l.921-1.3a24.842,24.842,0,0,0-9.043-3.71Z" transform="translate(-8.749 -5.422)" fill="#fff"/>
    </g>
  </g>
</svg>
