<svg xmlns="http://www.w3.org/2000/svg" xmlns:xlink="http://www.w3.org/1999/xlink" width="72" height="72" viewBox="0 0 72 72">
  <defs>
    <linearGradient id="linear-gradient" x1="0.5" x2="0.5" y2="1" gradientUnits="objectBoundingBox">
      <stop offset="0" stop-color="#026888"/>
      <stop offset="1" stop-color="#440370"/>
    </linearGradient>
  </defs>
  <g id="Group_38033" data-name="Group 38033" transform="translate(-190 -2262)">
    <g id="Group_38040" data-name="Group 38040">
      <g id="Rectangle_16616" data-name="Rectangle 16616" transform="translate(190 2262)" stroke="#fff" stroke-width="1" fill="url(#linear-gradient)">
        <rect width="72" height="72" rx="7" stroke="none"/>
        <rect x="0.5" y="0.5" width="71" height="71" rx="6.5" fill="none"/>
      </g>
      <g id="Group_38199" data-name="Group 38199" transform="translate(202.675 2274.675)">
        <path id="Path_2698" data-name="Path 2698" d="M2.332,38.1H23.006a1.537,1.537,0,0,0,1.1-.453l4.989-4.989a1.537,1.537,0,0,0,.453-1.1V2.332A2.332,2.332,0,0,0,27.212,0H2.332A2.332,2.332,0,0,0,0,2.332V35.765A2.332,2.332,0,0,0,2.332,38.1Zm-.777-2.332V13.995H27.99V31.1H24.88a2.332,2.332,0,0,0-2.332,2.332v3.11H2.332A.777.777,0,0,1,1.555,35.765Zm25.336-3.11L24.1,35.445V33.432a.777.777,0,0,1,.777-.777ZM2.332,1.555h24.88a.777.777,0,0,1,.777.777V12.44H1.555V2.332a.777.777,0,0,1,.777-.777Z" fill="#fff"/>
        <path id="Path_2699" data-name="Path 2699" d="M2.332,58.22H24.756a3.888,3.888,0,0,0,2-.556l2.032-1.221a1.555,1.555,0,0,0,0-2.667l-2.032-1.221a3.887,3.887,0,0,0-2-.555H2.332A2.332,2.332,0,0,0,0,54.332v1.555A2.332,2.332,0,0,0,2.332,58.22ZM7,56.665v-3.11h15.55v3.11Zm18.96-2.776L27.99,55.11l-2.032,1.221a2.325,2.325,0,0,1-1.2.334H24.1v-3.11h.654a2.325,2.325,0,0,1,1.2.334Zm-24.4.444a.777.777,0,0,1,.777-.777h3.11v3.11H2.332a.777.777,0,0,1-.777-.777Z" transform="translate(0 -11.571)" fill="#fff"/>
        <path id="Path_2700" data-name="Path 2700" d="M7.887,11.775A3.887,3.887,0,1,0,4,7.887,3.887,3.887,0,0,0,7.887,11.775Zm0-6.22A2.332,2.332,0,1,1,5.555,7.887,2.332,2.332,0,0,1,7.887,5.555Z" transform="translate(-0.89 -0.89)" fill="#fff"/>
        <path id="Path_2701" data-name="Path 2701" d="M47.11,16a3.11,3.11,0,1,0,3.11,3.11A3.11,3.11,0,0,0,47.11,16Zm0,4.665a1.555,1.555,0,1,1,1.555-1.555A1.555,1.555,0,0,1,47.11,20.665Z" transform="translate(-9.79 -3.56)" fill="#fff"/>
        <path id="Path_2702" data-name="Path 2702" d="M53.217,0H42.332A2.332,2.332,0,0,0,40,2.332v17.1a2.332,2.332,0,0,0,2.332,2.332H53.217a2.332,2.332,0,0,0,2.332-2.332V2.332A2.332,2.332,0,0,0,53.217,0Zm.777,19.437a.777.777,0,0,1-.777.777H42.332a.777.777,0,0,1-.777-.777V2.332a.777.777,0,0,1,.777-.777H53.217a.777.777,0,0,1,.777.777Z" transform="translate(-8.9)" fill="#fff"/>
        <path id="Path_2703" data-name="Path 2703" d="M53.217,32H42.332A2.332,2.332,0,0,0,40,34.332v17.1a2.332,2.332,0,0,0,2.332,2.332H53.217a2.332,2.332,0,0,0,2.332-2.332v-17.1A2.332,2.332,0,0,0,53.217,32ZM41.555,51.007V34.762l6.636,7.2a1.362,1.362,0,0,1,0,1.839Zm12.44.43a.777.777,0,0,1-.777.777H42.557l6.773-7.356a2.924,2.924,0,0,0,0-3.947l-6.773-7.357h10.66a.777.777,0,0,1,.777.777Z" transform="translate(-8.9 -7.12)" fill="#fff"/>
        <path id="Path_2704" data-name="Path 2704" d="M16.777,5.555H28.44A.777.777,0,1,0,28.44,4H16.777a.777.777,0,1,0,0,1.555Z" transform="translate(-3.56 -0.89)" fill="#fff"/>
        <path id="Path_2705" data-name="Path 2705" d="M16.777,9.555h3.887a.777.777,0,1,0,0-1.555H16.777a.777.777,0,1,0,0,1.555Z" transform="translate(-3.56 -1.78)" fill="#fff"/>
        <path id="Path_2706" data-name="Path 2706" d="M16.777,13.555H23A.777.777,0,1,0,23,12h-6.22a.777.777,0,1,0,0,1.555Z" transform="translate(-3.56 -2.67)" fill="#fff"/>
        <path id="Path_2707" data-name="Path 2707" d="M25.66,21.777A.777.777,0,0,0,24.882,21H7.777a.777.777,0,1,0,0,1.555h17.1A.777.777,0,0,0,25.66,21.777Z" transform="translate(-1.558 -4.673)" fill="#fff"/>
        <path id="Path_2708" data-name="Path 2708" d="M23.772,26H9.777a.777.777,0,0,0,0,1.555H23.772a.777.777,0,0,0,0-1.555Z" transform="translate(-2.003 -5.785)" fill="#fff"/>
        <path id="Path_2709" data-name="Path 2709" d="M23.772,30H9.777a.777.777,0,1,0,0,1.555H23.772a.777.777,0,1,0,0-1.555Z" transform="translate(-2.003 -6.675)" fill="#fff"/>
        <path id="Path_2710" data-name="Path 2710" d="M23.772,34H9.777a.777.777,0,0,0,0,1.555H23.772a.777.777,0,1,0,0-1.555Z" transform="translate(-2.003 -7.565)" fill="#fff"/>
        <path id="Path_2711" data-name="Path 2711" d="M24.55,38.777A.777.777,0,0,0,23.772,38H9.777a.777.777,0,0,0,0,1.555H23.772A.777.777,0,0,0,24.55,38.777Z" transform="translate(-2.003 -8.455)" fill="#fff"/>
        <path id="Path_2712" data-name="Path 2712" d="M44.777,11.775A.777.777,0,0,0,45.555,11V4.777a.777.777,0,1,0-1.555,0V11A.777.777,0,0,0,44.777,11.775Z" transform="translate(-9.79 -0.89)" fill="#fff"/>
        <path id="Path_2713" data-name="Path 2713" d="M48.777,12.887a.777.777,0,0,0,.777-.777V9.777a.777.777,0,0,0-1.555,0V12.11A.777.777,0,0,0,48.777,12.887Z" transform="translate(-10.68 -2.003)" fill="#fff"/>
        <path id="Path_2714" data-name="Path 2714" d="M52.777,7A.777.777,0,0,0,52,7.777v3.887a.777.777,0,0,0,1.555,0V7.777A.777.777,0,0,0,52.777,7Z" transform="translate(-11.571 -1.558)" fill="#fff"/>
      </g>
    </g>
  </g>
</svg>
