<svg xmlns="http://www.w3.org/2000/svg" xmlns:xlink="http://www.w3.org/1999/xlink" width="72" height="72" viewBox="0 0 72 72">
  <defs>
    <linearGradient id="linear-gradient" x1="0.5" x2="0.5" y2="1" gradientUnits="objectBoundingBox">
      <stop offset="0" stop-color="#026888"/>
      <stop offset="1" stop-color="#440370"/>
    </linearGradient>
  </defs>
  <g id="Group_38047" data-name="Group 38047" transform="translate(-190 -2262)">
    <g id="Rectangle_16616" data-name="Rectangle 16616" transform="translate(190 2262)" stroke="#fff" stroke-width="1" fill="url(#linear-gradient)">
      <rect width="72" height="72" rx="7" stroke="none"/>
      <rect x="0.5" y="0.5" width="71" height="71" rx="6.5" fill="none"/>
    </g>
    <g id="Group_38200" data-name="Group 38200" transform="translate(201 2254.953)">
      <path id="Path_2715" data-name="Path 2715" d="M102.019,327.393l1.281-.93,1.281.93a1.238,1.238,0,0,0,1.905-1.384L106,324.5l1.281-.93a1.238,1.238,0,0,0-.728-2.24h-1.583l-.489-1.506h0a1.238,1.238,0,0,0-2.355,0l-.489,1.506H100.05a1.238,1.238,0,0,0-.728,2.24l1.281.931-.489,1.506a1.238,1.238,0,0,0,1.905,1.384Zm1.043-7.106h0Zm-1.074,2.534a1,1,0,0,0,.951-.691l.361-1.111.361,1.111a1,1,0,0,0,.951.691h1.169l-.945.687a1,1,0,0,0-.363,1.118l.361,1.111-.945-.687a1,1,0,0,0-1.175,0l-.945.687.361-1.112a1,1,0,0,0-.363-1.118l-.945-.687Z" transform="translate(-89.009 -269.27)" fill="#fff"/>
      <path id="Path_2716" data-name="Path 2716" d="M197.428,151.148h-3.037l-.938-2.888a1.576,1.576,0,0,0-3,0l-.938,2.888h-3.037a1.576,1.576,0,0,0-.926,2.852l2.457,1.785-.938,2.888a1.576,1.576,0,0,0,2.426,1.762l2.457-1.785,2.457,1.785a1.576,1.576,0,0,0,2.426-1.762l-.938-2.888L198.354,154a1.576,1.576,0,0,0-.926-2.852Zm.052,1.648-2.641,1.919a1.172,1.172,0,0,0-.427,1.313l1.009,3.1a.088.088,0,0,1-.136.1l-2.641-1.919a1.171,1.171,0,0,0-1.381,0l-2.641,1.919a.088.088,0,0,1-.136-.1l1.009-3.1a1.172,1.172,0,0,0-.427-1.313l-2.641-1.919a.088.088,0,0,1,.052-.159h3.264a1.172,1.172,0,0,0,1.117-.812l1.009-3.1a.088.088,0,0,1,.168,0l1.009,3.1a1.172,1.172,0,0,0,1.117.812h3.264a.088.088,0,0,1,.052.16Z" transform="translate(-166.557 -114.512)" fill="#fff"/>
      <path id="Path_2717" data-name="Path 2717" d="M359.782,344.429l1.479,1.074-.565,1.738a1.295,1.295,0,0,0,1.993,1.448l1.479-1.074,1.479,1.074a1.3,1.3,0,0,0,1.993-1.448l-.565-1.738,1.478-1.074a1.3,1.3,0,0,0-.761-2.343h-1.828l-.565-1.738h0a1.3,1.3,0,0,0-2.463,0l-.565,1.738h-1.828a1.3,1.3,0,0,0-.761,2.343Zm2.922-.855a1.026,1.026,0,0,0,.979-.711l.484-1.49.484,1.49a1.027,1.027,0,0,0,.979.711H367.2l-1.268.921a1.027,1.027,0,0,0-.373,1.15l.484,1.49-1.268-.921a1.027,1.027,0,0,0-1.21,0l-1.268.921.484-1.49a1.027,1.027,0,0,0-.374-1.151l-1.268-.921Z" transform="translate(-323.608 -287.719)" fill="#fff"/>
      <path id="Path_2718" data-name="Path 2718" d="M42.286,39.789a1.017,1.017,0,0,0,1.436,0L50.5,33.015a1.016,1.016,0,0,0,0-1.436L42.327,23.41a11.406,11.406,0,0,0-8.118-3.363H16.585A11.406,11.406,0,0,0,8.466,23.41L.3,31.579a1.016,1.016,0,0,0,0,1.436l6.774,6.774a1.017,1.017,0,0,0,1.436,0L11.393,36.9V47.222h-.636a7.353,7.353,0,0,0-7.344,7.344v4.341L.858,61.165a2.533,2.533,0,0,0,1.133,4.372,57.727,57.727,0,0,0,24.6,0,2.523,2.523,0,0,0,1.943-1.991h2.814l-.155,1.768a1.144,1.144,0,0,0,1.14,1.244H48.785a1.144,1.144,0,0,0,1.14-1.244L48.434,48.267a1.138,1.138,0,0,0-1.14-1.044H45.685A5.131,5.131,0,0,0,39.4,42.389V36.9ZM18.8,22.643a.744.744,0,0,0,1.433-.4,5.345,5.345,0,0,1-.147-.707H30.709a5.364,5.364,0,0,1-8.916,3.228.744.744,0,1,0-1,1.1,6.852,6.852,0,0,0,11.416-4.33h1a7.844,7.844,0,0,1-15.617,0h1a6.826,6.826,0,0,0,.213,1.108Zm1.869,26.8a5.861,5.861,0,0,1,3.013,5.119v4.04l-1.185.185v-3.65a9.273,9.273,0,0,0-1.828-5.694ZM15.7,47.222h-2.82v-.433a.562.562,0,0,1,.561-.561h1.7a.562.562,0,0,1,.561.561v.433ZM4.9,54.567a5.861,5.861,0,0,1,3.013-5.119,9.273,9.273,0,0,0-1.828,5.694v3.65L4.9,58.606ZM27.06,63.326a1.027,1.027,0,0,1-.787.758,56.228,56.228,0,0,1-23.962,0,1.045,1.045,0,0,1-.468-1.8l2.545-2.248,1.752.273c1.026.16,2.07.291,3.1.39a.744.744,0,0,0,.142-1.481c-.6-.058-1.207-.127-1.81-.206V55.142c0-3.546,2.036-6.431,4.539-6.431h4.356c2.5,0,4.539,2.885,4.539,6.431v3.867a51.579,51.579,0,0,1-8.162.42.744.744,0,1,0-.042,1.488,53.047,53.047,0,0,0,9.639-.611l1.752-.273L26.74,62.28a1.032,1.032,0,0,1,.342.615c0,.008,0,.017,0,.025A1.061,1.061,0,0,1,27.06,63.326Zm13.5-19.581A3.645,3.645,0,0,1,44.2,47.222H39.4V43.934A3.622,3.622,0,0,1,40.559,43.745Zm-3.636,3.477a3.627,3.627,0,0,1,.989-2.333v2.333Zm-1.489,0H33.825a1.138,1.138,0,0,0-1.14,1.044l-.363,4.147a.744.744,0,1,0,1.482.13l.335-3.833H46.979L48.41,65.07h-15.7l.192-2.192,0-.019.585-6.69a.744.744,0,0,0-1.482-.13l-.527,6.019h-3.1a2.537,2.537,0,0,0-.65-.893l-2.556-2.257V54.567a7.353,7.353,0,0,0-7.344-7.344h-.635v-.433a2.052,2.052,0,0,0-2.05-2.049h-1.7a2.044,2.044,0,0,0-.561.078V27.574a.744.744,0,0,0-1.488,0v7.289a1.022,1.022,0,0,0-.246.181L7.79,38.4,1.684,32.3l7.835-7.835A9.921,9.921,0,0,1,16.1,21.547a9.332,9.332,0,0,0,18.6,0,9.92,9.92,0,0,1,6.577,2.915L49.11,32.3,43,38.4l-3.358-3.358a1.019,1.019,0,0,0-.246-.181v-7.29a.744.744,0,0,0-1.488,0v15.42a5.132,5.132,0,0,0-2.478,4.228Z" transform="translate(0)" fill="#fff"/>
    </g>
  </g>
</svg>
