<svg xmlns="http://www.w3.org/2000/svg" width="51.889" height="64.343" viewBox="0 0 51.889 64.343">
  <g id="Group_38170" data-name="Group 38170" transform="translate(-7 -1)">
    <path id="Path_2708" data-name="Path 2708" d="M54.794,1H40.265a3.117,3.117,0,0,0-3.113,3.113V6.189a4.151,4.151,0,0,0,0,8.3V19.68h8.3V17.6a2.076,2.076,0,0,1,4.151,0V19.68h5.189a3.117,3.117,0,0,0,3.113-3.113V4.113A3.117,3.117,0,0,0,54.794,1Zm1.038,15.567A1.039,1.039,0,0,1,54.794,17.6H51.68a4.151,4.151,0,0,0-8.3,0H39.227V12.416H37.151a2.076,2.076,0,0,1,0-4.151h2.076V4.113a1.039,1.039,0,0,1,1.038-1.038H54.794a1.039,1.039,0,0,1,1.038,1.038Z" transform="translate(0.982)" fill="#fff"/>
    <path id="Path_2709" data-name="Path 2709" d="M38.134,21.529a4.155,4.155,0,0,0-4.151,4.151H29.831V20.491H27.756a2.076,2.076,0,0,1,0-4.151h2.076V7H27.049a20.049,20.049,0,0,0-12.7,35.566l4.062,3.324V48.7a3.1,3.1,0,0,0,.228,5.915,3.083,3.083,0,0,0,1.9,4.1,7.26,7.26,0,0,0,14.417,0,3.084,3.084,0,0,0,1.9-4.1A3.1,3.1,0,0,0,37.1,48.7V45.889l4.062-3.324a19.972,19.972,0,0,0,7.354-15.516V25.68H42.285A4.155,4.155,0,0,0,38.134,21.529ZM27.049,9.076h.707v5.189a4.151,4.151,0,0,0,0,8.3V25.68H23.6a4.151,4.151,0,0,0-8.3,0H9.127A18,18,0,0,1,27.049,9.076ZM15.668,40.959a17.9,17.9,0,0,1-6.577-13.2h8.288V25.68a2.076,2.076,0,0,1,4.151,0v2.076h6.227v4.151a4.151,4.151,0,0,0,0,8.3v8.3H20.491V44.906ZM27.756,63.04a5.2,5.2,0,0,1-5.084-4.151H32.84A5.2,5.2,0,0,1,27.756,63.04Zm6.227-6.227H21.529a1.038,1.038,0,1,1,0-2.076H33.982a1.038,1.038,0,0,1,0,2.076Zm2.076-4.151h-16.6a1.038,1.038,0,1,1,0-2.076h16.6a1.038,1.038,0,0,1,0,2.076Zm3.786-11.7L35.02,44.906v3.605H29.831V38.134H27.756a2.076,2.076,0,0,1,0-4.151h2.076V27.756h6.227V25.68a2.076,2.076,0,0,1,4.151,0v2.076h6.212A17.9,17.9,0,0,1,39.844,40.959Z" transform="translate(0 0.227)" fill="#fff"/>
  </g>
</svg>
