<svg xmlns="http://www.w3.org/2000/svg" width="66.799" height="64.612" viewBox="0 0 66.799 64.612">
  <g id="Group_38169" data-name="Group 38169" transform="translate(-1 -2)">
    <path id="Path_2699" data-name="Path 2699" d="M2.077,56.242H26.852a1.071,1.071,0,0,0,.763-.317l7.54-7.54a1.071,1.071,0,0,0,.315-.76V12.077A1.077,1.077,0,0,0,34.393,11H2.077A1.077,1.077,0,0,0,1,12.077V55.164A1.077,1.077,0,0,0,2.077,56.242ZM27.93,52.564V48.7h3.863ZM3.154,13.154H33.315V46.547H26.852a1.077,1.077,0,0,0-1.077,1.077v6.463H3.154Z" transform="translate(0 0.695)" fill="#fff"/>
    <path id="Path_2700" data-name="Path 2700" d="M7.077,38h4.309a1.077,1.077,0,0,0,1.077-1.077V25.077A1.077,1.077,0,0,0,11.386,24H7.077A1.077,1.077,0,0,0,6,25.077V36.926A1.077,1.077,0,0,0,7.077,38ZM8.154,26.154h2.154v9.695H8.154Z" transform="translate(0.386 1.698)" fill="#fff"/>
    <path id="Path_2701" data-name="Path 2701" d="M15.077,38.466h4.309a1.077,1.077,0,0,0,1.077-1.077V19.077A1.077,1.077,0,0,0,19.386,18H15.077A1.077,1.077,0,0,0,14,19.077V37.389A1.077,1.077,0,0,0,15.077,38.466Zm1.077-18.312h2.154V36.312H16.154Z" transform="translate(1.003 1.235)" fill="#fff"/>
    <path id="Path_2702" data-name="Path 2702" d="M23.077,37.695h4.309a1.077,1.077,0,0,0,1.077-1.077v-7.54A1.077,1.077,0,0,0,27.386,28H23.077A1.077,1.077,0,0,0,22,29.077v7.54A1.077,1.077,0,0,0,23.077,37.695Zm1.077-7.54h2.154V35.54H24.154Z" transform="translate(1.621 2.007)" fill="#fff"/>
    <path id="Path_2703" data-name="Path 2703" d="M5,39H30.852v2.154H5Z" transform="translate(0.309 2.856)" fill="#fff"/>
    <path id="Path_2704" data-name="Path 2704" d="M55.437,2a9.674,9.674,0,0,0-8.254,14.757l-11.8,9.167,1.323,1.7L48.5,18.456A9.695,9.695,0,1,0,55.437,2Zm0,17.235a7.54,7.54,0,1,1,7.54-7.54A7.54,7.54,0,0,1,55.437,19.235Z" transform="translate(2.654 0)" fill="#fff"/>
    <path id="Path_2705" data-name="Path 2705" d="M55.437,44.447A9.664,9.664,0,0,0,48.5,47.38L36.709,38.21l-1.323,1.7,11.8,9.167a9.685,9.685,0,1,0,8.254-4.632Zm0,17.235a7.54,7.54,0,1,1,7.54-7.54,7.54,7.54,0,0,1-7.54,7.54Z" transform="translate(2.654 2.795)" fill="#fff"/>
    <path id="Path_2706" data-name="Path 2706" d="M52.8,12.241l-1.523-1.523-1.523,1.523,2.285,2.285a1.077,1.077,0,0,0,1.523,0L58.9,9.194,57.374,7.671Z" transform="translate(3.763 0.438)" fill="#fff"/>
    <path id="Path_2707" data-name="Path 2707" d="M56.966,49.111,54.3,51.777l-2.666-2.666-1.523,1.523L52.777,53.3l-2.666,2.666,1.523,1.523L54.3,54.823l2.666,2.666,1.523-1.523L55.823,53.3l2.666-2.666Z" transform="translate(3.79 3.636)" fill="#fff"/>
  </g>
</svg>
