<svg xmlns="http://www.w3.org/2000/svg" width="58.31" height="64.534" viewBox="0 0 58.31 64.534">
  <path id="Path_2694" data-name="Path 2694" d="M57.65,69.1c0-8.179-8.851-9.251-8.851-23.378A19.884,19.884,0,0,1,68.681,25.842a1.085,1.085,0,0,1,0,2.169A17.714,17.714,0,0,0,50.967,45.725c0,12.9,8.147,13.977,8.81,22.294h18.85A1.085,1.085,0,0,1,79.712,69.1v4.58a4.646,4.646,0,0,1-4.635,4.635H73.834V80A2.542,2.542,0,0,1,71.3,82.534H66.065A2.541,2.541,0,0,1,63.528,80V78.318H62.285a4.646,4.646,0,0,1-4.635-4.635ZM70.669,52.111a8.361,8.361,0,0,1,4.639-5.167,4.463,4.463,0,1,1,6.639,0,8.362,8.362,0,0,1,4.639,5.167,9.749,9.749,0,1,0-15.918,0Zm14.109,1.933a6.175,6.175,0,0,0-12.3,0,9.752,9.752,0,0,0,12.3,0ZM80.25,42.34a2.294,2.294,0,1,0,0,3.244,2.3,2.3,0,0,0,0-3.244Zm17.637,8.623a1.085,1.085,0,0,0,1.068-.9,20.771,20.771,0,0,0,.008-7.126A1.085,1.085,0,0,0,97.886,42h-2.7a17.165,17.165,0,0,0-1.684-4.056l1.908-1.908,0,0a1.081,1.081,0,0,0,.122-1.383,20.548,20.548,0,0,0-5.016-5.035,1.085,1.085,0,0,0-1.443.081L87.168,31.6A17.411,17.411,0,0,0,83.11,29.92v-2.7a1.085,1.085,0,0,0-.9-1.068,20.747,20.747,0,0,0-7.126-.007,1.085,1.085,0,0,0-.942,1.075v2.7A17.179,17.179,0,0,0,70.089,31.6l-1.908-1.908,0,0a1.081,1.081,0,0,0-1.383-.122A20.547,20.547,0,0,0,61.76,34.59a1.085,1.085,0,0,0,.081,1.443l1.906,1.906A17.414,17.414,0,0,0,62.068,42h-2.7a1.085,1.085,0,0,0-1.068.9q-.157.893-.234,1.784a20.579,20.579,0,0,0,.226,5.342,1.085,1.085,0,0,0,1.075.941h2.7a17.4,17.4,0,0,0,1.679,4.058l-1.906,1.906h0a1.083,1.083,0,0,0-.12,1.388,20.536,20.536,0,0,0,4.989,5.01,1.085,1.085,0,0,0,1.469-.06l1.908-1.908a17.174,17.174,0,0,0,4.056,1.685v2.7a1.085,1.085,0,0,0,.9,1.068,20.752,20.752,0,0,0,7.126.008,1.085,1.085,0,0,0,.942-1.075v-2.7a17.4,17.4,0,0,0,4.058-1.679l1.906,1.906h0a1.083,1.083,0,0,0,1.388.12,20.535,20.535,0,0,0,5.01-4.989,1.085,1.085,0,0,0-.06-1.469l-1.908-1.908a17.171,17.171,0,0,0,1.684-4.056ZM94.34,48.794h2.613a18.74,18.74,0,0,0,0-4.627H94.34a1.085,1.085,0,0,1-1.059-.855,14.914,14.914,0,0,0-.8-2.56,15.146,15.146,0,0,0-1.217-2.333,1.085,1.085,0,0,1,.107-1.409l1.851-1.851a18.912,18.912,0,0,0-3.274-3.271L88.1,33.733h0a1.083,1.083,0,0,1-1.35.145,14.924,14.924,0,0,0-4.908-2.038,1.085,1.085,0,0,1-.9-1.069V28.155a18.732,18.732,0,0,0-4.627,0v2.613h0a1.085,1.085,0,0,1-.855,1.059,14.908,14.908,0,0,0-2.559.8,15.165,15.165,0,0,0-2.334,1.217,1.085,1.085,0,0,1-1.409-.107L67.3,31.885a18.92,18.92,0,0,0-3.27,3.274l1.847,1.847h0a1.083,1.083,0,0,1,.145,1.35,14.926,14.926,0,0,0-2.038,4.908,1.085,1.085,0,0,1-1.069.9H60.3a18.7,18.7,0,0,0,0,4.627h2.617a1.085,1.085,0,0,1,1.059.855,14.924,14.924,0,0,0,2.012,4.9,1.085,1.085,0,0,1-.107,1.409L64.035,57.8a18.915,18.915,0,0,0,3.27,3.274l1.851-1.851h0a1.083,1.083,0,0,1,1.35-.146,15.1,15.1,0,0,0,4.906,2.044,1.085,1.085,0,0,1,.9,1.069V64.8a18.726,18.726,0,0,0,4.627,0V62.188h0a1.085,1.085,0,0,1,.855-1.059,14.925,14.925,0,0,0,4.9-2.011,1.085,1.085,0,0,1,1.409.107l1.847,1.847A18.912,18.912,0,0,0,93.223,57.8l-1.851-1.85h0a1.083,1.083,0,0,1-.145-1.35,15.092,15.092,0,0,0,2.043-4.906,1.085,1.085,0,0,1,1.069-.9ZM78.627,34.563A11.917,11.917,0,1,0,90.545,46.48,11.917,11.917,0,0,0,78.627,34.563ZM51.2,65.914l2.343-2.343A1.085,1.085,0,1,0,52,62.038L49.662,64.38A1.085,1.085,0,1,0,51.2,65.914ZM42.041,47.637a1.085,1.085,0,0,1,0-2.169h3.314a1.085,1.085,0,0,1,0,2.169Zm6.451-19.4,2.343,2.343a1.085,1.085,0,1,0,1.534-1.534l-2.343-2.343a1.085,1.085,0,1,0-1.534,1.534Zm18.277-9.155a1.085,1.085,0,0,1,2.169,0V22.4a1.085,1.085,0,0,1-2.169,0Zm4.9,59.234H65.7V80a.372.372,0,0,0,.368.368H71.3A.372.372,0,0,0,71.665,80Zm5.878-4.635v-3.5H59.819v3.5a2.476,2.476,0,0,0,2.466,2.466H75.077A2.476,2.476,0,0,0,77.543,73.683Z" transform="translate(-40.956 -18)" fill="#fff" fill-rule="evenodd"/>
</svg>
