<svg xmlns="http://www.w3.org/2000/svg" width="64.406" height="64.409" viewBox="0 0 64.406 64.409">
  <g id="Group_38168" data-name="Group 38168" transform="translate(-3.999 -4.264)">
    <path id="Path_2695" data-name="Path 2695" d="M146.288,460.829a.767.767,0,0,0-.919.575l-1.045,4.533a.767.767,0,1,0,1.494.344l1.045-4.533a.767.767,0,0,0-.575-.919Z" transform="translate(-122.375 -398.203)" fill="#fff"/>
    <path id="Path_2696" data-name="Path 2696" d="M349.03,461.4a.767.767,0,1,0-1.494.344l1.045,4.533a.767.767,0,1,0,1.494-.345l-1.045-4.533Z" transform="translate(-299.619 -398.203)" fill="#fff"/>
    <path id="Path_2697" data-name="Path 2697" d="M203.912,12.955l-.513,2.988a1.509,1.509,0,0,0,2.192,1.593l2.684-1.411,2.684,1.411a1.511,1.511,0,0,0,2.192-1.593l-.513-2.988,2.171-2.116a1.511,1.511,0,0,0-.837-2.578l-3-.436-1.342-2.719a1.511,1.511,0,0,0-2.71,0l-1.342,2.719-3,.436a1.511,1.511,0,0,0-.837,2.578l2.171,2.116Zm1.9-3.614a1.511,1.511,0,0,0,1.138-.827l1.327-2.689L209.6,8.514a1.511,1.511,0,0,0,1.138.827l2.967.431-2.147,2.093a1.51,1.51,0,0,0-.435,1.338l.507,2.955-2.654-1.4h0a1.512,1.512,0,0,0-1.406,0l-2.654,1.4.507-2.955a1.511,1.511,0,0,0-.434-1.338l-2.147-2.093,2.967-.431Z" transform="translate(-172.073 0)" fill="#fff"/>
    <path id="Path_2698" data-name="Path 2698" d="M68.4,182.376l-.812-6.818a19.583,19.583,0,0,0-2.056-7.463,6.737,6.737,0,0,0-3.731-3.089c-.961-.342-1.958-.681-2.846-.976a6.811,6.811,0,1,0-6.014,0c-.888.3-1.886.635-2.847.976a6.687,6.687,0,0,0-3.488,2.7c-.494-.1-.972-.2-1.423-.285-1.436-.28-3.063-.6-3.448-.982a4.511,4.511,0,0,1-.955-3.123,8.988,8.988,0,0,0,4.408-7.728v-1.07a3.475,3.475,0,0,0,1.258-6.214,12.449,12.449,0,0,0-.329-6.924.767.767,0,0,0-1.432.549A10.743,10.743,0,0,1,45,147.7a3.47,3.47,0,0,0-.578-.049.767.767,0,0,0-.748.6,1.141,1.141,0,0,1-.224.478l-.8-3.179a.767.767,0,0,0-1.122-.479c-.058.033-5.861,3.265-9.532-.234a.767.767,0,0,0-1.282.411,7.328,7.328,0,0,1-1.679,3.556l-.362-.726a.767.767,0,0,0-.686-.425,3.466,3.466,0,0,0-1.028.155,20.615,20.615,0,0,1-.27-3.737c-.005-3.673,2.879-3.954,3.2-3.974a.773.773,0,0,0,.535-.256,9.035,9.035,0,0,1,7.343-2.649,10.115,10.115,0,0,1,3.15.827.767.767,0,0,0,.634-1.4,11.637,11.637,0,0,0-3.627-.956A10.627,10.627,0,0,0,29.5,138.6c-1.666.217-4.352,1.563-4.346,5.479a18.634,18.634,0,0,0,.416,4.559,3.474,3.474,0,0,0,1.649,5.888v1.07a8.988,8.988,0,0,0,4.408,7.728,4.518,4.518,0,0,1-.961,3.128c-.378.378-2.006.7-3.442.976-.451.088-.929.182-1.423.285a6.689,6.689,0,0,0-3.488-2.7c-.961-.342-1.959-.681-2.847-.976a6.852,6.852,0,0,0,1.463-.972,6.808,6.808,0,1,0-7.477.973c-.887.3-1.884.634-2.846.976A6.737,6.737,0,0,0,6.874,168.1a19.584,19.584,0,0,0-2.056,7.463L4,182.376a.767.767,0,0,0,1.523.181l.812-6.818c.784-6.577,2.477-8.47,4.778-9.288,1.883-.669,3.909-1.329,4.95-1.663a1.273,1.273,0,0,1,.78,0c1.041.334,3.07.995,4.949,1.663a5.166,5.166,0,0,1,2.378,1.633c-3.4.871-7.038,2.442-7.963,6.233-1.6,6.552-1.867,7.952-1.878,8.009a.767.767,0,0,0,1.507.286c0-.014.282-1.454,1.861-7.931.982-4.028,6.086-5.024,9.813-5.752l.062-.012A6.633,6.633,0,0,0,32.656,173a.766.766,0,0,0,.443-.077l1.135.817-1.527,8.591a.767.767,0,1,0,1.51.268l1.5-8.433h.972l1.5,8.433a.767.767,0,1,0,1.51-.268l-1.527-8.591,1.136-.818a.764.764,0,0,0,.443.077,6.632,6.632,0,0,0,5.078-4.086l.062.012c3.727.728,8.831,1.724,9.813,5.752,1.58,6.477,1.859,7.917,1.861,7.931a.767.767,0,1,0,1.507-.285c-.011-.056-.28-1.456-1.878-8.009-.925-3.791-4.559-5.363-7.963-6.233a5.167,5.167,0,0,1,2.378-1.633c1.881-.669,3.908-1.329,4.949-1.663a1.276,1.276,0,0,1,.381-.061h.012a1.279,1.279,0,0,1,.387.061c1.041.334,3.068.994,4.949,1.663,2.3.818,3.994,2.711,4.778,9.288l.812,6.818a.767.767,0,0,0,.76.676.794.794,0,0,0,.092-.005.767.767,0,0,0,.671-.852ZM11.188,157.538a5.29,5.29,0,0,1,5.267-4.912c.124,0,.25,0,.376.013a5.284,5.284,0,1,1-5.642,4.9Zm17.563-1.945v-1.751a.767.767,0,0,0-.767-.767,1.943,1.943,0,0,1-.449-3.833l.47.943a.767.767,0,0,0,.886.4c1.682-.454,2.59-2.492,3.017-3.846,3.437,2.333,7.667.915,9.484.109l.8,3.185a.766.766,0,0,0,.828.574,2.532,2.532,0,0,0,1.907-1.348,1.943,1.943,0,0,1-.51,3.818.767.767,0,0,0-.767.767v1.751a7.452,7.452,0,0,1-14.9,0Zm7.452,8.985a8.942,8.942,0,0,0,3.065-.539,6.188,6.188,0,0,0,.808,2.762,7.563,7.563,0,0,1-7.747,0,6.2,6.2,0,0,0,.808-2.759A8.944,8.944,0,0,0,36.2,164.578Zm.881,8.059H35.321l-1.116-.8,2-2.09,2,2.09-1.116.8Zm-4.6-1.217a5.094,5.094,0,0,1-3.357-2.817,8.207,8.207,0,0,0,2.092-.681,10.074,10.074,0,0,0,3.347,1.319Zm7.446,0-2.082-2.179a10.074,10.074,0,0,0,3.348-1.319,8.205,8.205,0,0,0,2.09.681,5.093,5.093,0,0,1-3.357,2.817Zm10.751-13.138a5.283,5.283,0,0,1,4.9-5.642q.189-.013.376-.013a5.284,5.284,0,1,1-5.274,5.656Z" transform="translate(0 -114.563)" fill="#fff"/>
    <circle id="Ellipse_4" data-name="Ellipse 4" cx="0.767" cy="0.767" r="0.767" transform="translate(42.989 23.74)" fill="#fff"/>
  </g>
</svg>
