<svg xmlns="http://www.w3.org/2000/svg" width="67.5" height="55.632" viewBox="0 0 67.5 55.632">
  <g id="Group_35042" data-name="Group 35042" transform="translate(-1.25 -5.25)">
    <path id="Path_2382" data-name="Path 2382" d="M10.33,19.25a4.084,4.084,0,0,0-4.08,4.08v7.417a1.113,1.113,0,0,0,2.225,0V28.893h3.709v1.854a1.113,1.113,0,0,0,2.225,0V23.33A4.084,4.084,0,0,0,10.33,19.25ZM8.475,26.668V23.33a1.854,1.854,0,1,1,3.709,0v3.338Z" transform="translate(2.418 6.769)" fill="#67dbff"/>
    <path id="Path_2383" data-name="Path 2383" d="M21.409,23.33a4.084,4.084,0,0,0-4.08-4.08H14.363a1.113,1.113,0,0,0-1.113,1.113V30.747a1.113,1.113,0,0,0,2.225,0V27.409H17.33A4.084,4.084,0,0,0,21.409,23.33Zm-4.08,1.854H15.475V21.475H17.33a1.854,1.854,0,1,1,0,3.709Z" transform="translate(5.802 6.769)" fill="#67dbff"/>
    <path id="Path_2384" data-name="Path 2384" d="M21.363,19.274a1.045,1.045,0,0,0-1.113,1.076V30.735a1.113,1.113,0,0,0,2.225,0V20.351A1.061,1.061,0,0,0,21.363,19.274Z" transform="translate(9.187 6.781)" fill="#67dbff"/>
    <path id="Path_2385" data-name="Path 2385" d="M64.67,5.25H5.33A4.084,4.084,0,0,0,1.25,9.33V56.8a4.084,4.084,0,0,0,4.08,4.08H64.67a4.084,4.084,0,0,0,4.08-4.08V9.33A4.084,4.084,0,0,0,64.67,5.25ZM5.33,7.475H64.67A1.856,1.856,0,0,1,66.525,9.33v7.788H3.475V9.33A1.856,1.856,0,0,1,5.33,7.475ZM64.67,58.657H5.33A1.856,1.856,0,0,1,3.475,56.8V19.343H66.525V56.8A1.856,1.856,0,0,1,64.67,58.657Z" fill="#67dbff"/>
    <path id="Path_2386" data-name="Path 2386" d="M48.333,30.938a2.6,2.6,0,0,0,.95-3.547l-1.908-3.3a2.658,2.658,0,0,0-3.546-.95,1.509,1.509,0,0,1-2.237-1.292,2.6,2.6,0,0,0-2.6-2.6H35.18a2.6,2.6,0,0,0-2.6,2.6,1.506,1.506,0,0,1-2.237,1.292,2.626,2.626,0,0,0-3.547.95l-1.908,3.3a2.6,2.6,0,0,0,.95,3.546,1.5,1.5,0,0,1,0,2.585,2.6,2.6,0,0,0-.95,3.547l1.908,3.3a2.628,2.628,0,0,0,3.546.95,1.506,1.506,0,0,1,2.237,1.292,2.6,2.6,0,0,0,2.6,2.6H39a2.6,2.6,0,0,0,2.6-2.6,1.5,1.5,0,0,1,2.237-1.292,2.621,2.621,0,0,0,3.547-.95l1.908-3.3a2.6,2.6,0,0,0-.95-3.546,1.5,1.5,0,0,1,0-2.585ZM47.221,35.45a.372.372,0,0,1,.136.507l-1.908,3.3a.374.374,0,0,1-.507.136,3.754,3.754,0,0,0-5.575,3.219.372.372,0,0,1-.371.371H35.18a.372.372,0,0,1-.371-.371A3.751,3.751,0,0,0,29.234,39.4a.373.373,0,0,1-.507-.136l-1.908-3.3a.372.372,0,0,1,.136-.507,3.754,3.754,0,0,0,0-6.438.372.372,0,0,1-.136-.507l1.908-3.3a.372.372,0,0,1,.507-.136,3.75,3.75,0,0,0,5.575-3.219.372.372,0,0,1,.371-.371H39a.372.372,0,0,1,.371.371,3.75,3.75,0,0,0,5.575,3.219.373.373,0,0,1,.507.136l1.908,3.3a.372.372,0,0,1-.136.507A3.766,3.766,0,0,0,47.221,35.45Z" transform="translate(11.264 6.769)" fill="#67dbff"/>
    <path id="Path_2387" data-name="Path 2387" d="M34.813,24.25a5.563,5.563,0,1,0,5.563,5.563A5.57,5.57,0,0,0,34.813,24.25Zm0,8.9a3.338,3.338,0,1,1,3.338-3.338A3.342,3.342,0,0,1,34.813,33.151Z" transform="translate(13.538 9.187)" fill="#67dbff"/>
    <path id="Path_2388" data-name="Path 2388" d="M32.35,11.475H47.185a1.113,1.113,0,0,0,0-2.225H32.351A1.113,1.113,0,0,0,32.35,11.475Z" transform="translate(14.518 1.934)" fill="#67dbff"/>
    <circle id="Ellipse_17" data-name="Ellipse 17" cx="1.113" cy="1.113" r="1.113" transform="translate(7.184 11.184)" fill="#67dbff"/>
    <circle id="Ellipse_18" data-name="Ellipse 18" cx="1.113" cy="1.113" r="1.113" transform="translate(11.635 11.184)" fill="#67dbff"/>
    <circle id="Ellipse_19" data-name="Ellipse 19" cx="1.113" cy="1.113" r="1.113" transform="translate(16.085 11.184)" fill="#67dbff"/>
    <path id="Path_2389" data-name="Path 2389" d="M12.6,38.475,8.936,34.811,12.6,31.147c.979-.98-.568-2.578-1.574-1.573L6.576,34.024a1.112,1.112,0,0,0,0,1.573l4.45,4.45C12.011,41.033,13.649,39.525,12.6,38.475Z" transform="translate(2.418 11.606)" fill="#67dbff"/>
    <path id="Path_2390" data-name="Path 2390" d="M19.149,29.573c-.986-.986-2.59.556-1.573,1.573L21.24,34.81l-3.664,3.664c-.99.991.57,2.577,1.574,1.573L23.6,35.6a1.112,1.112,0,0,0,0-1.573Z" transform="translate(7.737 11.608)" fill="#67dbff"/>
    <path id="Path_2391" data-name="Path 2391" d="M16.659,29.36a1.016,1.016,0,0,0-1.383.634l-2.967,8.9a1.113,1.113,0,0,0,2.111.7l2.967-8.9a1.06,1.06,0,0,0-.727-1.339Z" transform="translate(5.317 11.621)" fill="#67dbff"/>
  </g>
</svg>
