<svg xmlns="http://www.w3.org/2000/svg" width="60" height="60" viewBox="0 0 60 60">
  <g id="database_server" data-name="database server" transform="translate(-2 -2)">
    <path id="Path_2392" data-name="Path 2392" d="M43.82,20.01A2.986,2.986,0,0,0,41,18H40V16h1a3.009,3.009,0,0,0,3-3V5a3.009,3.009,0,0,0-3-3H5A3.009,3.009,0,0,0,2,5v8a3.009,3.009,0,0,0,3,3H6v2H5a3.009,3.009,0,0,0-3,3v8a3.009,3.009,0,0,0,3,3H6v2H5a3.009,3.009,0,0,0-3,3v8a3.009,3.009,0,0,0,3,3H24v8c0,3.94,9.56,6,19,6s19-2.06,19-6V26C62,22.17,52.99,20.13,43.82,20.01ZM5,14a1,1,0,0,1-1-1V5A1,1,0,0,1,5,4H41a1,1,0,0,1,1,1v8a1,1,0,0,1-1,1Zm33,2v2H34V16Zm-6,0v2H14V16ZM12,16v2H8V16ZM24,46H5a1,1,0,0,1-1-1V37a1,1,0,0,1,1-1H24ZM8,34V32h4v2Zm16,0H14V32H24Zm0-8v4H5a1,1,0,0,1-1-1V21a1,1,0,0,1,1-1H41a.7.7,0,0,1,.14.03C32.34,20.28,24,22.32,24,26ZM60,56c0,1.36-6,4-17,4s-17-2.64-17-4V48.82C29.29,50.91,36.16,52,43,52s13.71-1.09,17-3.18Zm0-10c0,1.36-6,4-17,4s-17-2.64-17-4V38.82C29.29,40.91,36.16,42,43,42s13.71-1.09,17-3.18Zm0-10c0,1.36-6,4-17,4s-17-2.64-17-4V28.82C29.29,30.91,36.16,32,43,32s13.71-1.09,17-3.18ZM43,30c-11,0-17-2.64-17-4s6-4,17-4,17,2.64,17,4S54,30,43,30Z" fill="#67dbff"/>
    <path id="Path_2393" data-name="Path 2393" d="M42,35h2v2H42Z" fill="#67dbff"/>
    <path id="Path_2394" data-name="Path 2394" d="M42,46h2v2H42Z" fill="#67dbff"/>
    <path id="Path_2395" data-name="Path 2395" d="M42,55h2v2H42Z" fill="#67dbff"/>
    <path id="Path_2396" data-name="Path 2396" d="M11,22H7a1,1,0,0,0-1,1v4a1,1,0,0,0,1,1h4a1,1,0,0,0,1-1V23A1,1,0,0,0,11,22Zm-1,4H8V24h2Z" fill="#67dbff"/>
    <path id="Path_2397" data-name="Path 2397" d="M19,22H15a1,1,0,0,0-1,1v4a1,1,0,0,0,1,1h4a1,1,0,0,0,1-1V23A1,1,0,0,0,19,22Zm-1,4H16V24h2Z" fill="#67dbff"/>
    <path id="Path_2398" data-name="Path 2398" d="M11,6H7A1,1,0,0,0,6,7v4a1,1,0,0,0,1,1h4a1,1,0,0,0,1-1V7A1,1,0,0,0,11,6Zm-1,4H8V8h2Z" fill="#67dbff"/>
    <path id="Path_2399" data-name="Path 2399" d="M19,6H15a1,1,0,0,0-1,1v4a1,1,0,0,0,1,1h4a1,1,0,0,0,1-1V7A1,1,0,0,0,19,6Zm-1,4H16V8h2Z" fill="#67dbff"/>
    <path id="Path_2400" data-name="Path 2400" d="M22,6H36V8H22Z" fill="#67dbff"/>
    <path id="Path_2401" data-name="Path 2401" d="M38,6h2V8H38Z" fill="#67dbff"/>
    <path id="Path_2402" data-name="Path 2402" d="M22,10H36v2H22Z" fill="#67dbff"/>
    <path id="Path_2403" data-name="Path 2403" d="M38,10h2v2H38Z" fill="#67dbff"/>
    <path id="Path_2404" data-name="Path 2404" d="M11,38H7a1,1,0,0,0-1,1v4a1,1,0,0,0,1,1h4a1,1,0,0,0,1-1V39A1,1,0,0,0,11,38Zm-1,4H8V40h2Z" fill="#67dbff"/>
    <path id="Path_2405" data-name="Path 2405" d="M19,38H15a1,1,0,0,0-1,1v4a1,1,0,0,0,1,1h4a1,1,0,0,0,1-1V39A1,1,0,0,0,19,38Zm-1,4H16V40h2Z" fill="#67dbff"/>
  </g>
</svg>
