<svg xmlns="http://www.w3.org/2000/svg" width="61.396" height="61.396" viewBox="0 0 61.396 61.396">
  <g id="Group_35043" data-name="Group 35043" transform="translate(0)">
    <path id="Path_2416" data-name="Path 2416" d="M18.047,49.4A3.075,3.075,0,0,1,20.093,46.5V62.7H22.14V37.116a3.073,3.073,0,0,1,3.07-3.07H52.837V32H25.209a5.122,5.122,0,0,0-5.116,5.116v7.266A5.125,5.125,0,0,0,16,49.4V61.675h2.047Z" transform="translate(-13.954 -27.907)" fill="#67dbff"/>
    <path id="Path_2417" data-name="Path 2417" d="M60.372,269.488H59.349V248H57.3v21.488H39.308a4.487,4.487,0,0,0-3.194,1.323,2.454,2.454,0,0,1-1.747.724H27.028a2.454,2.454,0,0,1-1.747-.724,4.487,4.487,0,0,0-3.194-1.323H4.093V265.4H2.047v4.093H1.023A1.023,1.023,0,0,0,0,270.512v3.07a4.1,4.1,0,0,0,4.093,4.093H57.3a4.1,4.1,0,0,0,4.093-4.093v-3.07A1.023,1.023,0,0,0,60.372,269.488Zm-1.023,4.093a2.049,2.049,0,0,1-2.047,2.047H4.093a2.049,2.049,0,0,1-2.047-2.047v-2.047H22.088a2.454,2.454,0,0,1,1.747.724,4.487,4.487,0,0,0,3.19,1.323h7.347a4.487,4.487,0,0,0,3.19-1.323,2.454,2.454,0,0,1,1.747-.724H59.349Z" transform="translate(0 -216.279)" fill="#67dbff"/>
    <path id="Path_2418" data-name="Path 2418" d="M416,248h2.047v19.442H416Z" transform="translate(-362.791 -216.279)" fill="#67dbff"/>
    <path id="Path_2419" data-name="Path 2419" d="M48,384h2.047v2.046H48Z" transform="translate(-41.86 -334.884)" fill="#67dbff"/>
    <path id="Path_2420" data-name="Path 2420" d="M88,64h2.047v2.047H88Z" transform="translate(-76.74 -55.814)" fill="#67dbff"/>
    <path id="Path_2421" data-name="Path 2421" d="M119.995,64h2.047v2.047h-2.047Z" transform="translate(-104.647 -55.814)" fill="#67dbff"/>
    <path id="Path_2422" data-name="Path 2422" d="M151.995,64h2.047v2.047h-2.047Z" transform="translate(-132.554 -55.814)" fill="#67dbff"/>
    <path id="Path_2423" data-name="Path 2423" d="M88,96h25.581v2.047H88Z" transform="translate(-76.744 -83.721)" fill="#67dbff"/>
    <path id="Path_2424" data-name="Path 2424" d="M192.073,131.905a10.247,10.247,0,0,1,10.152.93l1.178-1.673a12.264,12.264,0,0,0-14.124,0l1.178,1.673A10.244,10.244,0,0,1,192.073,131.905Z" transform="translate(-165.069 -112.434)" fill="#67dbff"/>
    <path id="Path_2425" data-name="Path 2425" d="M282.681,342.859a25.47,25.47,0,0,0,5.28-8.133l-1.9-.768a23.435,23.435,0,0,1-4.858,7.482Z" transform="translate(-245.238 -291.242)" fill="#67dbff"/>
    <path id="Path_2426" data-name="Path 2426" d="M191.118,12.279h-1.023V9.209a9.209,9.209,0,0,0-18.419,0,1.023,1.023,0,0,0,1.023,1.023h4.093a1.023,1.023,0,0,0,1.023-1.023,3.07,3.07,0,0,1,6.14,0v3.07h-13.3A1.023,1.023,0,0,0,169.63,13.3v9.3a18.032,18.032,0,0,0-8.35-2.019h-.143a16.962,16.962,0,0,0-9.57,2.95l1.15,1.692a14.923,14.923,0,0,1,8.419-2.6h.143a15.912,15.912,0,0,1,8.35,2.322v2.467a13.865,13.865,0,0,0-8.349-2.742h-.143a13.109,13.109,0,0,0-10.725,5.647l-.491.706L151.6,32.2l.491-.705a11.061,11.061,0,0,1,9.045-4.771h.143a11.454,11.454,0,0,1,9.407,4.683,10.9,10.9,0,0,1,1.6,3.377,10.665,10.665,0,0,1,0,5.845l1.97.556a12.7,12.7,0,0,0,0-6.957,12.93,12.93,0,0,0-1.9-4c-.134-.19-.274-.374-.418-.555h19.176a1.023,1.023,0,0,0,1.023-1.023V13.3a1.023,1.023,0,0,0-1.023-1.023ZM180.886,4.093a5.125,5.125,0,0,0-5.014,4.093H173.8a7.163,7.163,0,0,1,14.253,1.023v3.07H186V9.209A5.122,5.122,0,0,0,180.886,4.093Zm9.209,23.535H171.676v-13.3h18.419Z" transform="translate(-130.746)" fill="#67dbff"/>
    <path id="Path_2427" data-name="Path 2427" d="M360.041,131.991a3.007,3.007,0,0,0,.145-.921,3.07,3.07,0,1,0-6.14,0,3.006,3.006,0,0,0,.145.921,5.091,5.091,0,0,0-2.192,4.2,1.023,1.023,0,0,0,1.023,1.023h8.186a1.023,1.023,0,0,0,1.023-1.023A5.091,5.091,0,0,0,360.041,131.991Zm-5.82,3.172a3.063,3.063,0,0,1,1.738-1.816,1.023,1.023,0,0,0,.388-1.615,1.01,1.01,0,0,1-.254-.661,1.023,1.023,0,1,1,2.047,0,1.011,1.011,0,0,1-.254.662,1.023,1.023,0,0,0,.388,1.615,3.063,3.063,0,0,1,1.738,1.816Z" transform="translate(-306.977 -111.628)" fill="#67dbff"/>
    <path id="Path_2428" data-name="Path 2428" d="M1.023,243.257H21.76l-.126.126,1.447,1.448,1.573-1.573h2.887l-2.869,2.868,1.447,1.447,5.145-5.145a17.464,17.464,0,0,0,4.316-7.078,4.757,4.757,0,0,0-.713-4.287,4.856,4.856,0,0,0-3.957-2.008h-.521a4.955,4.955,0,0,0-4.632,3.384c-.069.2-.145.4-.229.586H23.19a5.127,5.127,0,0,0,.637-1.252,6.989,6.989,0,0,1,6.564-4.764h.522a6.969,6.969,0,0,1,5.6,2.835,6.784,6.784,0,0,1,1.016,6.118,19.543,19.543,0,0,1-4.813,7.913l-3.776,3.776,1.447,1.447,3.776-3.776a21.593,21.593,0,0,0,5.317-8.743,8.811,8.811,0,0,0-1.317-7.945,9.024,9.024,0,0,0-7.251-3.672h-.522a9.036,9.036,0,0,0-8.5,6.144,3.208,3.208,0,0,1-.749,1.2l-.724.723H1.023A1.023,1.023,0,0,0,0,234.047v8.186a1.023,1.023,0,0,0,1.023,1.023ZM30.391,231.1h.522a2.83,2.83,0,0,1,2.305,1.171,2.73,2.73,0,0,1,.413,2.46,15.172,15.172,0,0,1-2.933,5.3V236.4a13.17,13.17,0,0,0,1.1-2.736.256.256,0,0,0-.181-.313l-.023-.005-1.923-.326H27.725A2.86,2.86,0,0,1,30.391,231.1Zm-28.344,3.97h26.6v6.14H2.046Z" transform="translate(0 -196.187)" fill="#67dbff"/>
    <path id="Path_2429" data-name="Path 2429" d="M32,320h2.047v2.047H32Z" transform="translate(-27.907 -279.07)" fill="#67dbff"/>
    <path id="Path_2430" data-name="Path 2430" d="M64,320h2.047v2.047H64Z" transform="translate(-55.814 -279.07)" fill="#67dbff"/>
    <path id="Path_2431" data-name="Path 2431" d="M96,320h2.047v2.047H96Z" transform="translate(-83.721 -279.07)" fill="#67dbff"/>
    <path id="Path_2432" data-name="Path 2432" d="M128,320h2.047v2.047H128Z" transform="translate(-111.628 -279.07)" fill="#67dbff"/>
  </g>
</svg>
