<svg xmlns="http://www.w3.org/2000/svg" width="63.88" height="63.882" viewBox="0 0 63.88 63.882">
  <g id="Outline" transform="translate(-16 -15.981)">
    <g id="Hosting-server-cloud" transform="translate(16 15.981)">
      <path id="Path_2406" data-name="Path 2406" d="M176,160h12.776v2.129H176Z" transform="translate(-154.707 -140.833)" fill="#67dbff"/>
      <path id="Path_2407" data-name="Path 2407" d="M288,160h2.129v2.129H288Z" transform="translate(-251.801 -140.833)" fill="#67dbff"/>
      <path id="Path_2408" data-name="Path 2408" d="M320,160h2.129v2.129H320Z" transform="translate(-279.542 -140.833)" fill="#67dbff"/>
      <path id="Path_2409" data-name="Path 2409" d="M176,224h12.776v2.129H176Z" transform="translate(-154.707 -196.316)" fill="#67dbff"/>
      <path id="Path_2410" data-name="Path 2410" d="M288,224h2.129v2.129H288Z" transform="translate(-251.801 -196.316)" fill="#67dbff"/>
      <path id="Path_2411" data-name="Path 2411" d="M320,224h2.129v2.129H320Z" transform="translate(-279.542 -196.316)" fill="#67dbff"/>
      <path id="Path_2412" data-name="Path 2412" d="M176,288h12.776v2.129H176Z" transform="translate(-154.707 -251.799)" fill="#67dbff"/>
      <path id="Path_2413" data-name="Path 2413" d="M288,288h2.129v2.129H288Z" transform="translate(-251.801 -251.799)" fill="#67dbff"/>
      <path id="Path_2414" data-name="Path 2414" d="M320,288h2.129v2.129H320Z" transform="translate(-279.542 -251.799)" fill="#67dbff"/>
      <path id="Path_2415" data-name="Path 2415" d="M75.622,59.635A4.266,4.266,0,0,0,71.5,62.829H59.652V58.571a3.2,3.2,0,0,0,3.194-3.194V52.183h6.388A10.647,10.647,0,1,0,67.5,31.03,20.233,20.233,0,0,0,30.086,26.7a12.946,12.946,0,0,0-1.31-.067,12.776,12.776,0,1,0,0,25.552h4.259v3.194a3.2,3.2,0,0,0,3.194,3.194v4.259H24.383a4.259,4.259,0,1,0,0,2.129H37.293a1.065,1.065,0,0,0,1.065-1.065V58.571h2.129v8.517H31.97a1.065,1.065,0,0,0-1.065,1.065v3.329a4.259,4.259,0,1,0,2.129,0V69.217h8.517a1.065,1.065,0,0,0,1.065-1.065V58.571h4.259V69.352a4.259,4.259,0,1,0,2.129,0V58.571h4.259v9.582a1.065,1.065,0,0,0,1.065,1.065h8.517v2.264a4.259,4.259,0,1,0,2.129,0V68.153a1.065,1.065,0,0,0-1.065-1.065H55.393V58.571h2.129v5.323a1.065,1.065,0,0,0,1.065,1.065H71.5a4.259,4.259,0,1,0,4.124-5.323ZM20.259,66.023a2.129,2.129,0,1,1,2.129-2.129A2.129,2.129,0,0,1,20.259,66.023ZM34.1,75.606a2.129,2.129,0,1,1-2.129-2.129A2.129,2.129,0,0,1,34.1,75.606Zm15.97-2.129a2.129,2.129,0,1,1-2.129-2.129A2.129,2.129,0,0,1,50.07,73.476Zm15.97,2.129a2.129,2.129,0,1,1-2.129-2.129A2.129,2.129,0,0,1,66.04,75.606ZM35.164,38.342V34.083a1.066,1.066,0,0,1,1.065-1.065H59.652a1.066,1.066,0,0,1,1.065,1.065v4.259a1.066,1.066,0,0,1-1.065,1.065H36.229A1.066,1.066,0,0,1,35.164,38.342Zm0,8.517V42.6a1.066,1.066,0,0,1,1.065-1.065H59.652A1.066,1.066,0,0,1,60.716,42.6v4.259a1.066,1.066,0,0,1-1.065,1.065H36.229A1.066,1.066,0,0,1,35.164,46.859ZM18.129,39.407A10.659,10.659,0,0,1,28.776,28.76a10.78,10.78,0,0,1,1.746.142,1.064,1.064,0,0,0,1.129-.586A18.1,18.1,0,0,1,65.66,32.51a1.065,1.065,0,0,0,1.325.81,8.517,8.517,0,1,1,2.248,16.734H62.663a3.2,3.2,0,0,0-.633-1.065,3.181,3.181,0,0,0,.816-2.129V42.6a3.181,3.181,0,0,0-.816-2.129,3.181,3.181,0,0,0,.816-2.129V34.083a3.2,3.2,0,0,0-3.194-3.194H36.229a3.2,3.2,0,0,0-3.194,3.194v4.259a3.181,3.181,0,0,0,.816,2.129,3.181,3.181,0,0,0-.816,2.129v4.259a3.181,3.181,0,0,0,.816,2.129,3.2,3.2,0,0,0-.633,1.065H28.776A10.659,10.659,0,0,1,18.129,39.407Zm17.035,15.97V51.118a1.066,1.066,0,0,1,1.065-1.065H59.652a1.066,1.066,0,0,1,1.065,1.065v4.259a1.066,1.066,0,0,1-1.065,1.065H36.229a1.066,1.066,0,0,1-1.065-1.065ZM75.622,66.023a2.129,2.129,0,1,1,2.129-2.129A2.129,2.129,0,0,1,75.622,66.023Z" transform="translate(-16 -15.981)" fill="#67dbff"/>
    </g>
  </g>
</svg>
