<svg id="Group_34978" data-name="Group 34978" xmlns="http://www.w3.org/2000/svg" width="70.993" height="70.993" viewBox="0 0 70.993 70.993">
  <path id="Path_2351" data-name="Path 2351" d="M31.059,57.682H5.546A5.553,5.553,0,0,1,0,52.135V5.546A5.553,5.553,0,0,1,5.546,0H7.765V2.219H5.546A3.328,3.328,0,0,0,2.219,5.546V52.135a3.328,3.328,0,0,0,3.328,3.328H31.059Z" fill="#67dbff"/>
  <path id="Path_2352" data-name="Path 2352" d="M9,0h2.22V2.219H9Z" transform="translate(0.983)" fill="#67dbff"/>
  <path id="Path_2353" data-name="Path 2353" d="M64.026,57.682V55.463a3.328,3.328,0,0,0,3.328-3.328V5.546a3.328,3.328,0,0,0-3.328-3.328H13V0H64.026a5.553,5.553,0,0,1,5.546,5.546V52.135a5.553,5.553,0,0,1-5.546,5.546Z" transform="translate(1.42)" fill="#67dbff"/>
  <path id="Path_2354" data-name="Path 2354" d="M0,0H4.573V2.219H0Z" transform="translate(21.11 60.763) rotate(-75.936)" fill="#67dbff"/>
  <path id="Path_2355" data-name="Path 2355" d="M29.2,60.656H18.109A1.109,1.109,0,0,1,17,59.546V57.328A3.328,3.328,0,0,1,20.328,54H29.2v2.219H20.328a1.109,1.109,0,0,0-1.109,1.109v1.109H29.2Z" transform="translate(1.858 5.9)" fill="#67dbff"/>
  <path id="Path_2356" data-name="Path 2356" d="M1,42H30.95v2.219H1Z" transform="translate(0.109 4.589)" fill="#67dbff"/>
  <path id="Path_2357" data-name="Path 2357" d="M4,46H6.219v2.219H4Z" transform="translate(0.437 5.026)" fill="#67dbff"/>
  <path id="Path_2358" data-name="Path 2358" d="M8,46h6.656v2.219H8Z" transform="translate(0.874 5.026)" fill="#67dbff"/>
  <path id="Path_2359" data-name="Path 2359" d="M57.732,69.463H35.546A5.553,5.553,0,0,1,30,63.917V19.546A5.553,5.553,0,0,1,35.546,14H57.732a5.553,5.553,0,0,1,5.546,5.546V63.917a5.553,5.553,0,0,1-5.546,5.546ZM35.546,16.219a3.328,3.328,0,0,0-3.328,3.328V63.917a3.328,3.328,0,0,0,3.328,3.328H57.732a3.328,3.328,0,0,0,3.328-3.328V19.546a3.328,3.328,0,0,0-3.328-3.328Z" transform="translate(3.278 1.53)" fill="#67dbff"/>
  <path id="Path_2360" data-name="Path 2360" d="M52.076,24.546H40.983c-2.079,0-2.95-1.81-3.225-3.328H31V19h7.765a1.109,1.109,0,0,1,1.109,1.109c0,.019.062,2.219,1.109,2.219H52.076c1.047,0,1.109-2.2,1.109-2.219A1.109,1.109,0,0,1,54.295,19h7.765v2.219H55.3C55.026,22.736,54.155,24.546,52.076,24.546Z" transform="translate(3.387 2.076)" fill="#67dbff"/>
  <path id="Path_2361" data-name="Path 2361" d="M41,18h8.874v2.219H41Z" transform="translate(4.48 1.967)" fill="#67dbff"/>
  <path id="Path_2362" data-name="Path 2362" d="M41,59h8.874v2.219H41Z" transform="translate(4.48 6.447)" fill="#67dbff"/>
  <path id="Path_2363" data-name="Path 2363" d="M31,56H62.059v2.219H31Z" transform="translate(3.387 6.119)" fill="#67dbff"/>
  <path id="Path_2364" data-name="Path 2364" d="M19.53,30.622H15.093a1.109,1.109,0,0,1-1.109-1.109V27.887a11.027,11.027,0,0,1-1.8-.745l-1.151,1.151a1.109,1.109,0,0,1-1.568,0L6.329,25.155a1.109,1.109,0,0,1,0-1.569l1.15-1.151a11.027,11.027,0,0,1-.744-1.8H5.109A1.109,1.109,0,0,1,4,19.53V15.093a1.109,1.109,0,0,1,1.109-1.109H6.735a11.027,11.027,0,0,1,.745-1.8L6.329,11.036a1.109,1.109,0,0,1,0-1.568L9.468,6.329a1.109,1.109,0,0,1,1.568,0l1.151,1.15a11.027,11.027,0,0,1,1.8-.744V5.109A1.109,1.109,0,0,1,15.093,4H19.53a1.109,1.109,0,0,1,1.109,1.109V6.735a11.027,11.027,0,0,1,1.8.745l1.151-1.151a1.109,1.109,0,0,1,1.569,0l3.138,3.138a1.109,1.109,0,0,1,0,1.568l-1.15,1.151a11.027,11.027,0,0,1,.744,1.8h1.626a1.109,1.109,0,0,1,1.109,1.109V19.53a1.109,1.109,0,0,1-1.109,1.109H27.887a11.027,11.027,0,0,1-.745,1.8l1.151,1.151a1.109,1.109,0,0,1,0,1.569l-3.138,3.138a1.109,1.109,0,0,1-1.569,0l-1.151-1.15a11.027,11.027,0,0,1-1.8.744v1.626a1.109,1.109,0,0,1-1.109,1.109ZM16.2,28.4H18.42V27.039a1.109,1.109,0,0,1,.863-1.083,8.782,8.782,0,0,0,2.743-1.139,1.109,1.109,0,0,1,1.377.154l.967.967,1.568-1.568-.967-.967a1.109,1.109,0,0,1-.154-1.377,8.782,8.782,0,0,0,1.139-2.743,1.109,1.109,0,0,1,1.083-.863H28.4V16.2H27.039a1.109,1.109,0,0,1-1.083-.863A8.782,8.782,0,0,0,24.818,12.6a1.109,1.109,0,0,1,.154-1.377l.967-.967L24.371,8.683l-.967.967a1.109,1.109,0,0,1-1.377.154,8.782,8.782,0,0,0-2.743-1.139,1.109,1.109,0,0,1-.863-1.083V6.219H16.2V7.583a1.109,1.109,0,0,1-.863,1.083A8.782,8.782,0,0,0,12.6,9.8a1.109,1.109,0,0,1-1.377-.154l-.967-.967L8.683,10.252l.967.967A1.109,1.109,0,0,1,9.8,12.6a8.782,8.782,0,0,0-1.139,2.743,1.109,1.109,0,0,1-1.083.863H6.219V18.42H7.583a1.109,1.109,0,0,1,1.083.863A8.782,8.782,0,0,0,9.8,22.027,1.109,1.109,0,0,1,9.651,23.4l-.967.967,1.569,1.568.967-.967a1.109,1.109,0,0,1,1.377-.154,8.782,8.782,0,0,0,2.743,1.139,1.109,1.109,0,0,1,.863,1.083Z" transform="translate(0.437 0.437)" fill="#67dbff"/>
  <path id="Path_2365" data-name="Path 2365" d="M16.546,22.093a5.546,5.546,0,1,1,5.546-5.546,5.546,5.546,0,0,1-5.546,5.546Zm0-8.874a3.328,3.328,0,1,0,3.328,3.328A3.328,3.328,0,0,0,16.546,13.219Z" transform="translate(1.202 1.202)" fill="#67dbff"/>
  <path id="Path_2366" data-name="Path 2366" d="M17.219,42.53H15V38.093a1.109,1.109,0,0,1,1.109-1.109h1.626a11.027,11.027,0,0,1,.745-1.8l-1.151-1.151a1.109,1.109,0,0,1,0-1.569l3.138-3.138a1.109,1.109,0,0,1,1.568,0l1.151,1.15a11.027,11.027,0,0,1,1.8-.744V28.109A1.109,1.109,0,0,1,26.093,27H30.53v2.219H27.2v1.364a1.109,1.109,0,0,1-.863,1.083A8.782,8.782,0,0,0,23.6,32.8a1.109,1.109,0,0,1-1.377-.154l-.967-.967-1.569,1.568.967.967A1.109,1.109,0,0,1,20.8,35.6a8.782,8.782,0,0,0-1.139,2.743,1.109,1.109,0,0,1-1.083.863H17.219Z" transform="translate(1.639 2.95)" fill="#67dbff"/>
  <path id="Path_2367" data-name="Path 2367" d="M24.219,39.546H22A5.553,5.553,0,0,1,27.546,34v2.219A3.328,3.328,0,0,0,24.219,39.546Z" transform="translate(2.404 3.715)" fill="#67dbff"/>
  <path id="Path_2368" data-name="Path 2368" d="M46.2,52.4A12.2,12.2,0,1,1,58.4,40.2,12.2,12.2,0,0,1,46.2,52.4Zm0-22.185A9.983,9.983,0,1,0,56.185,40.2,9.983,9.983,0,0,0,46.2,30.219Z" transform="translate(3.715 3.059)" fill="#67dbff"/>
  <path id="Path_2369" data-name="Path 2369" d="M43.656,47.53a1.109,1.109,0,0,1-.784-.325l-5.546-5.546a1.109,1.109,0,0,1,0-1.569l3.328-3.328a1.109,1.109,0,0,1,1.569,0L43.656,38.2l5.871-5.871a1.109,1.109,0,0,1,1.569,0l3.328,3.328a1.109,1.109,0,0,1,0,1.569L44.44,47.2A1.109,1.109,0,0,1,43.656,47.53Zm-3.978-6.656,3.978,3.978,8.415-8.415-1.759-1.759L44.44,40.549a1.109,1.109,0,0,1-1.569,0l-1.434-1.434Z" transform="translate(4.043 3.496)" fill="#67dbff"/>
  <path id="Path_2370" data-name="Path 2370" d="M57,4h2.219V6.219H57Z" transform="translate(6.228 0.437)" fill="#67dbff"/>
  <path id="Path_2371" data-name="Path 2371" d="M42,4H56.42V6.219H42Z" transform="translate(4.589 0.437)" fill="#67dbff"/>
</svg>
