<svg xmlns="http://www.w3.org/2000/svg" xmlns:xlink="http://www.w3.org/1999/xlink" width="94" height="94" viewBox="0 0 94 94">
  <defs>
    <linearGradient id="linear-gradient" x1="0.5" x2="0.5" y2="1" gradientUnits="objectBoundingBox">
      <stop offset="0" stop-color="#026888"/>
      <stop offset="1" stop-color="#440370"/>
    </linearGradient>
  </defs>
  <g id="Group_37861" data-name="Group 37861" transform="translate(-353 -4829)">
    <g id="Ellipse_17" data-name="Ellipse 17" transform="translate(353 4829)" stroke="#67dbff" stroke-width="0.6" fill="url(#linear-gradient)">
      <circle cx="47" cy="47" r="47" stroke="none"/>
      <circle cx="47" cy="47" r="46.7" fill="none"/>
    </g>
    <g id="Group_37869" data-name="Group 37869" transform="translate(368 4844)">
      <g id="Layer_x0020_1" transform="translate(8.075 8.075)">
        <path id="Path_51382" data-name="Path 51382" d="M5.448,7.5a.757.757,0,1,0-1.343.7L6.132,12.09a.757.757,0,0,0,1.021.321c.718-.374,8.372-8.322,9.626-9.577a.757.757,0,1,0-1.071-1.071L7,10.475,5.448,7.5Z" transform="translate(25.947 4.975)" fill="#fff"/>
        <path id="Path_51383" data-name="Path 51383" d="M22.891,44.669a21.912,21.912,0,0,0,2.345-.127q.976-.105,1.912-.291l-1.073-1.074a1.291,1.291,0,0,1-.19-.241q-.4.06-.809.1a20.41,20.41,0,0,1-2.186.116A20.264,20.264,0,0,1,2.626,22.891q0-.875.072-1.723.046-.546.12-1.078H1.293q-.062.476-.1.954-.078.917-.078,1.847A21.779,21.779,0,0,0,22.891,44.669ZM19.9,2.845q.4-.06.808-.1a20.75,20.75,0,0,1,4.437.007q.436.048.864.114.3-.355.634-.685t.664-.615q-.988-.2-2-.316a21.742,21.742,0,0,0-4.763-.007q-.976.105-1.912.291L19.707,2.6a1.313,1.313,0,0,1,.19.241ZM42.919,19.775q.066.428.114.864a20.489,20.489,0,0,1,.122,2.252q0,.874-.072,1.723-.046.546-.12,1.078h1.526q.062-.476.1-.954.078-.917.078-1.847a22,22,0,0,0-.134-2.417q-.111-1.007-.316-2-.3.343-.615.664t-.685.634Z" transform="translate(1.336 1.336)" fill="#fff"/>
        <path id="Path_51384" data-name="Path 51384" d="M1.788,7.909A33.588,33.588,0,0,1,8.8,5.39a34.786,34.786,0,0,1,13.66-.5A34.14,34.14,0,0,1,27.42,6.085L26.212,7.293a32.725,32.725,0,0,0-4-.909,33.539,33.539,0,0,0-13.068.473,32.078,32.078,0,0,0-6.284,2.21l-.024-.024Q2.292,8.5,1.788,7.909Z" transform="translate(7.058 29.512)" fill="#fff"/>
        <path id="Path_51385" data-name="Path 51385" d="M1.289,8.475A37.9,37.9,0,0,1,10.2,4.638,39.8,39.8,0,0,1,26.775,3.526a11.94,11.94,0,0,0,6.849,2.147A12.089,12.089,0,0,0,34.9,5.606a37.573,37.573,0,0,1,6.379,3.105H38.2A36.658,36.658,0,0,0,31.34,6.029a38.3,38.3,0,0,0-20.726.064,36.342,36.342,0,0,0-9.057,3.982q-.165-.789-.268-1.6Z" transform="translate(2.834 18.317)" fill="#fff"/>
        <path id="Path_51386" data-name="Path 51386" d="M4.347,2.268q1.006-.147,2.024-.249Q8.593,1.8,10.828,1.8q.225,0,.778.01l.159,0a11.934,11.934,0,0,0-.3,1.5l-.642,0q-2.2,0-4.309.211-2.044.2-4.018.592L4.347,2.268Z" transform="translate(13.094 7.122)" fill="#fff"/>
        <path id="Path_51387" data-name="Path 51387" d="M12.1,44.669a4.88,4.88,0,0,0,2.151-.514,6.478,6.478,0,0,0,1.225-.787l-.192-.192a1.307,1.307,0,0,1-.3-1.389A5.466,5.466,0,0,1,13.591,42.8a3.394,3.394,0,0,1-1.494.36c-2.14,0-4.137-2.177-5.635-5.7A38.42,38.42,0,0,1,3.9,22.891,43.7,43.7,0,0,1,5.078,12.552a21.473,21.473,0,0,1,3.13-7.395L4.7,8.669a30.809,30.809,0,0,0-1.085,3.521,45.21,45.21,0,0,0-1.223,10.7,39.941,39.941,0,0,0,2.684,15.16c1.741,4.089,4.221,6.618,7.025,6.618ZM9.208,4A5.468,5.468,0,0,1,10.6,2.986a3.289,3.289,0,0,1,2.969-.011,5,5,0,0,1,1.025.67,12.072,12.072,0,0,1,.958-1.166,6.529,6.529,0,0,0-1.333-.865,4.754,4.754,0,0,0-4.277.011,6.478,6.478,0,0,0-1.225.787l.192.192A1.3,1.3,0,0,1,9.208,4Zm11.078,17.96c.006.312.006.623.006.935a43.7,43.7,0,0,1-1.176,10.339,21.473,21.473,0,0,1-3.13,7.395L19.5,37.112a30.8,30.8,0,0,0,1.085-3.522,45.21,45.21,0,0,0,1.223-10.7c0-.056,0-.262-.007-.5a11.907,11.907,0,0,1-1.513-.431Z" transform="translate(12.13 1.336)" fill="#fff"/>
        <path id="Path_51388" data-name="Path 51388" d="M.853,10.747V21.075a1.2,1.2,0,0,0,1.2,1.2H12.384a1.2,1.2,0,0,0,.695-.224.9.9,0,0,0,.248-1.38l-2.732-2.732,11.3-11.3s.054-.061.059-.066A1.3,1.3,0,0,0,21.9,4.793L18.341,1.236a1.31,1.31,0,0,0-1.851,0l-11.3,11.3L2.444,9.791c-.633-.633-1.591.158-1.591.956ZM2.367,20.764V11.856L4.652,14.14a.758.758,0,0,0,1.073,0L17.416,2.452,20.68,5.716,8.992,17.4a.758.758,0,0,0,0,1.073h0l2.287,2.287H2.367Z" transform="translate(-0.853 -0.853)" fill="#fff"/>
        <path id="Path_51389" data-name="Path 51389" d="M25.134,15.24V4.912a1.2,1.2,0,0,0-1.2-1.2H13.6a1.2,1.2,0,0,0-.695.224.9.9,0,0,0-.248,1.38l2.732,2.732-11.3,11.3h0a1.305,1.305,0,0,0-.383.925h0a1.3,1.3,0,0,0,.38.922l3.555,3.558a1.31,1.31,0,0,0,1.851,0l11.3-11.3L23.543,16.2a.757.757,0,0,0,.859.149,1.211,1.211,0,0,0,.732-1.105ZM23.62,5.224v8.908l-2.284-2.284a.758.758,0,0,0-1.073,0L8.572,23.536,5.308,20.272,17,8.581A.757.757,0,0,0,17,7.51h0L14.712,5.224H23.62Z" transform="translate(23.318 23.318)" fill="#fff"/>
        <path id="Path_51390" data-name="Path 51390" d="M15.433,24.843A12,12,0,1,0,6.952,21.33,11.957,11.957,0,0,0,15.433,24.843Zm7.411-4.584a10.481,10.481,0,1,1,3.07-7.411A10.448,10.448,0,0,1,22.844,20.259Z" transform="translate(21.025 -0.853)" fill="#fff"/>
      </g>
      <path id="Path_51391" data-name="Path 51391" d="M0,0H64.607V64.607H0Z" fill="none" fill-rule="evenodd"/>
    </g>
  </g>
</svg>
