<svg xmlns="http://www.w3.org/2000/svg" xmlns:xlink="http://www.w3.org/1999/xlink" width="94" height="94" viewBox="0 0 94 94">
  <defs>
    <linearGradient id="linear-gradient" x1="0.5" x2="0.5" y2="1" gradientUnits="objectBoundingBox">
      <stop offset="0" stop-color="#026888"/>
      <stop offset="1" stop-color="#440370"/>
    </linearGradient>
  </defs>
  <g id="Group_37861" data-name="Group 37861" transform="translate(-353 -4829)">
    <g id="Ellipse_17" data-name="Ellipse 17" transform="translate(353 4829)" stroke="#67dbff" stroke-width="0.6" fill="url(#linear-gradient)">
      <circle cx="47" cy="47" r="47" stroke="none"/>
      <circle cx="47" cy="47" r="46.7" fill="none"/>
    </g>
    <g id="Group_37867" data-name="Group 37867" transform="translate(376.164 4852.164)">
      <path id="Path_51376" data-name="Path 51376" d="M18.051,30.1A12.051,12.051,0,1,1,30.1,18.051,12.063,12.063,0,0,1,18.051,30.1Zm0-22.093A10.042,10.042,0,1,0,28.093,18.051,10.054,10.054,0,0,0,18.051,8.008Z" transform="translate(6.051 6.051)" fill="#fff"/>
      <path id="Path_51377" data-name="Path 51377" d="M1.546,30.126a1,1,0,0,1-.978-.783A23.824,23.824,0,0,1,0,24.1,24.128,24.128,0,0,1,24.1,0,23.884,23.884,0,0,1,43.2,9.432,1,1,0,1,1,41.6,10.653,21.892,21.892,0,0,0,24.1,2.008,22.119,22.119,0,0,0,2.008,24.1a21.88,21.88,0,0,0,.518,4.8,1,1,0,0,1-.759,1.2,1.048,1.048,0,0,1-.221.024Z" fill="#fff"/>
      <path id="Path_51378" data-name="Path 51378" d="M21.691,39.126A23.884,23.884,0,0,1,2.6,29.695a1,1,0,1,1,1.595-1.221,21.892,21.892,0,0,0,17.5,8.644A22.119,22.119,0,0,0,43.784,15.025a20.721,20.721,0,0,0-.534-4.788A1,1,0,1,1,45.2,9.773a22.835,22.835,0,0,1,.588,5.252,24.128,24.128,0,0,1-24.1,24.1Z" transform="translate(2.41 9.076)" fill="#fff"/>
      <path id="Path_51379" data-name="Path 51379" d="M3.1,30.051a1,1,0,0,1-1-.994L2,19.014A1.008,1.008,0,0,1,3,18H13.046a1,1,0,0,1,0,2.008H4.018l.09,9.028a1,1,0,0,1-.994,1.014H3.1Z" transform="translate(2.017 18.152)" fill="#fff"/>
      <path id="Path_51380" data-name="Path 51380" d="M27.046,12.051H17a1,1,0,1,1,0-2.008h9.038V1a1,1,0,1,1,2.008,0V11.046A1,1,0,0,1,27.046,12.051Z" transform="translate(16.135)" fill="#fff"/>
      <path id="Path_51381" data-name="Path 51381" d="M13.269,19.289A1.015,1.015,0,0,1,12.558,19L9.043,15.481a1,1,0,0,1,1.42-1.42l2.752,2.752,5.82-6.716a1.005,1.005,0,1,1,1.518,1.318l-6.527,7.532a1.01,1.01,0,0,1-.723.345A.184.184,0,0,0,13.269,19.289Z" transform="translate(8.823 9.833)" fill="#fff"/>
    </g>
  </g>
</svg>
