<svg xmlns="http://www.w3.org/2000/svg" width="62.456" height="75.419" viewBox="0 0 62.456 75.419">
  <g id="Group_37882" data-name="Group 37882" transform="translate(-10.999 0.003)">
    <path id="Path_51398" data-name="Path 51398" d="M30.178,72.357h1.178a1.178,1.178,0,1,0,0-2.357H30.178a1.178,1.178,0,1,0,0,2.357Z" transform="translate(-7.395 -28.757)" fill="#67dbff"/>
    <path id="Path_51399" data-name="Path 51399" d="M40.178,72.357h1.178a1.178,1.178,0,1,0,0-2.357H40.178a1.178,1.178,0,1,0,0,2.357Z" transform="translate(-11.503 -28.757)" fill="#67dbff"/>
    <ellipse id="Ellipse_47" data-name="Ellipse 47" cx="0.904" cy="1.356" rx="0.904" ry="1.356" transform="translate(51.27 41.322)" fill="#67dbff"/>
    <circle id="Ellipse_48" data-name="Ellipse 48" cx="1.356" cy="1.356" r="1.356" transform="translate(55.791 41.322)" fill="#67dbff"/>
    <circle id="Ellipse_49" data-name="Ellipse 49" cx="1.356" cy="1.356" r="1.356" transform="translate(60.313 41.322)" fill="#67dbff"/>
    <path id="Path_51400" data-name="Path 51400" d="M40.178,104.784h2.357a4.719,4.719,0,0,0,4.714-4.714V97.714A4.719,4.719,0,0,0,42.535,93H40.178A1.178,1.178,0,0,0,39,94.178v9.427a1.178,1.178,0,0,0,1.178,1.178Zm1.178-9.427h1.178a2.359,2.359,0,0,1,2.357,2.357v2.357a2.359,2.359,0,0,1-2.357,2.357H41.357Z" transform="translate(-11.503 -38.206)" fill="#67dbff"/>
    <path id="Path_51401" data-name="Path 51401" d="M80.107,102.427H78.142c-.479,0-.785-.258-.785-.393a1.178,1.178,0,1,0-2.357,0,2.969,2.969,0,0,0,3.142,2.75h1.964a2.969,2.969,0,0,0,3.142-2.75v-1.571a2.969,2.969,0,0,0-3.142-2.75H78.142c-.479,0-.785-.258-.785-.393V95.75c0-.135.306-.393.785-.393h1.964c.479,0,.785.258.785.393a1.178,1.178,0,0,0,2.357,0A2.969,2.969,0,0,0,80.107,93H78.142A2.969,2.969,0,0,0,75,95.75v1.571a2.969,2.969,0,0,0,3.142,2.75h1.964c.479,0,.785.258.785.393v1.571C80.892,102.17,80.586,102.427,80.107,102.427Z" transform="translate(-26.292 -38.206)" fill="#67dbff"/>
    <path id="Path_51402" data-name="Path 51402" d="M58.178,104.784a1.178,1.178,0,0,0,1.178-1.178V98.287l3.714,5.943a1.218,1.218,0,0,0,1.325.509,1.178,1.178,0,0,0,.853-1.133V94.178a1.178,1.178,0,0,0-2.357,0V99.5l-3.714-5.943A1.178,1.178,0,0,0,57,94.178v9.427a1.178,1.178,0,0,0,1.178,1.178Z" transform="translate(-18.897 -38.206)" fill="#67dbff"/>
    <path id="Path_51403" data-name="Path 51403" d="M69.33,0a4.123,4.123,0,0,0-1.178,8.075V28.28a1.27,1.27,0,0,1-1.343,1.178H65.131a22.972,22.972,0,0,0-45.808,0H17.645A1.27,1.27,0,0,1,16.3,28.28V8.074a4.124,4.124,0,1,0-2.357,0V28.28a3.624,3.624,0,0,0,3.7,3.535h1.623a23.611,23.611,0,0,0,.175,2.357h3.687a4.776,4.776,0,0,1-1.456-2.357h9.957c.018,1.623.11,3.2.271,4.714H19.249a3.539,3.539,0,0,0-3.535,3.535V71.881a3.539,3.539,0,0,0,3.535,3.535H65.206a3.539,3.539,0,0,0,3.535-3.535V40.064a3.539,3.539,0,0,0-3.535-3.535H52.553c.16-1.515.252-3.09.271-4.714H62.78a4.776,4.776,0,0,1-1.456,2.357h3.687a23.609,23.609,0,0,0,.175-2.357h1.623a3.624,3.624,0,0,0,3.7-3.535V8.074A4.123,4.123,0,0,0,69.33,0ZM13.357,4.123a1.768,1.768,0,1,1,1.768,1.768,1.768,1.768,0,0,1-1.768-1.768Zm48.78,21.736a24.76,24.76,0,0,0-10.254-4.288,24.759,24.759,0,0,0-4.288-10.253A20.7,20.7,0,0,1,62.136,25.859Zm-18.731-15c2.326.97,4.639,4.719,5.958,10.268a48.857,48.857,0,0,0-5.958-.491Zm0,12.135a45.361,45.361,0,0,1,6.455.6,45.014,45.014,0,0,1,.581,5.866H43.406Zm0,8.824h7.06c-.019,1.646-.117,3.221-.284,4.714H43.406ZM41.049,10.857v9.777a48.856,48.856,0,0,0-5.958.491C36.409,15.576,38.723,11.828,41.049,10.857Zm-7.036,18.6a45.011,45.011,0,0,1,.581-5.866,45.359,45.359,0,0,1,6.455-.6v6.467Zm7.036,2.357v4.714H34.272c-.167-1.493-.264-3.068-.284-4.714Zm-4.189-20.5a24.76,24.76,0,0,0-4.288,10.254,24.76,24.76,0,0,0-10.254,4.288A20.7,20.7,0,0,1,36.86,11.317ZM31.655,29.459H22.163c1.312-2.121,4.883-4.162,9.963-5.369a48.534,48.534,0,0,0-.472,5.369Zm34.73,42.422a1.18,1.18,0,0,1-1.178,1.178H19.249a1.18,1.18,0,0,1-1.178-1.178V48.313H66.384Zm-1.178-33a1.18,1.18,0,0,1,1.178,1.178v5.892H18.07V40.064a1.18,1.18,0,0,1,1.178-1.178ZM52.8,29.459a48.541,48.541,0,0,0-.472-5.369c5.08,1.207,8.65,3.248,9.963,5.369ZM69.33,5.891A1.768,1.768,0,1,1,71.1,4.123,1.768,1.768,0,0,1,69.33,5.891Z" transform="translate(0 0)" fill="#67dbff"/>
  </g>
</svg>
