<svg xmlns="http://www.w3.org/2000/svg" width="76.498" height="73.948" viewBox="0 0 76.498 73.948">
  <g id="website_domain_name_magnifier_magnifying_glass_loupe" transform="translate(-1 -2)">
    <g id="Group_37503" data-name="Group 37503" transform="translate(1 2)">
      <g id="monitoring_4_">
        <ellipse id="Ellipse_22" data-name="Ellipse 22" cx="1.5" cy="1" rx="1.5" ry="1" transform="translate(15.249 5.474)" fill="#67dbff"/>
        <ellipse id="Ellipse_23" data-name="Ellipse 23" cx="1.5" cy="1" rx="1.5" ry="1" transform="translate(10.249 5.474)" fill="#67dbff"/>
        <circle id="Ellipse_24" data-name="Ellipse 24" cx="1" cy="1" r="1" transform="translate(5.249 5.474)" fill="#67dbff"/>
        <path id="Path_50963" data-name="Path 50963" d="M74.173,8.55H2.775a1.275,1.275,0,1,1,0-2.55h71.4a1.275,1.275,0,1,1,0,2.55Z" transform="translate(-0.225 4.2)" fill="#67dbff"/>
        <path id="Path_50964" data-name="Path 50964" d="M30.324,68.3H4.825A3.83,3.83,0,0,1,1,64.473V5.825A3.83,3.83,0,0,1,4.825,2H73.673A3.83,3.83,0,0,1,77.5,5.825V58.1a1.275,1.275,0,0,1-2.55,0V5.825A1.277,1.277,0,0,0,73.673,4.55H4.825A1.277,1.277,0,0,0,3.55,5.825V64.473a1.277,1.277,0,0,0,1.275,1.275h25.5a1.275,1.275,0,1,1,0,2.55Z" transform="translate(-1 -2)" fill="#67dbff"/>
      </g>
    </g>
    <g id="Group_37514" data-name="Group 37514" transform="translate(8.65 17.3)">
      <g id="Group_37508" data-name="Group 37508" transform="translate(10.2)">
        <g id="Group_37507" data-name="Group 37507">
          <circle id="Ellipse_25" data-name="Ellipse 25" cx="1.275" cy="1.275" r="1.275" transform="translate(36.974 31.874)" fill="#67dbff"/>
          <g id="Group_37504" data-name="Group 37504" transform="translate(16.706 35.847)">
            <path id="Path_50965" data-name="Path 50965" d="M22.07,28.285a17.734,17.734,0,0,1-6.724-1.311,1.274,1.274,0,1,1,.961-2.359,15.565,15.565,0,0,0,15.368-2.272,1.275,1.275,0,0,1,1.6,1.981,17.893,17.893,0,0,1-11.209,3.96Z" transform="translate(-14.551 -22.058)" fill="#67dbff"/>
          </g>
          <g id="Group_37506" data-name="Group 37506">
            <path id="Path_50966" data-name="Path 50966" d="M32.224,56.449A24.224,24.224,0,1,1,56.449,32.224,24.253,24.253,0,0,1,32.224,56.449Zm0-45.9A21.674,21.674,0,1,0,53.9,32.224,21.7,21.7,0,0,0,32.224,10.55Z" transform="translate(-8 -8)" fill="#67dbff"/>
            <g id="Group_37505" data-name="Group 37505" transform="translate(40.451 40.449)">
              <path id="Path_50967" data-name="Path 50967" d="M27.881,27.882a3.784,3.784,0,0,1,1.066-.737l-2.907-2.909a1.276,1.276,0,0,0-1.8,1.805l2.907,2.907a3.93,3.93,0,0,1,.737-1.066Z" transform="translate(-23.864 -23.863)" fill="#67dbff"/>
              <path id="Path_50968" data-name="Path 50968" d="M29.6,27.05a2.543,2.543,0,0,1,1.8.747l6.375,6.375a2.55,2.55,0,1,1-3.606,3.606L27.8,31.4a2.55,2.55,0,0,1,1.8-4.353Zm0-2.55a5.1,5.1,0,0,0-3.606,8.705l6.375,6.375a5.1,5.1,0,1,0,7.211-7.211l-6.375-6.375A5.065,5.065,0,0,0,29.6,24.5Z" transform="translate(-22.878 -22.875)" fill="#67dbff"/>
            </g>
          </g>
        </g>
      </g>
      <ellipse id="Ellipse_26" data-name="Ellipse 26" cx="1" cy="1.5" rx="1" ry="1.5" transform="translate(15.599 25.174)" fill="#67dbff"/>
      <g id="Group_37509" data-name="Group 37509" transform="translate(0 35.699)">
        <path id="Path_50969" data-name="Path 50969" d="M10.375,29.65h-5.1A1.275,1.275,0,0,1,4,28.375v-5.1A1.275,1.275,0,0,1,5.275,22h5.1a1.275,1.275,0,0,1,1.275,1.275v5.1A1.275,1.275,0,0,1,10.375,29.65ZM6.55,27.1H9.1V24.55H6.55Z" transform="translate(-4 -22)" fill="#67dbff"/>
      </g>
      <g id="Group_37510" data-name="Group 37510" transform="translate(0 20.399)">
        <path id="Path_50970" data-name="Path 50970" d="M10.375,23.65h-5.1A1.275,1.275,0,0,1,4,22.375v-5.1A1.275,1.275,0,0,1,5.275,16h5.1a1.275,1.275,0,0,1,1.275,1.275v5.1A1.275,1.275,0,0,1,10.375,23.65ZM6.55,21.1H9.1V18.55H6.55Z" transform="translate(-4 -16)" fill="#67dbff"/>
      </g>
      <g id="Group_37511" data-name="Group 37511" transform="translate(0 5.1)">
        <path id="Path_50971" data-name="Path 50971" d="M10.375,17.65h-5.1A1.275,1.275,0,0,1,4,16.375v-5.1A1.275,1.275,0,0,1,5.275,10h5.1a1.275,1.275,0,0,1,1.275,1.275v5.1A1.275,1.275,0,0,1,10.375,17.65ZM6.55,15.1H9.1V12.55H6.55Z" transform="translate(-4 -10)" fill="#67dbff"/>
      </g>
      <path id="Path_50972" data-name="Path 50972" d="M16.5,25.985c-2.813,0-5.1-2.575-5.1-5.737s2.287-5.737,5.1-5.737a4.681,4.681,0,0,1,2.616.808,1.275,1.275,0,0,1-1.423,2.116A2.109,2.109,0,0,0,16.5,17.06c-1.405,0-2.55,1.431-2.55,3.187s1.145,3.187,2.55,3.187a2.14,2.14,0,0,0,1.334-.479A1.275,1.275,0,1,1,19.4,24.967a4.688,4.688,0,0,1-2.9,1.017Z" transform="translate(7.468 2.09)" fill="#67dbff"/>
      <path id="Path_50973" data-name="Path 50973" d="M20.4,25.977c-2.813,0-5.1-2.575-5.1-5.737S17.587,14.5,20.4,14.5s5.1,2.575,5.1,5.737S23.212,25.977,20.4,25.977Zm0-8.925c-1.405,0-2.55,1.431-2.55,3.187s1.145,3.187,2.55,3.187S22.95,22,22.95,20.239,21.8,17.052,20.4,17.052Z" transform="translate(13.514 2.078)" fill="#67dbff"/>
      <g id="Group_37512" data-name="Group 37512" transform="translate(45.899 16.574)">
        <path id="Path_50974" data-name="Path 50974" d="M28.375,25.975A1.275,1.275,0,0,1,27.1,24.7V18.325a1.275,1.275,0,0,0-2.55,0v5.1a1.275,1.275,0,0,1-2.55,0v-5.1a3.825,3.825,0,0,1,7.65,0V24.7A1.275,1.275,0,0,1,28.375,25.975Z" transform="translate(-22 -14.5)" fill="#67dbff"/>
      </g>
      <g id="Group_37513" data-name="Group 37513" transform="translate(40.799 16.574)">
        <path id="Path_50975" data-name="Path 50975" d="M26.375,25.975A1.275,1.275,0,0,1,25.1,24.7V18.325a1.275,1.275,0,0,0-2.55,0V24.7a1.275,1.275,0,1,1-2.55,0V15.775a1.277,1.277,0,0,1,2.178-.9,3.826,3.826,0,0,1,5.472,3.453V24.7A1.275,1.275,0,0,1,26.375,25.975Z" transform="translate(-20 -14.5)" fill="#67dbff"/>
      </g>
    </g>
  </g>
</svg>
