<svg xmlns="http://www.w3.org/2000/svg" xmlns:xlink="http://www.w3.org/1999/xlink" width="94" height="94" viewBox="0 0 94 94">
  <defs>
    <linearGradient id="linear-gradient" x1="0.5" x2="0.5" y2="1" gradientUnits="objectBoundingBox">
      <stop offset="0" stop-color="#026888"/>
      <stop offset="1" stop-color="#440370"/>
    </linearGradient>
  </defs>
  <g id="Group_37861" data-name="Group 37861" transform="translate(-353 -4829)">
    <g id="Ellipse_17" data-name="Ellipse 17" transform="translate(353 4829)" stroke="#67dbff" stroke-width="0.6" fill="url(#linear-gradient)">
      <circle cx="47" cy="47" r="47" stroke="none"/>
      <circle cx="47" cy="47" r="46.7" fill="none"/>
    </g>
    <g id="Group_37865" data-name="Group 37865" transform="translate(370 4846)">
      <path id="Path_51375" data-name="Path 51375" d="M60,16.762A16.587,16.587,0,0,0,56.377,6.354.879.879,0,0,0,55,7.446,14.952,14.952,0,0,1,57.337,11.6a59.358,59.358,0,0,0-7.686-1.064A27.068,27.068,0,0,0,48.3,5.221a13.118,13.118,0,0,0-1.576-3.05A15.012,15.012,0,0,1,52.74,5.15a.879.879,0,1,0,1.114-1.36,16.768,16.768,0,0,0-25.9,6.076L25.639,8.213a1.322,1.322,0,0,0-2.09,1.076v2.169h-4.14a3.528,3.528,0,0,0-3.524,3.524v1.261a2.652,2.652,0,0,0-1.768,2.5V22a2.652,2.652,0,0,0,1.768,2.5v2A16.783,16.783,0,0,0,0,43.238,16.609,16.609,0,0,0,3.44,53.41a.879.879,0,1,0,1.4-1.068A14.958,14.958,0,0,1,2.665,48.4a59.381,59.381,0,0,0,7.684,1.064A27.072,27.072,0,0,0,11.7,54.78a13.12,13.12,0,0,0,1.577,3.051,15,15,0,0,1-6.226-3.158.879.879,0,0,0-1.139,1.339A16.762,16.762,0,1,0,17.642,26.5v-2A2.652,2.652,0,0,0,19.411,22V18.74a2.652,2.652,0,0,0-1.768-2.5V14.981a1.768,1.768,0,0,1,1.766-1.766h4.14v2.23a1.321,1.321,0,0,0,2.09,1.076l.858-.613q-.021.426-.022.854A16.811,16.811,0,0,0,31.9,29.1a.879.879,0,1,0,1.19-1.294,15.038,15.038,0,0,1-3.932-5.885,59.38,59.38,0,0,0,7.671,1.061A27.068,27.068,0,0,0,38.173,28.3a13.114,13.114,0,0,0,1.578,3.053,14.933,14.933,0,0,1-4.073-1.632.879.879,0,1,0-.887,1.518A16.765,16.765,0,0,0,60,16.762ZM31.767,43.238a15.006,15.006,0,0,1-.351,3.233,54.17,54.17,0,0,1-8.007,1.21,41.894,41.894,0,0,0,.232-4.443,41.9,41.9,0,0,0-.232-4.443A54.171,54.171,0,0,1,31.416,40,15,15,0,0,1,31.767,43.238Zm-9.883,0a39.985,39.985,0,0,1-.256,4.569c-1.577.093-3.206.14-4.866.14s-3.289-.048-4.865-.14a40.929,40.929,0,0,1,0-9.138c1.577-.093,3.206-.14,4.865-.14s3.289.048,4.866.14A39.989,39.989,0,0,1,21.884,43.238Zm-5.121-6.467c-1.569,0-3.113.042-4.614.124a24.763,24.763,0,0,1,1.193-4.577c.966-2.557,2.245-4.084,3.42-4.084s2.455,1.527,3.421,4.084a24.763,24.763,0,0,1,1.193,4.577C19.875,36.812,18.331,36.771,16.762,36.771Zm-3.486-8.129A13.11,13.11,0,0,0,11.7,31.7a27.052,27.052,0,0,0-1.348,5.317,59.4,59.4,0,0,0-7.676,1.062,15.066,15.066,0,0,1,10.6-9.433ZM2.1,46.469a15.164,15.164,0,0,1,0-6.465,54.175,54.175,0,0,1,8.007-1.21,42.656,42.656,0,0,0,0,8.886A54.15,54.15,0,0,1,2.1,46.469Zm11.238,7.689a24.762,24.762,0,0,1-1.193-4.577c1.5.082,3.045.124,4.614.124s3.113-.042,4.614-.124a24.763,24.763,0,0,1-1.193,4.577c-.966,2.557-2.245,4.084-3.421,4.084s-2.455-1.527-3.421-4.084Zm6.907,3.675a13.116,13.116,0,0,0,1.579-3.054,27.056,27.056,0,0,0,1.348-5.317A59.421,59.421,0,0,0,30.852,48.4a15.066,15.066,0,0,1-10.6,9.433Zm10.6-19.758a59.378,59.378,0,0,0-7.676-1.062A27.069,27.069,0,0,0,21.828,31.7a13.115,13.115,0,0,0-1.579-3.054A15.066,15.066,0,0,1,30.852,38.075ZM17.653,22a.89.89,0,0,1-1.779,0V18.74a.89.89,0,0,1,1.779,0ZM57.9,13.531A15.19,15.19,0,0,1,57.891,20a54.168,54.168,0,0,1-8.007,1.21,42.656,42.656,0,0,0,0-8.886A54.154,54.154,0,0,1,57.9,13.531ZM38.116,16.762a40,40,0,0,1,.256-4.569c1.576-.093,3.2-.14,4.865-.14s3.289.048,4.866.14a40.927,40.927,0,0,1,0,9.138c-1.577.093-3.206.14-4.866.14s-3.289-.048-4.865-.14a39.984,39.984,0,0,1-.256-4.569ZM46.658,5.842a24.76,24.76,0,0,1,1.193,4.577c-1.5-.082-3.046-.124-4.614-.124s-3.114.041-4.614.123a24.761,24.761,0,0,1,1.193-4.577c.966-2.557,2.245-4.084,3.421-4.084S45.692,3.285,46.658,5.842ZM39.744,2.177a13.135,13.135,0,0,0-1.572,3.044,27.061,27.061,0,0,0-1.348,5.316,61.764,61.764,0,0,0-6.731.873,1.321,1.321,0,0,0-.143-.119l-.534-.381A15.127,15.127,0,0,1,39.744,2.177ZM25.306,14.6V10.135l3.126,2.232ZM28.588,20a14.93,14.93,0,0,1-.355-3.234,15.2,15.2,0,0,1,.161-2.208l1.556-1.111a1.32,1.32,0,0,0,.279-.269,58.85,58.85,0,0,1,6.361-.855,42.661,42.661,0,0,0,0,8.887A54.193,54.193,0,0,1,28.588,20Zm11.229,7.687a24.76,24.76,0,0,1-1.193-4.577c1.5.082,3.045.124,4.614.124s3.113-.042,4.614-.124a24.76,24.76,0,0,1-1.193,4.577c-.966,2.557-2.245,4.084-3.421,4.084s-2.455-1.527-3.421-4.084Zm6.907,3.675A13.111,13.111,0,0,0,48.3,28.3a27.052,27.052,0,0,0,1.348-5.317,59.375,59.375,0,0,0,7.676-1.062A15.067,15.067,0,0,1,46.724,31.358Z" fill="#fff"/>
    </g>
  </g>
</svg>
