<svg xmlns="http://www.w3.org/2000/svg" width="88.81" height="75.077" viewBox="0 0 88.81 75.077">
  <path id="Path_51419" data-name="Path 51419" d="M10.258,50.742A3.743,3.743,0,1,0,6.517,47,3.749,3.749,0,0,0,10.258,50.742Zm0-4.718A.974.974,0,1,1,9.287,47,.976.976,0,0,1,10.258,46.025Zm10.5,4.718A3.743,3.743,0,1,0,17.012,47,3.749,3.749,0,0,0,20.758,50.742Zm0-4.718a.974.974,0,1,1-.977.972A.976.976,0,0,1,20.758,46.025Zm10.5,4.718A3.743,3.743,0,1,0,27.514,47,3.749,3.749,0,0,0,31.255,50.742Zm0-4.718a.974.974,0,1,1-.972.972A.976.976,0,0,1,31.255,46.025ZM39.743,47a1.383,1.383,0,0,1,1.384-1.384H65.751a1.384,1.384,0,0,1,0,2.767H41.126A1.384,1.384,0,0,1,39.743,47Zm34.32,35.932V44.989a5.749,5.749,0,0,0-5.744-5.739H5.329A5.747,5.747,0,0,0-.41,44.989V98.6a5.747,5.747,0,0,0,5.739,5.739h52.7a15.727,15.727,0,1,0,16.03-21.407ZM5.329,42.019H68.318a2.976,2.976,0,0,1,2.975,2.97v6.991H2.359V44.989a2.973,2.973,0,0,1,2.97-2.97Zm0,59.547a2.973,2.973,0,0,1-2.97-2.97V54.748H71.293v28.18a15.732,15.732,0,0,0-14.062,18.638Zm67.347,9.989A12.959,12.959,0,1,1,85.633,98.6,12.974,12.974,0,0,1,72.677,111.556ZM79.6,95.389l-7.359,8.257a1.383,1.383,0,0,1-.994.462H71.2a1.383,1.383,0,0,1-.978-.405l-4.418-4.418a1.384,1.384,0,0,1,1.957-1.957l3.381,3.381,6.384-7.163A1.385,1.385,0,1,1,79.6,95.389Zm-25.519-6.4a20.334,20.334,0,0,0,.09-21.516,1.365,1.365,0,0,0-.192-.307,20.366,20.366,0,0,0-34.3,0,1.342,1.342,0,0,0-.192.307,20.333,20.333,0,0,0,.01,21.388,1.337,1.337,0,0,0,.163.26,20.366,20.366,0,0,0,34.392-.08c.012-.017.023-.035.033-.052ZM19.272,79.545h5.464a32.329,32.329,0,0,0,1.11,7.334H21.531a17.467,17.467,0,0,1-2.258-7.334Zm2.262-10.109h4.314a32.36,32.36,0,0,0-1.112,7.34H19.272A17.469,17.469,0,0,1,21.534,69.436Zm32.846,7.34H48.916a32.374,32.374,0,0,0-1.112-7.34h4.314A17.469,17.469,0,0,1,54.38,76.775Zm-8.233,0H38.21v-7.34h6.7A29.077,29.077,0,0,1,46.147,76.775ZM38.21,66.667V60.752c2.213.649,4.2,2.825,5.635,5.914Zm-2.767-5.914v5.914H29.807C31.243,63.577,33.229,61.4,35.442,60.752Zm0,8.683v7.34H27.505a29.077,29.077,0,0,1,1.242-7.34ZM27.505,79.545h7.937v7.334h-6.7A29.14,29.14,0,0,1,27.505,79.545Zm7.937,10.1v5.919c-2.215-.649-4.2-2.826-5.637-5.919Zm2.767,5.919V89.646h5.637C42.411,92.739,40.425,94.916,38.21,95.566Zm0-8.687V79.545h7.937a29.127,29.127,0,0,1-1.24,7.334Zm10.706-7.334H54.38a17.494,17.494,0,0,1-2.26,7.334H47.806A32.329,32.329,0,0,0,48.916,79.545Zm1.242-12.878H46.871a22.036,22.036,0,0,0-1.249-2.62,17.8,17.8,0,0,0-1.107-1.727A17.729,17.729,0,0,1,50.158,66.667ZM29.135,62.321a17.8,17.8,0,0,0-1.107,1.727,22.035,22.035,0,0,0-1.249,2.62H23.494a17.692,17.692,0,0,1,5.641-4.347ZM23.491,89.646h3.287a21.852,21.852,0,0,0,1.25,2.625A17.8,17.8,0,0,0,29.135,94,17.7,17.7,0,0,1,23.491,89.646ZM44.517,94a18.132,18.132,0,0,0,1.107-1.727,21.727,21.727,0,0,0,1.25-2.625h3.287A17.7,17.7,0,0,1,44.517,94Z" transform="translate(0.41 -39.25)" fill="#67dbff"/>
</svg>
