<svg id="Group_37881" data-name="Group 37881" xmlns="http://www.w3.org/2000/svg" width="74.995" height="74.996" viewBox="0 0 74.995 74.996">
  <path id="Path_51397" data-name="Path 51397" d="M75,20.952a20.732,20.732,0,0,0-4.529-13.01,1.1,1.1,0,0,0-1.721,1.365A18.69,18.69,0,0,1,71.667,14.5a74.194,74.194,0,0,0-9.607-1.33,33.833,33.833,0,0,0-1.685-6.646A16.4,16.4,0,0,0,58.4,2.713a18.764,18.764,0,0,1,7.516,3.724,1.1,1.1,0,1,0,1.392-1.7,20.958,20.958,0,0,0-32.371,7.594l-2.9-2.067a1.652,1.652,0,0,0-2.612,1.345v2.711H24.259a4.409,4.409,0,0,0-4.4,4.4V20.3a3.315,3.315,0,0,0-2.21,3.122V27.5a3.315,3.315,0,0,0,2.21,3.122v2.5A20.978,20.978,0,0,0,0,54.044,20.761,20.761,0,0,0,4.3,66.758a1.1,1.1,0,1,0,1.745-1.335,18.7,18.7,0,0,1-2.714-4.929,74.223,74.223,0,0,0,9.6,1.33,33.838,33.838,0,0,0,1.685,6.646,16.4,16.4,0,0,0,1.971,3.813A18.747,18.747,0,0,1,8.81,68.336,1.1,1.1,0,1,0,7.386,70.01,20.951,20.951,0,1,0,22.052,33.121v-2.5a3.315,3.315,0,0,0,2.21-3.122V23.423a3.315,3.315,0,0,0-2.21-3.122V18.726a2.21,2.21,0,0,1,2.207-2.207h5.175v2.788a1.651,1.651,0,0,0,2.612,1.345l1.073-.766q-.027.533-.027,1.067a21.012,21.012,0,0,0,6.776,15.427,1.1,1.1,0,1,0,1.487-1.617,18.8,18.8,0,0,1-4.915-7.355,74.22,74.22,0,0,0,9.588,1.326,33.834,33.834,0,0,0,1.685,6.646,16.392,16.392,0,0,0,1.973,3.816,18.665,18.665,0,0,1-5.09-2.04,1.1,1.1,0,1,0-1.109,1.9A20.955,20.955,0,0,0,75,20.952ZM39.706,54.044a18.756,18.756,0,0,1-.438,4.041A67.708,67.708,0,0,1,29.26,59.6a52.366,52.366,0,0,0,.29-5.553,52.368,52.368,0,0,0-.29-5.554A67.709,67.709,0,0,1,39.268,50,18.75,18.75,0,0,1,39.706,54.044Zm-12.353,0a49.978,49.978,0,0,1-.32,5.711c-1.971.116-4.008.175-6.082.175s-4.111-.059-6.081-.175a51.158,51.158,0,0,1,0-11.422c1.971-.116,4.008-.175,6.081-.175s4.111.059,6.082.175A49.983,49.983,0,0,1,27.353,54.044Zm-6.4-8.083c-1.961,0-3.891.052-5.767.155a30.952,30.952,0,0,1,1.492-5.721c1.207-3.2,2.806-5.1,4.275-5.1s3.068,1.908,4.275,5.1a30.952,30.952,0,0,1,1.492,5.721C24.843,46.013,22.912,45.96,20.952,45.96ZM16.594,35.8a16.387,16.387,0,0,0-1.974,3.817,33.813,33.813,0,0,0-1.685,6.646,74.24,74.24,0,0,0-9.595,1.328A18.831,18.831,0,0,1,16.594,35.8ZM2.63,58.083A18.954,18.954,0,0,1,2.636,50,67.713,67.713,0,0,1,12.643,48.49a53.316,53.316,0,0,0,0,11.107A67.684,67.684,0,0,1,2.63,58.083Zm14.046,9.611a30.95,30.95,0,0,1-1.492-5.721c1.876.1,3.807.155,5.767.155s3.891-.052,5.767-.155a30.951,30.951,0,0,1-1.492,5.721c-1.207,3.2-2.806,5.1-4.275,5.1S17.884,70.89,16.676,67.694Zm8.633,4.593a16.394,16.394,0,0,0,1.974-3.817,33.817,33.817,0,0,0,1.685-6.646A74.271,74.271,0,0,0,38.562,60.5,18.832,18.832,0,0,1,25.309,72.287Zm13.253-24.7a74.216,74.216,0,0,0-9.595-1.328,33.833,33.833,0,0,0-1.685-6.646A16.393,16.393,0,0,0,25.309,35.8,18.831,18.831,0,0,1,38.562,47.591ZM22.065,27.5a1.112,1.112,0,0,1-2.224,0V23.423a1.112,1.112,0,0,1,2.224,0Zm50.3-10.588a18.987,18.987,0,0,1-.007,8.08,67.706,67.706,0,0,1-10.008,1.513,53.316,53.316,0,0,0,0-11.107,67.688,67.688,0,0,1,10.015,1.514ZM47.643,20.952a49.991,49.991,0,0,1,.32-5.712c1.97-.116,4-.175,6.081-.175s4.111.059,6.082.175a51.157,51.157,0,0,1,0,11.422c-1.971.116-4.008.175-6.082.175s-4.111-.059-6.081-.175a49.976,49.976,0,0,1-.32-5.711ZM58.319,7.3a30.948,30.948,0,0,1,1.492,5.721c-1.876-.1-3.807-.155-5.767-.155s-3.892.052-5.767.154A30.949,30.949,0,0,1,49.768,7.3c1.208-3.2,2.806-5.1,4.275-5.1S57.112,4.105,58.319,7.3ZM49.678,2.72a16.418,16.418,0,0,0-1.965,3.8,33.824,33.824,0,0,0-1.685,6.645,77.2,77.2,0,0,0-8.413,1.091,1.651,1.651,0,0,0-.179-.148l-.667-.476A18.907,18.907,0,0,1,49.678,2.72ZM31.631,18.247V12.668l3.907,2.789Zm4.1,6.747a18.662,18.662,0,0,1-.444-4.042,19,19,0,0,1,.2-2.76L37.436,16.8a1.65,1.65,0,0,0,.348-.336A73.557,73.557,0,0,1,45.735,15.4a53.324,53.324,0,0,0,0,11.108A67.738,67.738,0,0,1,35.733,24.994ZM49.768,34.6a30.948,30.948,0,0,1-1.492-5.721c1.876.1,3.807.155,5.767.155s3.891-.052,5.767-.155A30.948,30.948,0,0,1,58.319,34.6c-1.207,3.2-2.806,5.1-4.275,5.1s-3.068-1.908-4.276-5.1ZM58.4,39.2a16.387,16.387,0,0,0,1.974-3.817,33.813,33.813,0,0,0,1.685-6.646A74.214,74.214,0,0,0,71.654,27.4,18.832,18.832,0,0,1,58.4,39.2Z" transform="translate(0 0)" fill="#67dbff"/>
</svg>
