<svg xmlns="http://www.w3.org/2000/svg" width="80.339" height="80.341" viewBox="0 0 80.339 80.341">
  <g id="Group_37883" data-name="Group 37883" transform="translate(-21.338 -21.331)">
    <path id="Path_51404" data-name="Path 51404" d="M24.989,61.507A36.518,36.518,0,0,1,84.131,32.836H78.575a1.826,1.826,0,1,0,0,3.652h10.33a1.826,1.826,0,0,0,1.826-1.826V24.332a1.826,1.826,0,1,0-3.652,0v6.184A40.176,40.176,0,0,0,33.1,89.916a1.826,1.826,0,1,0,2.582-2.582,36.285,36.285,0,0,1-10.7-25.826Z" fill="#67dbff"/>
    <path id="Path_51405" data-name="Path 51405" d="M134.571,438.594c-1.036-.5-2.062-1.065-3.047-1.666a1.826,1.826,0,1,0-1.9,3.117c1.085.663,2.214,1.279,3.355,1.833a1.826,1.826,0,0,0,1.6-3.285Z" transform="translate(-89.019 -344.223)" fill="#67dbff"/>
    <path id="Path_51406" data-name="Path 51406" d="M438.714,134.769A1.826,1.826,0,0,0,442,133.177c-.55-1.137-1.165-2.266-1.828-3.356a1.826,1.826,0,0,0-3.121,1.9C437.654,132.71,438.213,133.736,438.714,134.769Z" transform="translate(-344.321 -89.189)" fill="#67dbff"/>
    <path id="Path_51407" data-name="Path 51407" d="M256.018,467.774c-1.153.137-2.319.218-3.468.246a1.826,1.826,0,0,0,.042,3.651h.044c1.263-.029,2.544-.12,3.81-.269a1.826,1.826,0,1,0-.428-3.627Z" transform="translate(-190.172 -369.999)" fill="#67dbff"/>
    <path id="Path_51408" data-name="Path 51408" d="M193.038,462.525c-1.136-.19-2.278-.437-3.395-.736a1.827,1.827,0,1,0-.943,3.529c1.229.328,2.486.6,3.737.809a1.826,1.826,0,1,0,.6-3.6Z" transform="translate(-137.586 -364.998)" fill="#67dbff"/>
    <path id="Path_51409" data-name="Path 51409" d="M469.861,250.854a1.827,1.827,0,0,0-1.871,1.781c-.029,1.155-.113,2.321-.251,3.468a1.827,1.827,0,0,0,1.6,2.03,2.033,2.033,0,0,0,.219.013,1.827,1.827,0,0,0,1.811-1.609c.15-1.26.243-2.541.274-3.81A1.826,1.826,0,0,0,469.861,250.854Z" transform="translate(-369.965 -190.227)" fill="#67dbff"/>
    <path id="Path_51410" data-name="Path 51410" d="M423.035,371.34a1.828,1.828,0,0,0-2.537.484c-.649.955-1.351,1.89-2.088,2.779a1.826,1.826,0,1,0,2.813,2.328c.81-.977,1.583-2.006,2.3-3.056A1.826,1.826,0,0,0,423.035,371.34Z" transform="translate(-328.745 -289.824)" fill="#67dbff"/>
    <path id="Path_51411" data-name="Path 51411" d="M461.853,189.851c.3,1.112.542,2.254.732,3.4a1.827,1.827,0,0,0,1.8,1.527,1.863,1.863,0,0,0,.3-.025,1.826,1.826,0,0,0,1.5-2.1c-.208-1.255-.479-2.513-.8-3.737a1.826,1.826,0,0,0-3.529.94Z" transform="translate(-365.046 -137.765)" fill="#67dbff"/>
    <path id="Path_51412" data-name="Path 51412" d="M374.41,418.562c-.893.738-1.828,1.44-2.779,2.085a1.826,1.826,0,1,0,2.049,3.023c1.047-.709,2.075-1.48,3.058-2.292a1.827,1.827,0,0,0-2.327-2.816Z" transform="translate(-289.657 -328.876)" fill="#67dbff"/>
    <path id="Path_51413" data-name="Path 51413" d="M454.883,313.8a1.828,1.828,0,0,0-2.294,1.185c-.35,1.1-.758,2.19-1.214,3.254a1.826,1.826,0,1,0,3.356,1.439c.5-1.171.952-2.377,1.336-3.584A1.825,1.825,0,0,0,454.883,313.8Z" transform="translate(-356.29 -242.323)" fill="#67dbff"/>
    <path id="Path_51414" data-name="Path 51414" d="M318.025,451.466c-1.053.451-2.148.859-3.255,1.212a1.826,1.826,0,1,0,1.109,3.479c1.217-.388,2.423-.836,3.583-1.333a1.827,1.827,0,1,0-1.438-3.358Z" transform="translate(-242.141 -356.371)" fill="#67dbff"/>
    <path id="Path_51415" data-name="Path 51415" d="M99.106,203.634a6.2,6.2,0,0,0-5.014-6.11,7.6,7.6,0,0,0-8.568,4.029,1.826,1.826,0,1,0,3.267,1.634,3.921,3.921,0,0,1,4.462-2.108,2.649,2.649,0,0,1,2.2,2.556c0,1.9-2.2,3.374-4.529,4.929-2.623,1.75-5.594,3.734-5.594,7.019a1.826,1.826,0,0,0,1.826,1.826H97.279a1.826,1.826,0,1,0,0-3.652H90.044a23.081,23.081,0,0,1,2.908-2.156C95.837,209.674,99.106,207.491,99.106,203.634Z" transform="translate(-53.037 -145.857)" fill="#67dbff"/>
    <path id="Path_51416" data-name="Path 51416" d="M188.21,204.687a1.826,1.826,0,0,0-1.826-1.826H184.9v-9.7a1.826,1.826,0,0,0-3.251-1.143L172.4,203.545a1.827,1.827,0,0,0,1.425,2.968h7.419v5.136a1.826,1.826,0,1,0,3.652,0v-5.136h1.484A1.826,1.826,0,0,0,188.21,204.687Zm-6.962-1.826h-3.612l3.612-4.506Z" transform="translate(-124.87 -140.897)" fill="#67dbff"/>
    <path id="Path_51417" data-name="Path 51417" d="M290.792,185.367a1.823,1.823,0,0,0-2.149,1.432l-4.109,20.545a1.826,1.826,0,0,0,1.432,2.149,1.849,1.849,0,0,0,.36.036,1.826,1.826,0,0,0,1.789-1.468l4.109-20.545A1.825,1.825,0,0,0,290.792,185.367Z" transform="translate(-218.106 -135.922)" fill="#67dbff"/>
    <path id="Path_51418" data-name="Path 51418" d="M355.555,217.422a1.828,1.828,0,0,0,1.686-1.124l6.848-16.436a1.826,1.826,0,0,0-1.685-2.529h-9.245a1.826,1.826,0,1,0,0,3.652h6.506l-5.794,13.908a1.828,1.828,0,0,0,1.684,2.53Z" transform="translate(-273.499 -145.87)" fill="#67dbff"/>
  </g>
</svg>
