<svg xmlns="http://www.w3.org/2000/svg" xmlns:xlink="http://www.w3.org/1999/xlink" width="94" height="94" viewBox="0 0 94 94">
  <defs>
    <linearGradient id="linear-gradient" x1="0.5" x2="0.5" y2="1" gradientUnits="objectBoundingBox">
      <stop offset="0" stop-color="#026888"/>
      <stop offset="1" stop-color="#440370"/>
    </linearGradient>
  </defs>
  <g id="Group_37861" data-name="Group 37861" transform="translate(-353 -4829)">
    <g id="Ellipse_17" data-name="Ellipse 17" transform="translate(353 4829)" stroke="#67dbff" stroke-width="0.6" fill="url(#linear-gradient)">
      <circle cx="47" cy="47" r="47" stroke="none"/>
      <circle cx="47" cy="47" r="46.7" fill="none"/>
    </g>
    <g id="Group_37862" data-name="Group 37862" transform="translate(369.25 4845.25)">
      <path id="Path_51371" data-name="Path 51371" d="M53.246,44.068a.754.754,0,0,0,.139-.241,25.969,25.969,0,0,0,0-26.024.754.754,0,0,0-.139-.241A26.175,26.175,0,0,0,38.058,5.784a.76.76,0,0,0-.2-.06,25.929,25.929,0,0,0-14.077,0,.774.774,0,0,0-.2.057A26.172,26.172,0,0,0,8.384,17.562a.754.754,0,0,0-.139.241,25.969,25.969,0,0,0,0,26.024.754.754,0,0,0,.139.241A26.172,26.172,0,0,0,23.561,55.845a.775.775,0,0,0,.212.06,25.93,25.93,0,0,0,14.082,0,.768.768,0,0,0,.222-.063,26.175,26.175,0,0,0,15.17-11.775ZM31.585,55.321V44.342H42.1A27.71,27.71,0,0,1,37.313,54.46a24.433,24.433,0,0,1-5.729.86Zm-7.268-.861a27.693,27.693,0,0,1-4.791-10.118h10.52V55.32a24.434,24.434,0,0,1-5.729-.86ZM6.309,31.584H9.7v6.05a.77.77,0,0,0,.77.77h6.3c.2,1.506.469,2.978.792,4.4H9.431A24.355,24.355,0,0,1,6.309,31.585ZM9.432,18.826h8.126c-.323,1.421-.588,2.894-.792,4.4h-6.3A.77.77,0,0,0,9.7,24v6.049H6.309A24.355,24.355,0,0,1,9.431,18.827ZM30.045,6.309V17.287H19.525A27.71,27.71,0,0,1,24.316,7.169a24.434,24.434,0,0,1,5.729-.86Zm7.268.861A27.693,27.693,0,0,1,42.1,17.288H31.585V6.309a24.434,24.434,0,0,1,5.729.861ZM55.321,30.046h-3.39V24a.77.77,0,0,0-.77-.77h-6.3c-.2-1.506-.469-2.978-.792-4.4H52.2a24.355,24.355,0,0,1,3.122,11.218ZM52.2,42.8H44.071c.323-1.421.588-2.894.792-4.4h6.3a.77.77,0,0,0,.77-.771V31.585h3.39A24.355,24.355,0,0,1,52.2,42.8Zm-20.614,0V38.4H43.308c-.211,1.509-.484,2.982-.819,4.4Zm-20.344-5.94v-12.1H50.391v12.1Zm32.07-13.637H31.585v-4.4H42.491C42.824,20.244,43.1,21.717,43.308,23.226Zm-13.265-4.4v4.4H18.321c.211-1.509.484-2.982.819-4.4ZM18.321,38.4H30.045v4.4H19.139c-.334-1.417-.608-2.89-.818-4.4ZM39.814,53.624A32.6,32.6,0,0,0,43.7,44.342H51.26a24.657,24.657,0,0,1-11.447,9.28ZM51.26,17.287H43.7a32.626,32.626,0,0,0-3.884-9.282,24.661,24.661,0,0,1,11.446,9.282ZM21.819,8.005a32.619,32.619,0,0,0-3.884,9.282H10.371A24.658,24.658,0,0,1,21.817,8.007ZM10.371,44.342h7.562a32.6,32.6,0,0,0,3.884,9.282,24.661,24.661,0,0,1-11.446-9.282Z" fill="#fff"/>
      <path id="Path_51372" data-name="Path 51372" d="M36.83,61.272,35.3,56.625H34.016l-1.539,4.647-1.388-4.647H29.794l2.059,6.489h1.171L34.658,58.3l1.625,4.817h1.181l2.049-6.489H38.219Z" transform="translate(-14.027 -29.055)" fill="#fff"/>
      <path id="Path_51373" data-name="Path 51373" d="M59.443,63.114h1.18l2.05-6.489H61.378L59.99,61.272l-1.53-4.647H57.176l-1.54,4.647-1.388-4.647H52.954l2.059,6.489h1.171L57.818,58.3Z" transform="translate(-26.998 -29.055)" fill="#fff"/>
      <path id="Path_51374" data-name="Path 51374" d="M79.344,63.114,80.978,58.3,82.6,63.114h1.181l2.05-6.489H84.538L83.15,61.272l-1.53-4.647H80.335L78.8,61.272l-1.388-4.647H76.114l2.059,6.489Z" transform="translate(-39.97 -29.055)" fill="#fff"/>
    </g>
  </g>
</svg>
