<?xml version="1.0" encoding="UTF-8"?>
<svg version="1.1" xmlns="http://www.w3.org/2000/svg" width="32" height="32">
<path d="M0 0 C0.99 0 1.98 0 3 0 C3 1.32 3 2.64 3 4 C6.3 4.33 9.6 4.66 13 5 C13 12.92 13 20.84 13 29 C10.12981559 30.43509221 7.66456277 30.11158506 4.4609375 30.09765625 C3.15898437 30.09443359 1.85703125 30.09121094 0.515625 30.08789062 C-0.86458399 30.07953466 -2.24479232 30.07106971 -3.625 30.0625 C-5.01301926 30.05748501 -6.40104022 30.0529221 -7.7890625 30.04882812 C-11.19275132 30.03700976 -14.59635439 30.02053434 -18 30 C-18 28.02 -18 26.04 -18 24 C-9.75 24 -1.5 24 7 24 C5.89331271 20.67993813 5.05427405 19.9417403 2.4375 17.75 C1.72464844 17.14285156 1.01179688 16.53570313 0.27734375 15.91015625 C-0.47417969 15.27980469 -1.22570312 14.64945313 -2 14 C-3.50464637 12.73467132 -5.00488541 11.46407734 -6.5 10.1875 C-7.50546875 9.34251953 -7.50546875 9.34251953 -8.53125 8.48046875 C-10 7 -10 7 -10 5 C-2.25 4.875 -2.25 4.875 0 6 C0 4.02 0 2.04 0 0 Z " fill="#561C7E" transform="translate(18,0)"/>
<path d="M0 0 C6 0 6 0 8.0546875 1.50390625 C8.65539063 2.18324219 9.25609375 2.86257812 9.875 3.5625 C13.17635057 7.14319562 16.60603515 10.32896573 20.3359375 13.45703125 C22 15 22 15 24 18 C19.86776731 18.59031896 16.40774848 19.02813091 12.9140625 16.4765625 C11.70798797 15.2297766 10.53709068 13.94765931 9.41015625 12.62890625 C8.07725028 10.87882464 8.07725028 10.87882464 6 10 C6 12.64 6 15.28 6 18 C4.02 18 2.04 18 0 18 C0 12.06 0 6.12 0 0 Z " fill="#4F1279" transform="translate(0,5)"/>
<path d="M0 0 C0.99 0 1.98 0 3 0 C3 1.32 3 2.64 3 4 C6.3 4.33 9.6 4.66 13 5 C13 5.33 13 5.66 13 6 C6.25 6.125 6.25 6.125 4 5 C3.67 5.66 3.34 6.32 3 7 C2.01 6.67 1.02 6.34 0 6 C0 4.02 0 2.04 0 0 Z " fill="#774A94" transform="translate(18,0)"/>
</svg>
