<svg xmlns="http://www.w3.org/2000/svg" width="61.838" height="62.055" viewBox="0 0 61.838 62.055">
  <g id="Group_35202" data-name="Group 35202" transform="translate(-0.894)">
    <path id="Path_2440" data-name="Path 2440" d="M246.257,7.885a1.221,1.221,0,0,0,1.221-1.221V1.221a1.221,1.221,0,0,0-2.441,0V6.665A1.221,1.221,0,0,0,246.257,7.885Z" transform="translate(-214.552)" fill="#fff"/>
    <path id="Path_2441" data-name="Path 2441" d="M61.541,114.13l-2.156-2.15a4.087,4.087,0,0,0-4.837-.69l-4.063-4.059.2-.2a4.236,4.236,0,0,0,0-5.982A4.19,4.19,0,0,0,48.558,99.9a4.263,4.263,0,0,0,.168-1.188,4.227,4.227,0,0,0-3.362-4.14,4.262,4.262,0,0,0,.168-1.188,4.223,4.223,0,0,0-3.362-4.138,4.224,4.224,0,0,0-4.515-5.391L29.6,82.334c-1.228-.233-2.762-.387-3.73.5a2.2,2.2,0,0,0-.185.191A4.245,4.245,0,0,0,21.236,84,4.2,4.2,0,0,0,20,86.993a4.268,4.268,0,0,0,.168,1.188,4.228,4.228,0,0,0-3.361,4.135,4.256,4.256,0,0,0,.168,1.191,4.232,4.232,0,0,0-2.624,6.532,4.23,4.23,0,0,0-1.625,7l.2.2-4.064,4.056a4.081,4.081,0,0,0-4.617.8L2.084,114.24a4.078,4.078,0,0,0,0,5.758l2.693,2.689A1.221,1.221,0,1,0,6.5,120.961l-2.693-2.689a1.637,1.637,0,0,1,0-2.3l2.158-2.152a1.634,1.634,0,0,1,1.991-.244,1.232,1.232,0,0,0,.154.188,1.215,1.215,0,0,0,.351.244L20.835,126.36a1.2,1.2,0,0,0,.588.595,1.634,1.634,0,0,1-.068,2.229L19.2,131.336a1.64,1.64,0,0,1-2.308,0L14.2,128.645a1.221,1.221,0,0,0-1.726,1.726l2.695,2.695a4.087,4.087,0,0,0,5.756,0l2.157-2.154a4.081,4.081,0,0,0,.571-5.041l4.574-4.568.015-.015c.524-.541,1.982-.44,3.393-.342a17.556,17.556,0,0,0,3.211.021l5.009,5a4.079,4.079,0,0,0,.692,4.832l2.157,2.154a4.081,4.081,0,0,0,5.757,0l13.083-13.067a4.077,4.077,0,0,0,0-5.759Zm-32.392-29.4,5.295,1L31.275,88.9a7.694,7.694,0,0,1-1.9-1.38,5.616,5.616,0,0,1-1.8-2.775h0a1.066,1.066,0,0,1-.005-.12,4.136,4.136,0,0,1,1.576.106Zm-6.188,1a1.8,1.8,0,0,1,2.278-.216,8.731,8.731,0,0,0,2.449,3.775A9.039,9.039,0,0,0,31.2,91.465a1.792,1.792,0,0,1-2.738,2.288h0l-5.5-5.495a1.8,1.8,0,0,1,0-2.53Zm-3.19,5.326a1.8,1.8,0,0,1,2.536,0L26.74,95.48A1.794,1.794,0,0,1,24.2,98.015h0l-3.363-3.362-.016-.015L19.77,93.585a1.791,1.791,0,0,1,0-2.531Zm-3.2,5.325a1.806,1.806,0,0,1,2.528-.008l3.373,3.371a1.792,1.792,0,0,1-2.539,2.529l-1.223-1.221h0l-2.139-2.136a1.8,1.8,0,0,1,0-2.533Zm-2.126,6.4a1.8,1.8,0,0,1,2.54,0L18.214,104a1.792,1.792,0,0,1-2.54,2.528l-.153-.153-.006-.006-.007-.006-1.058-1.054a1.793,1.793,0,0,1,0-2.532ZM39.324,116.65a1.221,1.221,0,0,0-1.726,0l-1.086,1.085c-1.032,1.032-2.9.9-4.71.777-1.964-.136-3.994-.277-5.308,1.072l-4.5,4.49L10.755,112.846l3.979-3.972a4.233,4.233,0,0,0,6.443-3.61c0-.011,0-.021,0-.032h.032a4.222,4.222,0,0,0,4.231-4.227c0-.011,0-.021,0-.032h.032A4.217,4.217,0,0,0,29.7,96.717h.033a4.234,4.234,0,0,0,3.613-6.436L36.836,86.8a1.791,1.791,0,0,1,.916-.488c.036,0,.072-.01.108-.017a1.789,1.789,0,0,1,1.519,3.036l-1.062,1.058-.011.01-1.223,1.221a1.221,1.221,0,1,0,1.725,1.727l1.066-1.065h0l.161-.161a1.8,1.8,0,0,1,2.533.006,1.791,1.791,0,0,1,0,2.53L41.5,95.724h0l-1.223,1.218A1.221,1.221,0,0,0,42,98.672l1.229-1.224a1.792,1.792,0,0,1,2.535,2.532l-2.13,2.13a1.221,1.221,0,1,0,1.726,1.726l1.044-1.044.018-.017a1.792,1.792,0,0,1,2.536,2.531l-1.061,1.06h0l-1.684,1.682a1.221,1.221,0,0,0,1.725,1.727l.824-.823,3.948,3.944L41.464,124.128,37.436,120.1a4.8,4.8,0,0,0,.8-.645l1.085-1.084a1.22,1.22,0,0,0,0-1.726Zm20.492,1.512L46.734,131.228a1.64,1.64,0,0,1-2.307,0l-2.157-2.154a1.632,1.632,0,0,1,0-2.3l13.083-13.067a1.64,1.64,0,0,1,2.308,0l2.156,2.15a1.636,1.636,0,0,1,0,2.3Z" transform="translate(0 -72.196)" fill="#fff"/>
    <path id="Path_2442" data-name="Path 2442" d="M86.529,9.269a1.221,1.221,0,0,0,1.724-1.728L83.806,3.1a1.221,1.221,0,1,0-1.724,1.728Z" transform="translate(-71.033 -2.412)" fill="#fff"/>
    <path id="Path_2443" data-name="Path 2443" d="M372.872,9.625a1.217,1.217,0,0,0,.863-.357l4.444-4.439A1.221,1.221,0,1,0,376.454,3.1l-4.444,4.439a1.22,1.22,0,0,0,.863,2.084Z" transform="translate(-325.821 -2.413)" fill="#fff"/>
    <path id="Path_2444" data-name="Path 2444" d="M60.28,430.558a1.221,1.221,0,0,0,.015,1.726l0,0a1.221,1.221,0,1,0-.018-1.73Z" transform="translate(-51.881 -378.053)" fill="#fff"/>
    <path id="Path_2445" data-name="Path 2445" d="M333.733,334.56a1.221,1.221,0,1,0-.548-2.311l-.007,0a1.22,1.22,0,0,0,.555,2.308Z" transform="translate(-291.423 -291.865)" fill="#fff"/>
  </g>
</svg>
