<svg xmlns="http://www.w3.org/2000/svg" width="65.898" height="63.702" viewBox="0 0 65.898 63.702">
  <g id="Group_35203" data-name="Group 35203" transform="translate(-2 -3)">
    <path id="Path_2446" data-name="Path 2446" d="M32.786,49.573a8.786,8.786,0,1,1,8.786-8.786,8.786,8.786,0,0,1-8.786,8.786Zm0-15.376a6.59,6.59,0,1,0,6.59,6.59A6.59,6.59,0,0,0,32.786,34.2Z" transform="translate(2.163 2.851)" fill="#fff"/>
    <path id="Path_2447" data-name="Path 2447" d="M46.458,62.18a1.1,1.1,0,0,1-1.1-1.1v-6.59c0-1.118-4.265-3.295-12.081-3.295S21.2,53.373,21.2,54.492v6.59a1.1,1.1,0,1,1-2.2,0v-6.59C19,50.886,26.183,49,33.278,49s14.278,1.886,14.278,5.492v6.59A1.1,1.1,0,0,1,46.458,62.18Z" transform="translate(1.671 4.522)" fill="#fff"/>
    <path id="Path_2448" data-name="Path 2448" d="M49.786,44.573a8.786,8.786,0,1,1,8.786-8.786,8.786,8.786,0,0,1-8.786,8.786Zm0-15.376a6.59,6.59,0,1,0,6.59,6.59,6.59,6.59,0,0,0-6.59-6.59Z" transform="translate(3.834 2.359)" fill="#fff"/>
    <path id="Path_2449" data-name="Path 2449" d="M63.3,57.18a1.1,1.1,0,0,1-1.1-1.1v-6.59c0-1.118-4.265-3.295-12.081-3.295-4.5,0-8.677.785-10.873,2.049a1.1,1.1,0,1,1-1.1-1.9C40.7,44.879,45.178,44,50.121,44c7.1,0,14.278,1.886,14.278,5.492v6.59A1.1,1.1,0,0,1,63.3,57.18Z" transform="translate(3.5 4.03)" fill="#fff"/>
    <path id="Path_2450" data-name="Path 2450" d="M15.786,44.573a8.786,8.786,0,1,1,8.786-8.786A8.786,8.786,0,0,1,15.786,44.573Zm0-15.376a6.59,6.59,0,1,0,6.59,6.59,6.59,6.59,0,0,0-6.59-6.59Z" transform="translate(0.492 2.359)" fill="#fff"/>
    <path id="Path_2451" data-name="Path 2451" d="M3.1,57.18a1.1,1.1,0,0,1-1.1-1.1v-6.59C2,45.886,9.183,44,16.278,44c4.942,0,9.418.879,11.965,2.344a1.1,1.1,0,1,1-1.1,1.9c-2.19-1.264-6.358-2.049-10.867-2.049C8.461,46.2,4.2,48.373,4.2,49.492v6.59A1.1,1.1,0,0,1,3.1,57.18Z" transform="translate(0 4.03)" fill="#fff"/>
    <path id="Path_2452" data-name="Path 2452" d="M32.1,25.678a1.1,1.1,0,0,1-.777-1.875L47.874,7.251A1.1,1.1,0,1,1,49.427,8.8L32.875,25.356A1.1,1.1,0,0,1,32.1,25.678Z" transform="translate(2.851 0.386)" fill="#fff"/>
    <path id="Path_2453" data-name="Path 2453" d="M46.491,15.786a1.109,1.109,0,0,1-.267-.033l-4.393-1.1a1.1,1.1,0,0,1-.51-1.842l5.492-5.492a1.1,1.1,0,0,1,1.043-.289l4.393,1.1a1.1,1.1,0,0,1,.51,1.842l-5.492,5.492A1.1,1.1,0,0,1,46.491,15.786Zm-2.245-2.792,1.908.478,3.68-3.68-1.908-.478Z" transform="translate(3.834 0.393)" fill="#fff"/>
    <path id="Path_2454" data-name="Path 2454" d="M42.2,15.081a1.116,1.116,0,0,1-.293-.04,1.1,1.1,0,0,1-.769-.792l-1.1-4.393a1.1,1.1,0,0,1,.289-1.043l5.492-5.492a1.1,1.1,0,0,1,1.842.51l1.1,4.393a1.1,1.1,0,0,1-.289,1.043L42.976,14.76A1.1,1.1,0,0,1,42.2,15.081Zm.118-5.154.478,1.908,3.68-3.68-.478-1.908Z" transform="translate(3.736 0)" fill="#fff"/>
    <path id="Path_2455" data-name="Path 2455" d="M15.225,28.064a1.1,1.1,0,0,1-1.09-.971A20.24,20.24,0,0,1,14,24.769,19.779,19.779,0,0,1,41.91,6.748a1.1,1.1,0,0,1-.905,2A17.582,17.582,0,0,0,16.2,24.769a18.037,18.037,0,0,0,.12,2.069,1.1,1.1,0,0,1-.963,1.218,1.008,1.008,0,0,1-.129.008Z" transform="translate(1.18 0.197)" fill="#fff"/>
    <path id="Path_2456" data-name="Path 2456" d="M49.12,27.081a1.008,1.008,0,0,1-.129-.008,1.1,1.1,0,0,1-.963-1.218,18.038,18.038,0,0,0,.12-2.069,17.43,17.43,0,0,0-1.554-7.236,1.1,1.1,0,0,1,2-.9,19.623,19.623,0,0,1,1.749,8.141,20.24,20.24,0,0,1-.135,2.324A1.1,1.1,0,0,1,49.12,27.081Z" transform="translate(4.374 1.18)" fill="#fff"/>
    <path id="Path_2457" data-name="Path 2457" d="M32.59,30.18a6.59,6.59,0,1,1,6.59-6.59,6.59,6.59,0,0,1-6.59,6.59Zm0-10.983a4.393,4.393,0,1,0,4.393,4.393A4.393,4.393,0,0,0,32.59,19.2Z" transform="translate(2.359 1.376)" fill="#fff"/>
    <path id="Path_2458" data-name="Path 2458" d="M40.12,35.163a1.1,1.1,0,0,1-.634-2,10.983,10.983,0,1,0-12.613,0,1.1,1.1,0,1,1-1.265,1.8,13.18,13.18,0,1,1,15.143,0A1.1,1.1,0,0,1,40.12,35.163Z" transform="translate(1.769 0.786)" fill="#fff"/>
  </g>
</svg>
