<svg xmlns="http://www.w3.org/2000/svg" width="63.3" height="64" viewBox="0 0 63.3 64">
  <g id="Group_35190" data-name="Group 35190" transform="translate(-1.4 -1)">
    <g id="Group_35192" data-name="Group 35192">
      <g id="Group_35191" data-name="Group 35191">
        <g id="Group_35190-2" data-name="Group 35190">
          <path id="Path_2416" data-name="Path 2416" d="M45.8,38V60a4.012,4.012,0,0,1-4,4H15a4.012,4.012,0,0,1-4-4V57.3" fill="none" stroke="#fff" stroke-linecap="round" stroke-linejoin="round" stroke-width="2"/>
          <path id="Path_2417" data-name="Path 2417" d="M11,41.9V6a4.012,4.012,0,0,1,4-4H41.8a4.012,4.012,0,0,1,4,4v4.1" fill="none" stroke="#fff" stroke-linecap="round" stroke-linejoin="round" stroke-width="2"/>
        </g>
      </g>
    </g>
    <g id="Group_35198" data-name="Group 35198">
      <g id="Group_35193" data-name="Group 35193">
        <path id="Path_2418" data-name="Path 2418" d="M49.4,9.7a14.206,14.206,0,0,0-12,21.8L36.3,38l7.2-1.3a14.65,14.65,0,0,0,6,1.3,14.15,14.15,0,1,0-.1-28.3Z" fill="none" stroke="#fff" stroke-linecap="round" stroke-linejoin="round" stroke-width="2"/>
      </g>
      <g id="Group_35197" data-name="Group 35197">
        <g id="Group_35194" data-name="Group 35194">
          <path id="Path_2419" data-name="Path 2419" d="M38.5,21.9l4.7,3.9" fill="none" stroke="#fff" stroke-linecap="round" stroke-linejoin="round" stroke-width="2"/>
          <path id="Path_2420" data-name="Path 2420" d="M40.8,21.1v5.4" fill="none" stroke="#fff" stroke-linecap="round" stroke-linejoin="round" stroke-width="2"/>
          <path id="Path_2421" data-name="Path 2421" d="M43.2,21.9l-4.7,3.9" fill="none" stroke="#fff" stroke-linecap="round" stroke-linejoin="round" stroke-width="2"/>
        </g>
        <g id="Group_35195" data-name="Group 35195">
          <path id="Path_2422" data-name="Path 2422" d="M47.1,21.9l4.6,3.9" fill="none" stroke="#fff" stroke-linecap="round" stroke-linejoin="round" stroke-width="2"/>
          <path id="Path_2423" data-name="Path 2423" d="M49.4,21.1v5.4" fill="none" stroke="#fff" stroke-linecap="round" stroke-linejoin="round" stroke-width="2"/>
          <path id="Path_2424" data-name="Path 2424" d="M51.7,21.9l-4.6,3.9" fill="none" stroke="#fff" stroke-linecap="round" stroke-linejoin="round" stroke-width="2"/>
        </g>
        <g id="Group_35196" data-name="Group 35196">
          <path id="Path_2425" data-name="Path 2425" d="M55.6,21.9l4.7,3.9" fill="none" stroke="#fff" stroke-linecap="round" stroke-linejoin="round" stroke-width="2"/>
          <path id="Path_2426" data-name="Path 2426" d="M58,21.1v5.4" fill="none" stroke="#fff" stroke-linecap="round" stroke-linejoin="round" stroke-width="2"/>
          <path id="Path_2427" data-name="Path 2427" d="M60.3,21.9l-4.7,3.9" fill="none" stroke="#fff" stroke-linecap="round" stroke-linejoin="round" stroke-width="2"/>
        </g>
      </g>
    </g>
    <g id="Group_35201" data-name="Group 35201">
      <g id="Group_35199" data-name="Group 35199">
        <path id="Path_2428" data-name="Path 2428" d="M2.4,40.1H7.7V58.6H2.4Z" fill="none" stroke="#fff" stroke-linecap="round" stroke-linejoin="round" stroke-width="2"/>
        <path id="Path_2429" data-name="Path 2429" d="M7.8,42s8.2,1.1,8.1-6.1V29.6s5.8-3,5.2,8.5" fill="none" stroke="#fff" stroke-linecap="round" stroke-linejoin="round" stroke-width="2"/>
        <path id="Path_2430" data-name="Path 2430" d="M21.1,38.1h7.8a2.5,2.5,0,1,1,0,5H24.2" fill="none" stroke="#fff" stroke-linecap="round" stroke-linejoin="round" stroke-width="2"/>
        <path id="Path_2431" data-name="Path 2431" d="M24.2,43.1h4.7a2.5,2.5,0,1,1,0,5H24.2" fill="none" stroke="#fff" stroke-linecap="round" stroke-linejoin="round" stroke-width="2"/>
        <path id="Path_2432" data-name="Path 2432" d="M24.2,48.1h4.7a2.5,2.5,0,1,1,0,5H24.2" fill="none" stroke="#fff" stroke-linecap="round" stroke-linejoin="round" stroke-width="2"/>
        <path id="Path_2433" data-name="Path 2433" d="M24.2,53.1h4.7a2.5,2.5,0,1,1,0,5H20.5" fill="none" stroke="#fff" stroke-linecap="round" stroke-linejoin="round" stroke-width="2"/>
        <path id="Path_2434" data-name="Path 2434" d="M20.5,58.1H13.2a3.5,3.5,0,0,1-2.2-.8,3.5,3.5,0,0,0-2.2-.8h-1" fill="none" stroke="#fff" stroke-linecap="round" stroke-linejoin="round" stroke-width="2"/>
      </g>
      <path id="Path_2435" data-name="Path 2435" d="M35.5,8.4H21.3a2.476,2.476,0,0,1-2.5-2.5V2H38V5.9A2.476,2.476,0,0,1,35.5,8.4Z" fill="none" stroke="#fff" stroke-linecap="round" stroke-linejoin="round" stroke-width="2"/>
      <g id="Group_35200" data-name="Group 35200">
        <path id="Path_2436" data-name="Path 2436" d="M23,5.2h6" fill="none" stroke="#fff" stroke-linecap="round" stroke-linejoin="round" stroke-width="2"/>
        <path id="Path_2437" data-name="Path 2437" d="M32.4,5.2h1.4" fill="none" stroke="#fff" stroke-linecap="round" stroke-linejoin="round" stroke-width="2"/>
      </g>
      <path id="Path_2438" data-name="Path 2438" d="M16.5,15.3H31.6" fill="none" stroke="#fff" stroke-linecap="round" stroke-linejoin="round" stroke-width="2"/>
      <path id="Path_2439" data-name="Path 2439" d="M16.5,21.6h7.3" fill="none" stroke="#fff" stroke-linecap="round" stroke-linejoin="round" stroke-width="2"/>
    </g>
  </g>
</svg>
