<svg xmlns="http://www.w3.org/2000/svg" width="63.662" height="63.662" viewBox="0 0 63.662 63.662">
  <path id="Path_2415" data-name="Path 2415" d="M30.481,27.957h18.7A1.027,1.027,0,0,0,50.2,26.82a10.4,10.4,0,0,0-6.641-8.626,5.782,5.782,0,1,0-7.46,0,10.4,10.4,0,0,0-6.642,8.626,1.027,1.027,0,0,0,1.021,1.136Zm9.351-17.9A3.728,3.728,0,1,1,36.1,13.782,3.732,3.732,0,0,1,39.831,10.054Zm0,9.51A8.358,8.358,0,0,1,47.961,25.9H31.7A8.358,8.358,0,0,1,39.831,19.564Zm-16.81.653-2.423.549a1.027,1.027,0,0,1-.453-2l6.1-1.381a1.027,1.027,0,0,1,1.24,1.169l-.924,5.58a1.027,1.027,0,1,1-2.026-.335l.436-2.635a32.1,32.1,0,0,0-9.126,25.351,1.027,1.027,0,0,1-.93,1.115q-.047,0-.094,0A1.027,1.027,0,0,1,13.8,46.7a34.173,34.173,0,0,1,9.223-26.481ZM51.937,16.7a1.027,1.027,0,0,1,1.446-.131,34.173,34.173,0,0,1,12.2,25.247l1.325-2.1a1.027,1.027,0,1,1,1.737,1.1L65.314,46.1a1.027,1.027,0,0,1-.838.479h-.03a1.027,1.027,0,0,1-.835-.429l-3.293-4.6a1.027,1.027,0,1,1,1.67-1.2l1.555,2.171A32.1,32.1,0,0,0,52.069,18.144a1.026,1.026,0,0,1-.132-1.446ZM38.95,64.847A33.928,33.928,0,0,1,31,63.9l1.686,1.824a1.027,1.027,0,0,1-1.508,1.394l-4.244-4.59a1.027,1.027,0,0,1,.393-1.658l5.295-1.99A1.027,1.027,0,0,1,33.34,60.8l-2.5.941A31.981,31.981,0,0,0,51.574,60.2a1.027,1.027,0,0,1,.809,1.887A34.093,34.093,0,0,1,38.95,64.847ZM33.081,34.406a1.027,1.027,0,0,1,1.027-1.027h5.544a1.027,1.027,0,0,1,0,2.054H34.108a1.027,1.027,0,0,1-1.027-1.027Zm-5.154,0a1.027,1.027,0,0,1,1.027-1.027H30.6a1.027,1.027,0,0,1,0,2.054H28.953A1.027,1.027,0,0,1,27.926,34.406ZM37.6,53.28h9.14l3.842,4a1.027,1.027,0,0,0,1.767-.711V53.28h.766a3.149,3.149,0,0,0,3.145-3.145V39.518a3.149,3.149,0,0,0-3.145-3.145H45.206v-3.46a3.149,3.149,0,0,0-3.145-3.145H26.545A3.149,3.149,0,0,0,23.4,32.913V43.53a3.149,3.149,0,0,0,3.145,3.145h.766v3.288a1.027,1.027,0,0,0,1.767.711l3.842-4h1.536v3.46A3.149,3.149,0,0,0,37.6,53.28ZM53.118,38.426a1.093,1.093,0,0,1,1.092,1.092V50.135a1.093,1.093,0,0,1-1.092,1.092H51.325A1.027,1.027,0,0,0,50.3,52.254v1.764L47.92,51.542a1.027,1.027,0,0,0-.741-.315H37.6a1.093,1.093,0,0,1-1.092-1.092V39.518A1.093,1.093,0,0,1,37.6,38.426Zm-20.635,6.2a1.027,1.027,0,0,0-.741.315l-2.378,2.476V45.648a1.027,1.027,0,0,0-1.027-1.027H26.545a1.093,1.093,0,0,1-1.092-1.092V32.913a1.093,1.093,0,0,1,1.092-1.092H42.061a1.093,1.093,0,0,1,1.092,1.092v3.46H37.6a3.133,3.133,0,0,0-2.118.822H28.953a1.027,1.027,0,1,0,0,2.054h5.516c-.008.089-.012.179-.012.27V41.01h-5.5a1.027,1.027,0,1,0,0,2.054h5.5v1.558Zm11.908-3.611a1.027,1.027,0,0,1,1.027-1.027h5.292a1.027,1.027,0,0,1,0,2.054H45.417A1.027,1.027,0,0,1,44.391,41.011Zm-5.407,3.815A1.027,1.027,0,0,1,40.01,43.8h10.7a1.027,1.027,0,0,1,0,2.054H40.01A1.027,1.027,0,0,1,38.984,44.826Zm0,3.815a1.027,1.027,0,0,1,1.027-1.027h10.7a1.027,1.027,0,0,1,0,2.054H40.01A1.027,1.027,0,0,1,38.984,48.642Zm0-7.631a1.027,1.027,0,0,1,1.027-1.027h1.9a1.027,1.027,0,1,1,0,2.054h-1.9A1.027,1.027,0,0,1,38.984,41.011ZM22.108,61.9a5.782,5.782,0,1,0-7.46,0,10.4,10.4,0,0,0-6.641,8.626,1.027,1.027,0,0,0,1.021,1.136h18.7a1.027,1.027,0,0,0,1.021-1.136A10.4,10.4,0,0,0,22.108,61.9Zm-3.73-8.141a3.728,3.728,0,0,1,0,7.457h-.005a3.728,3.728,0,0,1,0-7.457ZM10.249,69.608a8.357,8.357,0,0,1,8.127-6.339h.005a8.358,8.358,0,0,1,8.127,6.339Zm61.408.917A10.4,10.4,0,0,0,65.015,61.9a5.782,5.782,0,1,0-7.46,0,10.4,10.4,0,0,0-6.641,8.626,1.027,1.027,0,0,0,1.021,1.136h18.7a1.027,1.027,0,0,0,1.021-1.136ZM61.285,53.759a3.728,3.728,0,0,1,0,7.457h-.005a3.728,3.728,0,0,1,0-7.457ZM53.156,69.608a8.358,8.358,0,0,1,8.127-6.339h.005a8.358,8.358,0,0,1,8.127,6.339Z" transform="translate(-8 -8)" fill="#fff"/>
</svg>
