<svg xmlns="http://www.w3.org/2000/svg" width="75.615" height="89.56" viewBox="0 0 75.615 89.56">
  <g id="Group_35108" data-name="Group 35108" transform="translate(-0.332)">
    <path id="Path_2325" data-name="Path 2325" d="M204.814,21.416h-1.947V19.47c0-12.728,6.741-19.47,19.47-19.47h1.946V1.947c0,12.728-6.741,19.469-19.469,19.469Zm15.5-17.449c-8.469.584-12.9,5.013-13.507,13.507C215.425,16.89,219.756,12.558,220.316,3.967Zm0,0" transform="translate(-165.567 0)" fill="#fff"/>
    <path id="Path_2326" data-name="Path 2326" d="M54.822,194.2a19.47,19.47,0,0,1-9-2.215,13.9,13.9,0,0,0-13.118,0A19.475,19.475,0,0,1,23.7,194.2C10.6,194.2.332,176.235.332,153.31.332,139.365,10.821,128,23.7,128a21.61,21.61,0,0,1,7.082,1.193l7.228,2.506a3.914,3.914,0,0,0,2.555,0l7.2-2.506A21.658,21.658,0,0,1,54.822,128,22.683,22.683,0,0,1,72.9,137.272l1.7,2.263-2.726.779a15.551,15.551,0,0,0,1.85,30.3l2.215.365-.682,2.142c-4.04,13-11.9,21.076-20.443,21.076Zm-15.575-7.788a18.17,18.17,0,0,1,8.371,2.118,15.355,15.355,0,0,0,7.2,1.776c6.376,0,12.436-6.206,16.086-16.33a19.444,19.444,0,0,1-2.848-36.359,18.5,18.5,0,0,0-13.239-5.72,17.736,17.736,0,0,0-5.792.974L41.8,135.374a7.829,7.829,0,0,1-5.086,0l-7.253-2.506a17.717,17.717,0,0,0-5.792-.974c-10.733,0-19.469,9.613-19.469,21.417,0,20.054,8.907,36.991,19.469,36.991a15.336,15.336,0,0,0,7.2-1.776,18.171,18.171,0,0,1,8.372-2.118Zm0,0" transform="translate(0 -104.637)" fill="#fff"/>
  </g>
</svg>
