<svg xmlns="http://www.w3.org/2000/svg" width="82.91" height="93.668" viewBox="0 0 82.91 93.668">
  <g id="Group_35185" data-name="Group 35185" transform="translate(-0.3 0)">
    <path id="Path_2386" data-name="Path 2386" d="M81.183,21.609c-3.49-5.465-10.994-7.736-21.105-6.433-.357.042-.736.105-1.093.147-.147-.336-.294-.672-.462-1.008C54.172,5.087,48.223,0,41.748,0S29.3,5.087,24.974,14.315c-.147.336-.315.672-.462,1.008-.379-.062-.736-.105-1.093-.147C13.287,13.852,5.8,16.144,2.314,21.609S-.1,34.831,5.32,43.449c.715,1.136,1.493,2.27,2.334,3.385-.841,1.135-1.618,2.249-2.334,3.384-5.423,8.618-6.5,16.4-3.006,21.841,2.838,4.456,8.346,6.79,15.765,6.79a43.143,43.143,0,0,0,5.318-.358c.357-.042.736-.105,1.093-.147.148.337.295.672.463,1.009,4.351,9.228,10.3,14.315,16.774,14.315S54.172,88.58,58.5,79.353c.147-.337.315-.672.462-1.009.379.063.736.105,1.094.147a39.575,39.575,0,0,0,5.318.358c7.42,0,12.928-2.334,15.765-6.79,3.49-5.465,2.417-13.222-3.005-21.841-.715-1.135-1.493-2.27-2.334-3.384.841-1.136,1.618-2.249,2.334-3.385,5.486-8.639,6.558-16.4,3.048-21.84ZM28.779,16.1c3.552-7.567,8.282-11.9,12.97-11.9s9.417,4.331,12.97,11.9a.076.076,0,0,0,.021.042,74.485,74.485,0,0,0-13.012,4.435,72.746,72.746,0,0,0-13.011-4.435c.042,0,.042-.021.063-.042ZM60.688,46.834A92.48,92.48,0,0,1,60.141,56.9a89.658,89.658,0,0,1-8.2,5.886,89.448,89.448,0,0,1-10.216,5.655,94.84,94.84,0,0,1-10.216-5.655,92.547,92.547,0,0,1-8.2-5.886,92.969,92.969,0,0,1,0-20.138,93,93,0,0,1,18.414-11.54,94.7,94.7,0,0,1,10.216,5.654,92.546,92.546,0,0,1,8.2,5.886,92.5,92.5,0,0,1,.547,10.069ZM64.7,40.717a68.057,68.057,0,0,1,5.8,6.117,68.158,68.158,0,0,1-5.8,6.117q.19-3.026.19-6.117T64.7,40.717ZM59.279,62.873a67.169,67.169,0,0,1-2.88,10.7,66.226,66.226,0,0,1-9.585-2.943c2.48-1.3,4.96-2.733,7.42-4.288Q56.821,64.67,59.279,62.873Zm-22.6,7.756A62.13,62.13,0,0,1,27.1,73.572a67.168,67.168,0,0,1-2.88-10.7c1.618,1.2,3.3,2.354,5.045,3.447C31.722,67.9,34.2,69.326,36.682,70.629ZM18.794,52.951a68.274,68.274,0,0,1-5.8-6.117,68.175,68.175,0,0,1,5.8-6.117q-.19,3.027-.19,6.117t.19,6.117ZM24.218,30.8A67.122,67.122,0,0,1,27.1,20.1a65.989,65.989,0,0,1,9.585,2.943c-2.48,1.3-4.96,2.733-7.42,4.288Q26.676,29,24.218,30.8Zm30-3.468c-2.439-1.555-4.919-3.006-7.42-4.288A62.112,62.112,0,0,1,56.379,20.1a67.294,67.294,0,0,1,2.88,10.7Q56.831,29,54.214,27.327ZM8.873,41.2c-4.457-7.063-5.55-13.39-3.027-17.342C7.863,20.705,12.236,19,18.142,19a38.116,38.116,0,0,1,4.73.315h.042a75.652,75.652,0,0,0-3.531,15.24,78.4,78.4,0,0,0-9.018,8.85c-.526-.714-1.03-1.45-1.492-2.207ZM22.851,74.329a37.955,37.955,0,0,1-4.73.315c-5.907,0-10.28-1.682-12.3-4.856C3.3,65.837,4.395,59.51,8.851,52.447c.462-.736.967-1.493,1.493-2.229a78.256,78.256,0,0,0,9.017,8.85,75.684,75.684,0,0,0,3.532,15.24c0,.021-.021.021-.042.021Zm31.867,3.237c-3.552,7.567-8.282,11.9-12.97,11.9s-9.417-4.331-12.97-11.9a.076.076,0,0,0-.021-.042A74.421,74.421,0,0,0,41.77,73.089a72.685,72.685,0,0,0,13.011,4.436c-.042,0-.042.021-.063.042Zm19.906-25.1c4.457,7.062,5.55,13.39,3.027,17.342s-8.724,5.612-17.006,4.519H60.6a75.655,75.655,0,0,0,3.532-15.24,78.322,78.322,0,0,0,9.017-8.85C73.658,50.975,74.162,51.711,74.624,52.468ZM64.114,34.579a75.626,75.626,0,0,0-3.531-15.24h.042c8.282-1.072,14.483.567,17.005,4.519S79.06,34.137,74.6,41.2c-.462.736-.967,1.493-1.493,2.229a76.387,76.387,0,0,0-9-8.85Zm0,0" transform="translate(0 0)" fill="#fff"/>
    <path id="Path_2387" data-name="Path 2387" d="M166.2,183.2a8.324,8.324,0,1,0,8.324,8.324A8.325,8.325,0,0,0,166.2,183.2Zm0,12.444a4.12,4.12,0,1,1,4.12-4.12A4.12,4.12,0,0,1,166.2,195.643Zm0,0" transform="translate(-124.455 -144.689)" fill="#fff"/>
  </g>
</svg>
