<svg xmlns="http://www.w3.org/2000/svg" width="72.944" height="88.774" viewBox="0 0 72.944 88.774">
  <g id="Group_35112" data-name="Group 35112" transform="translate(-0.148)">
    <path id="Path_2327" data-name="Path 2327" d="M74.813,151.961h46.07v3.84H74.813Zm0,0" transform="translate(-61.227 -124.614)" fill="#fff"/>
    <path id="Path_2328" data-name="Path 2328" d="M7.826,188.433a7.678,7.678,0,0,1-7.678-7.679V159.64a7.678,7.678,0,1,1,15.356,0v21.115A7.678,7.678,0,0,1,7.826,188.433Zm0-32.633a3.839,3.839,0,0,0-3.839,3.839v21.115a3.839,3.839,0,1,0,7.679,0V159.64A3.839,3.839,0,0,0,7.826,155.8Zm0,0" transform="translate(0 -124.614)" fill="#fff"/>
    <path id="Path_2329" data-name="Path 2329" d="M327.827,188.433a7.678,7.678,0,0,1-7.678-7.679V159.64a7.678,7.678,0,1,1,15.356,0v21.115A7.678,7.678,0,0,1,327.827,188.433Zm0-32.633a3.839,3.839,0,0,0-3.839,3.839v21.115a3.839,3.839,0,1,0,7.679,0V159.64A3.839,3.839,0,0,0,327.827,155.8Zm0,0" transform="translate(-262.413 -124.614)" fill="#fff"/>
    <path id="Path_2330" data-name="Path 2330" d="M98.7,108.423a7.679,7.679,0,0,1-7.679-7.679v-9.6H87.183v9.6a7.679,7.679,0,0,1-15.357,0v-9.6H69.907a5.759,5.759,0,0,1-5.759-5.759V48.916a24.954,24.954,0,1,1,49.909,0V85.388a5.759,5.759,0,0,1-5.759,5.759h-1.92v9.6a7.679,7.679,0,0,1-7.678,7.679ZM83.343,87.307H94.861v13.437a3.839,3.839,0,0,0,7.679,0V87.307H108.3a1.919,1.919,0,0,0,1.92-1.919V48.916a21.116,21.116,0,0,0-42.231,0V85.388a1.919,1.919,0,0,0,1.92,1.919h5.759v13.437a3.839,3.839,0,0,0,7.678,0Zm0,0" transform="translate(-52.482 -19.649)" fill="#fff"/>
    <path id="Path_2331" data-name="Path 2331" d="M142.652,98.629h-3.84v3.839h3.84Zm0,0" transform="translate(-113.71 -80.88)" fill="#fff"/>
    <path id="Path_2332" data-name="Path 2332" d="M249.32,98.629h-3.839v3.839h3.839Zm0,0" transform="translate(-201.182 -80.88)" fill="#fff"/>
    <path id="Path_2333" data-name="Path 2333" d="M103.363,2.454,106.549.313l5.317,7.913-3.187,2.141Zm0,0" transform="translate(-84.64 -0.256)" fill="#fff"/>
    <path id="Path_2334" data-name="Path 2334" d="M254.785,7.906,260.1,0l3.188,2.143-5.313,7.906Zm0,0" transform="translate(-208.812)" fill="#fff"/>
  </g>
</svg>
