<svg id="Group_35189" data-name="Group 35189" xmlns="http://www.w3.org/2000/svg" width="88" height="88" viewBox="0 0 88 88">
  <path id="Path_2394" data-name="Path 2394" d="M38.5,71.5H6.875A6.883,6.883,0,0,1,0,64.625V6.875A6.883,6.883,0,0,1,6.875,0h2.75V2.75H6.875A4.125,4.125,0,0,0,2.75,6.875v57.75A4.125,4.125,0,0,0,6.875,68.75H38.5Z" fill="#fff"/>
  <path id="Path_2395" data-name="Path 2395" d="M9,0h2.751V2.75H9Z" transform="translate(3.375)" fill="#fff"/>
  <path id="Path_2396" data-name="Path 2396" d="M76.25,71.5V68.75a4.125,4.125,0,0,0,4.125-4.125V6.875A4.125,4.125,0,0,0,76.25,2.75H13V0H76.25a6.883,6.883,0,0,1,6.875,6.875v57.75A6.883,6.883,0,0,1,76.25,71.5Z" transform="translate(4.875)" fill="#fff"/>
  <path id="Path_2397" data-name="Path 2397" d="M0,0H5.669V2.75H0Z" transform="translate(26.167 75.32) rotate(-75.936)" fill="#fff"/>
  <path id="Path_2398" data-name="Path 2398" d="M32.125,62.25H18.375A1.375,1.375,0,0,1,17,60.875v-2.75A4.125,4.125,0,0,1,21.125,54h11v2.75h-11a1.375,1.375,0,0,0-1.375,1.375V59.5H32.125Z" transform="translate(6.375 20.25)" fill="#fff"/>
  <path id="Path_2399" data-name="Path 2399" d="M1,42H38.125v2.75H1Z" transform="translate(0.375 15.75)" fill="#fff"/>
  <path id="Path_2400" data-name="Path 2400" d="M4,46H6.75v2.75H4Z" transform="translate(1.5 17.25)" fill="#fff"/>
  <path id="Path_2401" data-name="Path 2401" d="M8,46h8.25v2.75H8Z" transform="translate(3 17.25)" fill="#fff"/>
  <path id="Path_2402" data-name="Path 2402" d="M64.375,82.75h-27.5A6.883,6.883,0,0,1,30,75.875v-55A6.883,6.883,0,0,1,36.875,14h27.5a6.883,6.883,0,0,1,6.875,6.875v55a6.883,6.883,0,0,1-6.875,6.875Zm-27.5-66a4.125,4.125,0,0,0-4.125,4.125v55A4.125,4.125,0,0,0,36.875,80h27.5A4.125,4.125,0,0,0,68.5,75.875v-55a4.125,4.125,0,0,0-4.125-4.125Z" transform="translate(11.25 5.25)" fill="#fff"/>
  <path id="Path_2403" data-name="Path 2403" d="M57.125,25.875H43.375c-2.577,0-3.656-2.244-4-4.125H31V19h9.625A1.375,1.375,0,0,1,42,20.375c0,.023.077,2.75,1.375,2.75h13.75c1.3,0,1.375-2.727,1.375-2.75A1.375,1.375,0,0,1,59.875,19H69.5v2.75H61.122C60.781,23.631,59.7,25.875,57.125,25.875Z" transform="translate(11.625 7.125)" fill="#fff"/>
  <path id="Path_2404" data-name="Path 2404" d="M41,18H52v2.75H41Z" transform="translate(15.375 6.75)" fill="#fff"/>
  <path id="Path_2405" data-name="Path 2405" d="M41,59H52v2.75H41Z" transform="translate(15.375 22.125)" fill="#fff"/>
  <path id="Path_2406" data-name="Path 2406" d="M31,56H69.5v2.75H31Z" transform="translate(11.625 21)" fill="#fff"/>
  <path id="Path_2407" data-name="Path 2407" d="M23.25,37h-5.5a1.375,1.375,0,0,1-1.375-1.375V33.609a13.669,13.669,0,0,1-2.226-.924l-1.427,1.427a1.375,1.375,0,0,1-1.944,0l-3.89-3.89a1.375,1.375,0,0,1,0-1.944l1.426-1.427a13.669,13.669,0,0,1-.923-2.226H5.375A1.375,1.375,0,0,1,4,23.25v-5.5a1.375,1.375,0,0,1,1.375-1.375H7.391a13.669,13.669,0,0,1,.924-2.226L6.888,12.722a1.375,1.375,0,0,1,0-1.944l3.89-3.89a1.375,1.375,0,0,1,1.944,0l1.427,1.426a13.669,13.669,0,0,1,2.226-.923V5.375A1.375,1.375,0,0,1,17.75,4h5.5a1.375,1.375,0,0,1,1.375,1.375V7.391a13.669,13.669,0,0,1,2.226.924l1.427-1.427a1.375,1.375,0,0,1,1.944,0l3.89,3.89a1.375,1.375,0,0,1,0,1.944l-1.426,1.427a13.669,13.669,0,0,1,.923,2.226h2.016A1.375,1.375,0,0,1,37,17.75v5.5a1.375,1.375,0,0,1-1.375,1.375H33.609a13.669,13.669,0,0,1-.924,2.226l1.427,1.427a1.375,1.375,0,0,1,0,1.944l-3.89,3.89a1.375,1.375,0,0,1-1.944,0l-1.427-1.426a13.669,13.669,0,0,1-2.226.923v2.016A1.375,1.375,0,0,1,23.25,37Zm-4.125-2.75h2.75V32.559a1.375,1.375,0,0,1,1.07-1.342,10.886,10.886,0,0,0,3.4-1.412A1.375,1.375,0,0,1,28.051,30l1.2,1.2,1.944-1.944-1.2-1.2a1.375,1.375,0,0,1-.191-1.706,10.886,10.886,0,0,0,1.412-3.4,1.375,1.375,0,0,1,1.342-1.07H34.25v-2.75H32.559a1.375,1.375,0,0,1-1.342-1.07,10.886,10.886,0,0,0-1.412-3.4A1.375,1.375,0,0,1,30,12.949l1.2-1.2L29.25,9.805l-1.2,1.2a1.375,1.375,0,0,1-1.706.191,10.886,10.886,0,0,0-3.4-1.412,1.375,1.375,0,0,1-1.07-1.342V6.75h-2.75V8.441a1.375,1.375,0,0,1-1.07,1.342,10.886,10.886,0,0,0-3.4,1.412A1.375,1.375,0,0,1,12.948,11l-1.2-1.2L9.805,11.75l1.2,1.2a1.375,1.375,0,0,1,.191,1.706,10.886,10.886,0,0,0-1.412,3.4,1.375,1.375,0,0,1-1.342,1.07H6.75v2.75H8.441a1.375,1.375,0,0,1,1.342,1.07,10.886,10.886,0,0,0,1.412,3.4A1.375,1.375,0,0,1,11,28.052l-1.2,1.2,1.944,1.944,1.2-1.2a1.375,1.375,0,0,1,1.706-.191,10.886,10.886,0,0,0,3.4,1.412,1.375,1.375,0,0,1,1.07,1.342Z" transform="translate(1.5 1.5)" fill="#fff"/>
  <path id="Path_2408" data-name="Path 2408" d="M17.875,24.75a6.875,6.875,0,1,1,6.875-6.875,6.875,6.875,0,0,1-6.875,6.875Zm0-11A4.125,4.125,0,1,0,22,17.875,4.125,4.125,0,0,0,17.875,13.75Z" transform="translate(4.125 4.125)" fill="#fff"/>
  <path id="Path_2409" data-name="Path 2409" d="M17.75,46.25H15v-5.5a1.375,1.375,0,0,1,1.375-1.375h2.016a13.668,13.668,0,0,1,.924-2.226l-1.427-1.427a1.375,1.375,0,0,1,0-1.944l3.89-3.89a1.375,1.375,0,0,1,1.944,0l1.427,1.426a13.669,13.669,0,0,1,2.226-.923V28.375A1.375,1.375,0,0,1,28.75,27h5.5v2.75H30.125v1.691a1.375,1.375,0,0,1-1.07,1.342,10.886,10.886,0,0,0-3.4,1.412A1.375,1.375,0,0,1,23.949,34l-1.2-1.2L20.805,34.75l1.2,1.2a1.375,1.375,0,0,1,.191,1.706,10.886,10.886,0,0,0-1.412,3.4,1.375,1.375,0,0,1-1.342,1.07H17.75Z" transform="translate(5.625 10.125)" fill="#fff"/>
  <path id="Path_2410" data-name="Path 2410" d="M24.75,40.875H22A6.883,6.883,0,0,1,28.875,34v2.75A4.125,4.125,0,0,0,24.75,40.875Z" transform="translate(8.25 12.75)" fill="#fff"/>
  <path id="Path_2411" data-name="Path 2411" d="M49.125,58.25A15.125,15.125,0,1,1,64.25,43.125,15.125,15.125,0,0,1,49.125,58.25Zm0-27.5A12.375,12.375,0,1,0,61.5,43.125,12.375,12.375,0,0,0,49.125,30.75Z" transform="translate(12.75 10.5)" fill="#fff"/>
  <path id="Path_2412" data-name="Path 2412" d="M45.25,51.25a1.375,1.375,0,0,1-.972-.4L37.4,43.972a1.375,1.375,0,0,1,0-1.944L41.528,37.9a1.375,1.375,0,0,1,1.944,0l1.778,1.778L52.528,32.4a1.375,1.375,0,0,1,1.944,0L58.6,36.528a1.375,1.375,0,0,1,0,1.944L46.222,50.847A1.375,1.375,0,0,1,45.25,51.25ZM40.319,43l4.931,4.931L55.681,37.5,53.5,35.319,46.222,42.6a1.375,1.375,0,0,1-1.944,0L42.5,40.819Z" transform="translate(13.875 12)" fill="#fff"/>
  <path id="Path_2413" data-name="Path 2413" d="M57,4h2.75V6.75H57Z" transform="translate(21.375 1.5)" fill="#fff"/>
  <path id="Path_2414" data-name="Path 2414" d="M42,4H59.875V6.75H42Z" transform="translate(15.75 1.5)" fill="#fff"/>
</svg>
