<svg xmlns="http://www.w3.org/2000/svg" width="83.338" height="80.013" viewBox="0 0 83.338 80.013">
  <g id="Group_35187" data-name="Group 35187" transform="translate(13.996)">
    <path id="Path_2388" data-name="Path 2388" d="M78.082,47.206,74.41,45.739A23.143,23.143,0,0,0,72.276,40.6l1.551-3.634a2.844,2.844,0,0,0-.427-2.994A27.594,27.594,0,0,0,70.029,30.6a2.84,2.84,0,0,0-2.991-.429L63.4,31.727a23.277,23.277,0,0,0-5.134-2.134L56.8,25.923A2.927,2.927,0,0,0,56,24.83V10.668C56,3.734,41.575,0,28,0S0,3.734,0,10.668V58.674c0,6.934,14.427,10.668,28,10.668.733,0,1.442-.025,2.156-.044a2.75,2.75,0,0,0,.445.743,27.784,27.784,0,0,0,3.371,3.372,2.844,2.844,0,0,0,2.991.429L40.6,72.291a23.276,23.276,0,0,0,5.134,2.134l1.467,3.67A2.9,2.9,0,0,0,49.6,79.9c.831.075,1.663.111,2.472.111a23.362,23.362,0,0,0,2.336-.111,2.906,2.906,0,0,0,2.4-1.811l1.467-3.667a23.277,23.277,0,0,0,5.134-2.134l3.632,1.551a2.85,2.85,0,0,0,2.994-.429,27.68,27.68,0,0,0,3.371-3.371,2.842,2.842,0,0,0,.428-2.99l-1.552-3.638a23.143,23.143,0,0,0,2.123-5.139l3.674-1.467a2.9,2.9,0,0,0,1.8-2.387,24.378,24.378,0,0,0,0-4.822A2.906,2.906,0,0,0,78.082,47.206ZM28,2.667c14.935,0,25.337,4.217,25.337,8s-10.4,8-25.337,8-25.337-4.217-25.337-8S13.068,2.667,28,2.667ZM2.667,15.417C7.456,19.288,17.96,21.336,28,21.336s20.548-2.048,25.337-5.919v8.649a25.259,25.259,0,0,0-3.734.048,2.906,2.906,0,0,0-2.4,1.811l-1.467,3.667a23.276,23.276,0,0,0-5.134,2.134l-3.632-1.551a2.838,2.838,0,0,0-3,.429,27.848,27.848,0,0,0-3.37,3.371,2.748,2.748,0,0,0-.409.645c-.728.021-1.455.051-2.195.051-14.935,0-25.337-4.217-25.337-8Zm0,16C7.456,35.29,17.96,37.338,28,37.338c.779,0,1.544-.031,2.31-.056L31.729,40.6A23.143,23.143,0,0,0,29.6,45.739L25.93,47.206a2.9,2.9,0,0,0-1.8,2.387c-.032.32-.029.643-.048.964-12.86-.684-21.413-4.539-21.413-7.885Zm27.69,35.2c-.777.027-1.554.052-2.354.052-14.935,0-25.337-4.217-25.337-8V47.331c3.483,2.919,10.48,5.355,21.4,5.889.02.4.02.8.06,1.2a2.9,2.9,0,0,0,1.808,2.4L29.6,58.287a23.143,23.143,0,0,0,2.134,5.135ZM77.235,54.168a.239.239,0,0,1-.143.163L72.8,56.044a1.333,1.333,0,0,0-.8.919,20.5,20.5,0,0,1-2.35,5.663,1.334,1.334,0,0,0-.084,1.212L71.384,68.1a.208.208,0,0,1-.016.223A25.2,25.2,0,0,1,68.3,71.386a.211.211,0,0,1-.211,0l-4.251-1.815a1.333,1.333,0,0,0-1.211.084,20.489,20.489,0,0,1-5.661,2.354,1.334,1.334,0,0,0-.919.8L54.336,77.1a.231.231,0,0,1-.177.149,23.586,23.586,0,0,1-4.319,0,.229.229,0,0,1-.161-.145l-1.714-4.291a1.334,1.334,0,0,0-.919-.8,20.49,20.49,0,0,1-5.663-2.35,1.333,1.333,0,0,0-1.211-.084l-4.254,1.816a.2.2,0,0,1-.225-.02,25.179,25.179,0,0,1-3.06-3.067.209.209,0,0,1,0-.209l1.815-4.254a1.334,1.334,0,0,0-.084-1.212,20.5,20.5,0,0,1-2.35-5.663,1.334,1.334,0,0,0-.8-.919l-4.285-1.711a.243.243,0,0,1-.149-.165v-.015a21.744,21.744,0,0,1,0-4.319.239.239,0,0,1,.143-.163l4.291-1.714a1.333,1.333,0,0,0,.8-.919,20.5,20.5,0,0,1,2.35-5.663,1.334,1.334,0,0,0,.084-1.212L32.63,35.911a.208.208,0,0,1,.016-.223,25.4,25.4,0,0,1,3.067-3.067.213.213,0,0,1,.211,0l4.251,1.815a1.323,1.323,0,0,0,1.211-.084A20.489,20.489,0,0,1,47.046,32a1.334,1.334,0,0,0,.919-.8l1.712-4.287a.231.231,0,0,1,.177-.149,23.349,23.349,0,0,1,4.319,0,.229.229,0,0,1,.161.145L56.049,31.2a1.334,1.334,0,0,0,.919.8,20.489,20.489,0,0,1,5.663,2.35,1.323,1.323,0,0,0,1.211.084L68.1,32.622a.205.205,0,0,1,.225.02,25.082,25.082,0,0,1,3.067,3.067.209.209,0,0,1,0,.209l-1.815,4.254a1.334,1.334,0,0,0,.084,1.212,20.5,20.5,0,0,1,2.35,5.663,1.333,1.333,0,0,0,.8.919l4.285,1.711a.241.241,0,0,1,.151.18,21.745,21.745,0,0,1-.007,4.317Z" transform="translate(-13.996 0)" fill="#fff"/>
    <path id="Path_2389" data-name="Path 2389" d="M43.336,26A17.336,17.336,0,1,0,60.671,43.336,17.336,17.336,0,0,0,43.336,26Zm0,32A14.669,14.669,0,1,1,58,43.336,14.669,14.669,0,0,1,43.336,58Z" transform="translate(8.671 8.671)" fill="#fff"/>
    <path id="Path_2390" data-name="Path 2390" d="M41.668,31A10.668,10.668,0,1,0,52.336,41.668,10.668,10.668,0,0,0,41.668,31Zm0,18.669a8,8,0,1,1,8-8A8,8,0,0,1,41.668,49.669Z" transform="translate(10.339 10.339)" fill="#fff"/>
    <path id="Path_2391" data-name="Path 2391" d="M4.768,19.742c.447.209.919.411,1.41.605a1.333,1.333,0,1,0,.979-2.481q-.659-.26-1.258-.541a1.334,1.334,0,1,0-1.131,2.416Z" transform="translate(1.334 5.736)" fill="#fff"/>
    <path id="Path_2392" data-name="Path 2392" d="M10.038,21.48q.673.159,1.374.3a1.274,1.274,0,0,0,.267.025,1.334,1.334,0,0,0,.267-2.64c-.44-.088-.871-.183-1.293-.28a1.334,1.334,0,1,0-.605,2.6Z" transform="translate(2.995 6.283)" fill="#fff"/>
  </g>
</svg>
