<svg xmlns="http://www.w3.org/2000/svg" width="98.201" height="87.879" viewBox="0 0 98.201 87.879">
  <g id="Group_35188" data-name="Group 35188" transform="translate(-180 -3438.68)">
    <g id="Group_35148" data-name="Group 35148" transform="translate(83.02 3438.68)">
      <g id="Group_35148-2" data-name="Group 35148" transform="translate(96.98 0)">
        <path id="Path_2357" data-name="Path 2357" d="M98.238,48.445A1.257,1.257,0,0,0,99.5,47.187V5.322A2.81,2.81,0,0,1,102.3,2.515h42.682a2.81,2.81,0,0,1,2.807,2.807v9.262a1.258,1.258,0,0,0,2.515,0V5.322A5.328,5.328,0,0,0,144.984,0H102.3A5.328,5.328,0,0,0,96.98,5.322V47.187A1.258,1.258,0,0,0,98.238,48.445Z" transform="translate(-96.98 0)" fill="#fff"/>
        <path id="Path_2358" data-name="Path 2358" d="M150.305,115.776a1.258,1.258,0,1,0-2.515,0V169.4H99.5V149.374a1.258,1.258,0,1,0-2.515,0v28.307a5.411,5.411,0,0,0,5.322,5.484H135.49a1.3,1.3,0,0,0,0-2.592H102.3a2.854,2.854,0,0,1-2.807-2.892v-5.686h48.3v5.686a2.854,2.854,0,0,1-2.807,2.892h-3.625a1.3,1.3,0,0,0,0,2.592h3.625a5.411,5.411,0,0,0,5.322-5.484Z" transform="translate(-96.98 -95.285)" fill="#fff"/>
        <path id="Path_2359" data-name="Path 2359" d="M231.681,291.432a4.9,4.9,0,1,0,4.9,4.9A4.9,4.9,0,0,0,231.681,291.432Zm0,7.283a2.384,2.384,0,1,1,2.384-2.384A2.387,2.387,0,0,1,231.681,298.715Z" transform="translate(-205.018 -241.262)" fill="#fff"/>
        <path id="Path_2360" data-name="Path 2360" d="M196.6,238.569a2.6,2.6,0,0,0,.341-3.076l-1.507-2.611a2.6,2.6,0,0,0-2.834-1.243l-2.852.64a.111.111,0,0,1-.087-.023,12.2,12.2,0,0,0-2.242-1.3.109.109,0,0,1-.062-.063l-.872-2.789a2.6,2.6,0,0,0-2.494-1.833h-3.015a2.6,2.6,0,0,0-2.494,1.833l-.872,2.789a.109.109,0,0,1-.063.063,12.213,12.213,0,0,0-2.242,1.3.109.109,0,0,1-.086.023l-2.853-.64a2.6,2.6,0,0,0-2.834,1.243l-1.507,2.611a2.6,2.6,0,0,0,.341,3.076l1.981,2.151a.11.11,0,0,1,.023.087,12.085,12.085,0,0,0,0,2.586.11.11,0,0,1-.023.086l-1.981,2.151a2.6,2.6,0,0,0-.341,3.076l1.507,2.611a2.6,2.6,0,0,0,2.834,1.243l2.852-.64a.112.112,0,0,1,.087.023,12.193,12.193,0,0,0,2.241,1.295.109.109,0,0,1,.063.063l.872,2.789a2.6,2.6,0,0,0,2.494,1.833h3.015a2.6,2.6,0,0,0,2.494-1.833l.872-2.789a.109.109,0,0,1,.062-.063,12.187,12.187,0,0,0,2.242-1.3.109.109,0,0,1,.086-.023l2.853.64a2.6,2.6,0,0,0,2.834-1.243l1.507-2.611a2.6,2.6,0,0,0-.341-3.076l-1.981-2.151a.11.11,0,0,1-.023-.087,12.082,12.082,0,0,0,0-2.586.11.11,0,0,1,.023-.086Zm-4.5,2.5a9.57,9.57,0,0,1,0,2.051,2.623,2.623,0,0,0,.674,2.058l1.981,2.151a.1.1,0,0,1,.013.115l-1.508,2.611a.1.1,0,0,1-.106.046l-2.853-.64a2.622,2.622,0,0,0-2.119.446,9.673,9.673,0,0,1-1.779,1.027,2.622,2.622,0,0,0-1.443,1.611l-.872,2.789a.1.1,0,0,1-.093.068h-3.015a.1.1,0,0,1-.093-.068l-.872-2.789a2.623,2.623,0,0,0-1.444-1.612,9.679,9.679,0,0,1-1.778-1.027,2.634,2.634,0,0,0-1.553-.509,2.6,2.6,0,0,0-.567.063l-2.852.64a.1.1,0,0,1-.106-.046l-1.507-2.611a.1.1,0,0,1,.013-.115l1.981-2.151a2.624,2.624,0,0,0,.674-2.058,9.572,9.572,0,0,1,0-2.051,2.623,2.623,0,0,0-.674-2.058l-1.981-2.151a.1.1,0,0,1-.013-.115l1.508-2.611a.1.1,0,0,1,.106-.046l2.853.64a2.623,2.623,0,0,0,2.119-.446,9.683,9.683,0,0,1,1.778-1.027,2.622,2.622,0,0,0,1.444-1.612l.872-2.79a.1.1,0,0,1,.093-.068h3.015a.1.1,0,0,1,.093.068l.872,2.789a2.623,2.623,0,0,0,1.444,1.612,9.675,9.675,0,0,1,1.778,1.027,2.627,2.627,0,0,0,2.12.446l2.852-.64a.1.1,0,0,1,.106.046l1.507,2.611a.1.1,0,0,1-.013.115l-1.981,2.151a2.623,2.623,0,0,0-.674,2.058Z" transform="translate(-155.818 -186.913)" fill="#fff"/>
        <path id="Path_2361" data-name="Path 2361" d="M251.181,56.569h-6.473a1.258,1.258,0,1,0,0,2.515h6.473a1.258,1.258,0,1,0,0-2.515Z" transform="translate(-218.892 -47.084)" fill="#fff"/>
        <path id="Path_2362" data-name="Path 2362" d="M174,59.084h6.436a1.258,1.258,0,1,0,0-2.515H174a1.258,1.258,0,0,0,0,2.515Z" transform="translate(-160.036 -47.084)" fill="#fff"/>
        <path id="Path_2363" data-name="Path 2363" d="M174,91.41h14.586a1.258,1.258,0,0,0,0-2.515H174a1.258,1.258,0,0,0,0,2.515Z" transform="translate(-160.036 -73.626)" fill="#fff"/>
        <path id="Path_2364" data-name="Path 2364" d="M292.058,90.153a1.257,1.257,0,0,0,1.258,1.258h5.4a1.258,1.258,0,1,0,0-2.515h-5.4A1.257,1.257,0,0,0,292.058,90.153Z" transform="translate(-259.349 -73.626)" fill="#fff"/>
        <path id="Path_2365" data-name="Path 2365" d="M174,123.735h6.1a1.258,1.258,0,1,0,0-2.515H174a1.258,1.258,0,0,0,0,2.515Z" transform="translate(-160.036 -100.399)" fill="#fff"/>
        <path id="Path_2366" data-name="Path 2366" d="M245.756,121.22h-3.069a1.258,1.258,0,0,0,0,2.515h3.069a1.258,1.258,0,1,0,0-2.515Z" transform="translate(-217.209 -100.399)" fill="#fff"/>
        <path id="Path_2367" data-name="Path 2367" d="M298.614,121.22h-5.42a1.258,1.258,0,1,0,0,2.515h5.42a1.258,1.258,0,0,0,0-2.515Z" transform="translate(-259.249 -100.399)" fill="#fff"/>
        <path id="Path_2368" data-name="Path 2368" d="M174,156.06h14.586a1.258,1.258,0,0,0,0-2.515H174a1.258,1.258,0,0,0,0,2.515Z" transform="translate(-160.036 -127.172)" fill="#fff"/>
        <path id="Path_2369" data-name="Path 2369" d="M298.7,153.545h-5.381a1.258,1.258,0,0,0,0,2.515H298.7a1.258,1.258,0,0,0,0-2.515Z" transform="translate(-259.349 -127.172)" fill="#fff"/>
        <path id="Path_2370" data-name="Path 2370" d="M174,188.385h2.541a1.258,1.258,0,0,0,0-2.515H174a1.258,1.258,0,0,0,0,2.515Z" transform="translate(-160.036 -153.945)" fill="#fff"/>
        <path id="Path_2371" data-name="Path 2371" d="M238.9,185.87H221.473a1.258,1.258,0,1,0,0,2.515H238.9a1.258,1.258,0,1,0,0-2.515Z" transform="translate(-199.552 -153.945)" fill="#fff"/>
        <path id="Path_2372" data-name="Path 2372" d="M317.094,59.084a1.258,1.258,0,1,0,0-2.515h-1.675a1.258,1.258,0,0,0,0,2.515Z" transform="translate(-277.746 -47.084)" fill="#fff"/>
        <path id="Path_2373" data-name="Path 2373" d="M137.188,32.456a1.257,1.257,0,0,0-1.687.562l-1.016,2.032a1.257,1.257,0,0,0,0,1.125l1.016,2.032a1.258,1.258,0,0,0,2.249-1.125l-.735-1.47.735-1.47A1.258,1.258,0,0,0,137.188,32.456Z" transform="translate(-128.086 -26.903)" fill="#fff"/>
        <path id="Path_2374" data-name="Path 2374" d="M357.281,168.073a1.257,1.257,0,0,0,1.687-.562l1.016-2.033a1.257,1.257,0,0,0,0-1.125l-1.016-2.033a1.257,1.257,0,0,0-2.249,1.125l.735,1.47-.735,1.47A1.258,1.258,0,0,0,357.281,168.073Z" transform="translate(-313.057 -133.831)" fill="#fff"/>
      </g>
    </g>
    <path id="Path_2393" data-name="Path 2393" d="M67.07,81.914A1.312,1.312,0,1,1,68.387,80.6,1.314,1.314,0,0,1,67.07,81.914Zm0-42.78a1.312,1.312,0,1,1-1.311,1.312A1.318,1.318,0,0,1,67.07,39.134Zm0,38.775a2.676,2.676,0,0,0-1.917.808l-8.575-4.875V47.205l8.575-4.874a2.687,2.687,0,1,0-.687-1.2L55.548,46.2a.693.693,0,0,0-.35.6V74.244a.691.691,0,0,0,.35.6l8.919,5.072a2.692,2.692,0,1,0,2.6-2.007Zm18.047,4A1.312,1.312,0,1,1,86.428,80.6,1.314,1.314,0,0,1,85.117,81.914Zm0-40.156a1.312,1.312,0,1,1,1.311-1.312A1.313,1.313,0,0,1,85.117,41.758ZM96.64,46.2l-8.919-5.072a2.692,2.692,0,1,0-.682,1.2l8.575,4.874V73.842L87.04,78.717a2.692,2.692,0,1,0,.682,1.2l8.919-5.072a.684.684,0,0,0,.355-.6V46.8A.686.686,0,0,0,96.64,46.2Zm-20.546,28L62.352,67.413l5.418-2.675L75.791,68.7a.691.691,0,0,0,.612,0l8.016-3.962,5.418,2.675ZM62.352,60.524l5.418-2.675,8.022,3.961a.688.688,0,0,0,.612,0l8.016-3.961,5.418,2.675L76.094,67.312Zm0-6.89,13.742-6.788,13.742,6.788L76.094,60.422ZM92.085,67.413a.7.7,0,0,1-.384.619L76.4,75.59a.694.694,0,0,1-.612,0l-15.3-7.557a.691.691,0,0,1,0-1.237l5.721-2.826-5.721-2.826a.692.692,0,0,1,0-1.238l5.721-2.826-5.721-2.826a.69.69,0,0,1,0-1.236l15.3-7.558a.689.689,0,0,1,.612,0l15.3,7.558a.69.69,0,0,1,0,1.236l-5.721,2.826L91.7,59.9a.692.692,0,0,1,0,1.238l-5.721,2.826L91.7,66.795a.694.694,0,0,1,.384.618Z" transform="translate(180.705 3422.095)" fill="#fff" stroke="#fff" stroke-width="1" fill-rule="evenodd"/>
  </g>
</svg>
