<svg xmlns="http://www.w3.org/2000/svg" xmlns:xlink="http://www.w3.org/1999/xlink" width="108" height="108" viewBox="0 0 108 108">
  <defs>
    <linearGradient id="linear-gradient" x1="0.5" x2="0.5" y2="1" gradientUnits="objectBoundingBox">
      <stop offset="0" stop-color="#026888"/>
      <stop offset="1" stop-color="#440370"/>
    </linearGradient>
  </defs>
  <g id="Group_34871" data-name="Group 34871" transform="translate(-1604 -6869)">
    <circle id="Ellipse_1" data-name="Ellipse 1" cx="54" cy="54" r="54" transform="translate(1604 6869)" fill="url(#linear-gradient)"/>
    <g id="Layer_4" transform="translate(1621 6885.9)">
      <path id="Path_620" data-name="Path 620" d="M68.4,35.6,54.6,21.7a1.98,1.98,0,1,0-2.8,2.8L62.2,35H7a2,2,0,0,0,0,4H62.2L51.7,49.4a1.933,1.933,0,0,0,0,2.8,1.933,1.933,0,0,0,2.8,0L68.3,38.3a1.748,1.748,0,0,0,.1-2.7Z" fill="#fff"/>
    </g>
  </g>
</svg>
