<svg xmlns="http://www.w3.org/2000/svg" xmlns:xlink="http://www.w3.org/1999/xlink" width="84" height="84" viewBox="0 0 84 84">
  <defs>
    <linearGradient id="linear-gradient" x1="0.5" x2="0.5" y2="1" gradientUnits="objectBoundingBox">
      <stop offset="0" stop-color="#440370"/>
      <stop offset="1" stop-color="#026888"/>
    </linearGradient>
  </defs>
  <g id="Group_37680" data-name="Group 37680" transform="translate(-262 -2495)">
    <g id="Rectangle_16472" data-name="Rectangle 16472" transform="translate(262 2495)" stroke="#fff" stroke-width="1" fill="url(#linear-gradient)">
      <rect width="84" height="84" rx="6" stroke="none"/>
      <rect x="0.5" y="0.5" width="83" height="83" rx="5.5" fill="none"/>
    </g>
    <g id="Layer_x0020_1" transform="translate(131 2364)">
      <path id="Path_51465" data-name="Path 51465" d="M170.135,180.859a4.458,4.458,0,1,1,4.458-4.458A4.448,4.448,0,0,1,170.135,180.859Zm24.46,6.085h-10.3c-.241.331-.512.633-.753.964l1.627,1.627a3.1,3.1,0,0,1,3.735.482l3.1,3.1a3.1,3.1,0,0,1-2.2,5.272,3.15,3.15,0,0,1-2.2-.9l-3.073-3.073a3.117,3.117,0,0,1-.512-3.735l-1.6-1.627a17.636,17.636,0,0,1-26.449-2.109H150.8a3.819,3.819,0,0,1-3.8-3.8V150.8a3.819,3.819,0,0,1,3.8-3.8h43.8a3.819,3.819,0,0,1,3.8,3.8v32.353A3.818,3.818,0,0,1,194.6,186.944Zm-11.688-20.183c-4.91-6.3-14.218-9.158-22.2-3.344a16.039,16.039,0,1,0,22.533,22.231C187.245,179.594,187.516,172.665,182.908,166.761Zm2.44,18.586H194.6a2.211,2.211,0,0,0,2.2-2.2v-26.9H148.6v26.9a2.211,2.211,0,0,0,2.2,2.2h4.127a17.65,17.65,0,1,1,30.425,0ZM148.6,154.621h48.2V150.8a2.211,2.211,0,0,0-2.2-2.2H150.8a2.211,2.211,0,0,0-2.2,2.2Zm5.6-2.2h-2.561a.814.814,0,0,1-.03-1.627h2.561A.814.814,0,0,1,154.2,152.422Zm6.236,0h-2.591a.814.814,0,0,1,0-1.627h2.591A.814.814,0,0,1,160.435,152.422Zm9.7,37.926A13.947,13.947,0,1,1,184.082,176.4,13.936,13.936,0,0,1,170.135,190.348Zm0-26.3A12.352,12.352,0,1,0,182.486,176.4,12.371,12.371,0,0,0,170.135,164.05Zm16.6,26.69a1.483,1.483,0,0,0-1.054,2.53l3.073,3.1a1.491,1.491,0,0,0,2.109-2.109l-3.073-3.1A1.56,1.56,0,0,0,186.733,190.74Zm6.567-30.395h-8.8a.8.8,0,0,1,0-1.6h8.8A.8.8,0,0,1,193.3,160.345Zm0,3.494h-5.272a.8.8,0,1,1,0-1.6H193.3A.8.8,0,0,1,193.3,163.839Zm-21.418,22.2h-3.494a2.186,2.186,0,0,1-2.169-2.2v-.633l-.572.331a2.177,2.177,0,0,1-2.982-.813l-1.747-3.012a2.177,2.177,0,0,1,.813-2.982l.542-.331c-.723-.422-1.325-.693-1.566-1.657a2.263,2.263,0,0,1,.211-1.657l1.747-3.012a2.184,2.184,0,0,1,2.982-.813l.572.331v-.663a2.186,2.186,0,0,1,2.2-2.169h3.464a2.186,2.186,0,0,1,2.2,2.169v.663a2.594,2.594,0,0,1,2.2-.542,2.214,2.214,0,0,1,1.356,1.024l1.717,3.012a2.194,2.194,0,0,1-.783,2.982L178,176.4c.723.422,1.325.693,1.6,1.657a2.154,2.154,0,0,1-.241,1.657l-1.717,3.012a2.2,2.2,0,0,1-3.012.783l-.542-.3v.633A2.211,2.211,0,0,1,171.882,186.04Zm-5.332-4.76c.3,0,1.265.392,1.265,1.054,0,.994-.211,2.109.572,2.109h3.494c1.235,0-.03-2.289.994-2.832,1.084-.542.723-.512,2.561.542a.582.582,0,0,0,.783-.211l1.747-3.042c.6-1.054-1.988-1.115-1.928-2.259.03-1.175-.181-.874,1.717-1.958a.582.582,0,0,0,.211-.783l-1.747-3.042c-.6-1.054-1.958,1.175-2.952.542-.994-.6-.813-.392-.813-2.44a.6.6,0,0,0-.572-.6h-3.494c-1.235,0,.03,2.259-.994,2.832-1.054.542-.753.512-2.561-.512a.557.557,0,0,0-.783.211L162.3,173.9c-.6,1.054,1.988,1.115,1.928,2.259-.03,1.145.181.874-1.717,1.958a.582.582,0,0,0-.211.783c2.38,4.006,1.6,3.765,3.856,2.47A.927.927,0,0,1,166.55,181.281Zm3.585-7.742A2.862,2.862,0,1,0,173,176.4,2.88,2.88,0,0,0,170.135,173.539Z" fill="#fff" fill-rule="evenodd"/>
    </g>
  </g>
</svg>
