<svg xmlns="http://www.w3.org/2000/svg" xmlns:xlink="http://www.w3.org/1999/xlink" width="84" height="84" viewBox="0 0 84 84">
  <defs>
    <linearGradient id="linear-gradient" x1="0.5" x2="0.5" y2="1" gradientUnits="objectBoundingBox">
      <stop offset="0" stop-color="#440370"/>
      <stop offset="1" stop-color="#026888"/>
    </linearGradient>
  </defs>
  <g id="Group_37680" data-name="Group 37680" transform="translate(-262 -2495)">
    <g id="Rectangle_16472" data-name="Rectangle 16472" transform="translate(262 2495)" stroke="#fff" stroke-width="1" fill="url(#linear-gradient)">
      <rect width="84" height="84" rx="6" stroke="none"/>
      <rect x="0.5" y="0.5" width="83" height="83" rx="5.5" fill="none"/>
    </g>
    <g id="Group_37932" data-name="Group 37932" transform="translate(275.256 2510)">
      <path id="Path_51435" data-name="Path 51435" d="M52.559,9.492a4.168,4.168,0,0,0-3.13-3.129A4.167,4.167,0,0,0,46.3,3.233,4.163,4.163,0,0,0,42.25,0H23.58a4.959,4.959,0,0,0-3.53,1.462l-.024.025L13.211,8.3a4.967,4.967,0,0,0-1.462,3.532V27.568A12.656,12.656,0,0,0,12.423,39.8L11.1,41.118a2.642,2.642,0,0,0-2.725.626L2.517,47.6a2.64,2.64,0,0,0,0,3.734l2.31,2.31a2.643,2.643,0,0,0,3.733,0l2.76-2.759a.8.8,0,0,0-1.127-1.128L7.433,52.52a1.047,1.047,0,0,1-1.479,0l-2.31-2.31a1.046,1.046,0,0,1,0-1.479L9.5,42.872a1.048,1.048,0,0,1,1.48,0l2.309,2.309a1.048,1.048,0,0,1,0,1.48l-.845.845a.8.8,0,0,0,1.127,1.127l.845-.845a2.641,2.641,0,0,0,.626-2.725l1.322-1.322A12.54,12.54,0,0,0,20.446,45.4a4.121,4.121,0,0,0,.8.269A4.164,4.164,0,0,0,25.292,48.9H51.639a4.159,4.159,0,0,0,4.154-4.155v-31.2a4.163,4.163,0,0,0-3.234-4.05ZM46.4,35.355V4.94a2.567,2.567,0,0,1,1.53,2.182c0,.049.005.1.005.163v31.2a2.562,2.562,0,0,1-2.559,2.559H32.858a12.532,12.532,0,0,0,1.074-1.535H42.25A4.159,4.159,0,0,0,46.4,35.355ZM21.1,2.669a3.258,3.258,0,0,0-.053.584V6.736A2.562,2.562,0,0,1,18.486,9.3H15a3.256,3.256,0,0,0-.586.054Zm-7.756,9.9c0-.006,0-.012,0-.018A1.66,1.66,0,0,1,15,10.89h3.484A4.159,4.159,0,0,0,22.64,6.736V3.252A1.66,1.66,0,0,1,24.3,1.594H42.25a2.564,2.564,0,0,1,2.554,2.4c0,.049.005.1.005.162v31.2a2.563,2.563,0,0,1-2.559,2.561H34.729A12.606,12.606,0,0,0,14.175,24.161q-.443.443-.832.918ZM15.3,25.288a11.012,11.012,0,1,1,0,15.574,10.977,10.977,0,0,1,0-15.574ZM14.111,43.744,12.42,42.054l.95-.95q.378.457.805.886t.886.8Zm40.087,1A2.563,2.563,0,0,1,51.639,47.3H25.292a2.567,2.567,0,0,1-2.346-1.536H48.508a4.159,4.159,0,0,0,4.155-4.154V18.572a.8.8,0,1,0-1.594,0V41.615a2.563,2.563,0,0,1-2.561,2.559H29.068A12.528,12.528,0,0,0,31.3,42.64H45.379a4.159,4.159,0,0,0,4.154-4.154V8.068a2.566,2.566,0,0,1,1.536,2.346V15.39a.8.8,0,1,0,1.594,0V11.2A2.566,2.566,0,0,1,54.2,13.542v31.2Z" fill="#fff"/>
      <path id="Path_51436" data-name="Path 51436" d="M125.7,243.423a9.146,9.146,0,1,0-6.467-2.679A9.086,9.086,0,0,0,125.7,243.423Zm-5.34-14.486a7.552,7.552,0,1,1,0,10.679A7.5,7.5,0,0,1,120.361,228.937Z" transform="translate(-102.611 -201.202)" fill="#fff"/>
      <path id="Path_51437" data-name="Path 51437" d="M135.812,121.983a.8.8,0,0,0,1.029-.461l.3-.788h2.1l.3.786a.8.8,0,1,0,1.492-.563l-1.972-5.227-.009-.022a.914.914,0,0,0-.848-.568h0a.914.914,0,0,0-.848.57l-.007.018-1.991,5.226a.8.8,0,0,0,.461,1.029Zm2.825-2.844h-.889l.446-1.172Z" transform="translate(-119.359 -102.902)" fill="#fff"/>
      <path id="Path_51438" data-name="Path 51438" d="M314.3,122.035a.8.8,0,0,0,.8-.8v-5.3a.8.8,0,0,0-1.594,0v5.3A.8.8,0,0,0,314.3,122.035Z" transform="translate(-278.625 -102.902)" fill="#fff"/>
      <path id="Path_51439" data-name="Path 51439" d="M255.575,121.241a.8.8,0,0,0,.8.794h0c.045,0,1.117,0,1.545-.012,1.669-.029,2.88-1.474,2.88-3.436,0-2.062-1.181-3.448-2.938-3.448h-1.5a.8.8,0,0,0-.8.8s0,2.039,0,2.643C255.568,119.319,255.575,121.241,255.575,121.241Zm2.288-4.507c1.247,0,1.344,1.419,1.344,1.853,0,.905-.406,1.826-1.314,1.842-.17,0-.451.005-.726.007,0-.616,0-1.431,0-1.855,0-.355,0-1.206,0-1.847Z" transform="translate(-226.841 -102.902)" fill="#fff"/>
      <path id="Path_51440" data-name="Path 51440" d="M197.158,121.63a2.574,2.574,0,0,0,1.405.4h0a2.709,2.709,0,0,0,1.231-.286,2.383,2.383,0,0,0,1.438-2.169v-3.644a.8.8,0,0,0-1.594,0v3.644c0,.229-.067.5-.56.745a1.116,1.116,0,0,1-.514.115h0a.992.992,0,0,1-.549-.154c-.386-.247-.464-.452-.464-.7v-3.648a.8.8,0,1,0-1.594,0v3.648A2.342,2.342,0,0,0,197.158,121.63Z" transform="translate(-173.571 -102.902)" fill="#fff"/>
      <path id="Path_51441" data-name="Path 51441" d="M340.741,116.734h.661v4.5a.8.8,0,0,0,1.594,0v-4.5h.673a.8.8,0,1,0,0-1.594h-2.928a.8.8,0,1,0,0,1.594Z" transform="translate(-302.253 -102.902)" fill="#fff"/>
      <path id="Path_51442" data-name="Path 51442" d="M151.257,274.563q.09,0,.181-.007a2.481,2.481,0,0,0,1.984-1.257l3.724-6.594a2.486,2.486,0,1,0-4.33-2.445l-1.885,3.337-.533-.688a2.486,2.486,0,1,0-3.93,3.047l2.825,3.644A2.5,2.5,0,0,0,151.257,274.563Zm-3.371-6.835a.892.892,0,0,1,1.252.158l1.268,1.636a.8.8,0,0,0,1.324-.1l2.474-4.381a.892.892,0,0,1,1.554.877l-3.724,6.594a.892.892,0,0,1-1.482.108l-2.824-3.643A.893.893,0,0,1,147.886,267.728Z" transform="translate(-128.876 -235.043)" fill="#fff"/>
    </g>
  </g>
</svg>
