<svg xmlns="http://www.w3.org/2000/svg" xmlns:xlink="http://www.w3.org/1999/xlink" width="84" height="84" viewBox="0 0 84 84">
  <defs>
    <linearGradient id="linear-gradient" x1="0.5" x2="0.5" y2="1" gradientUnits="objectBoundingBox">
      <stop offset="0" stop-color="#440370"/>
      <stop offset="1" stop-color="#026888"/>
    </linearGradient>
  </defs>
  <g id="Group_37680" data-name="Group 37680" transform="translate(-262 -2495)">
    <g id="Rectangle_16472" data-name="Rectangle 16472" transform="translate(262 2495)" stroke="#fff" stroke-width="1" fill="url(#linear-gradient)">
      <rect width="84" height="84" rx="6" stroke="none"/>
      <rect x="0.5" y="0.5" width="83" height="83" rx="5.5" fill="none"/>
    </g>
    <path id="Path_51464" data-name="Path 51464" d="M10.462,47.4V14.115h0A3.238,3.238,0,0,1,13.7,10.877H50.852a3.238,3.238,0,0,1,3.237,3.238h0V32.046a12.194,12.194,0,0,1-.03,16.175l1.632,2.157a2.248,2.248,0,0,1,2.026.876l6.756,8.931a2.248,2.248,0,0,1-.436,3.142L62.1,64.8a2.249,2.249,0,0,1-3.142-.436L52.2,55.43a2.246,2.246,0,0,1-.292-2.188l-1.632-2.157a12.166,12.166,0,0,1-2.243.829v2.413a.78.78,0,0,1-.78.78h-4.6a.78.78,0,0,1-.78-.78V51.913a12.115,12.115,0,0,1-3.082-1.274H13.7A3.241,3.241,0,0,1,10.462,47.4ZM52.53,18.748V14.116h0a1.682,1.682,0,0,0-1.679-1.679H13.7a1.682,1.682,0,0,0-1.679,1.679h0v4.632ZM45.4,14.41a1.183,1.183,0,1,1-1.183,1.183A1.184,1.184,0,0,1,45.4,14.41Zm-3.471,0a1.183,1.183,0,1,1-1.183,1.183A1.184,1.184,0,0,1,41.93,14.41Zm6.942,0a1.183,1.183,0,1,1-1.183,1.183A1.184,1.184,0,0,1,48.873,14.41ZM52.53,30.564V20.307H12.021V47.4A1.682,1.682,0,0,0,13.7,49.08H36.687A12.193,12.193,0,0,1,52.53,30.564Zm-36.116,3.3a.78.78,0,1,1,0-1.559h7.93a.78.78,0,1,1,0,1.559Zm0-4.236a.78.78,0,0,1,0-1.559H32.276a.78.78,0,1,1,0,1.559Zm0-4.236a.78.78,0,0,1,0-1.559h7.93a.78.78,0,1,1,0,1.559ZM52.94,49.325a12.272,12.272,0,0,1-1.3.984l1.314,1.737,1.3-.984Zm-9.51-1.158v5.381h3.041V51.31c0-.009,0-.019,0-.028V48.165q0-.015,0-.031v-5.68a.78.78,0,0,1,.78-.78h1.486l-3.785-4.412-3.785,4.412h1.485a.78.78,0,0,1,.78.78v5.713Zm10.142,5.365a.686.686,0,0,0-.133.958L60.2,63.421h0a.685.685,0,0,0,.957.132l1.943-1.47a.686.686,0,0,0,.133-.958l-6.756-8.931a.685.685,0,0,0-.957-.134h0ZM48.03,47.037a7.574,7.574,0,1,0-6.159,0V43.234h-2.4a.779.779,0,0,1-.592-1.287l5.482-6.389a.78.78,0,0,1,1.183,0l5.482,6.389a.78.78,0,0,1-.592,1.287h-2.4Zm0,3.258a10.633,10.633,0,0,0,2.088-.886q.187-.1.369-.215a10.7,10.7,0,0,0,2-1.578q.1-.1.192-.2a10.639,10.639,0,1,0-10.809,2.877V48.719a9.143,9.143,0,1,1,6.159,0Z" transform="translate(266.538 2499.123)" fill="#fff" fill-rule="evenodd"/>
  </g>
</svg>
