<svg xmlns="http://www.w3.org/2000/svg" xmlns:xlink="http://www.w3.org/1999/xlink" width="84" height="84" viewBox="0 0 84 84">
  <defs>
    <linearGradient id="linear-gradient" x1="0.5" x2="0.5" y2="1" gradientUnits="objectBoundingBox">
      <stop offset="0" stop-color="#440370"/>
      <stop offset="1" stop-color="#026888"/>
    </linearGradient>
  </defs>
  <g id="Group_37680" data-name="Group 37680" transform="translate(-262 -2495)">
    <g id="Rectangle_16472" data-name="Rectangle 16472" transform="translate(262 2495)" stroke="#fff" stroke-width="1" fill="url(#linear-gradient)">
      <rect width="84" height="84" rx="6" stroke="none"/>
      <rect x="0.5" y="0.5" width="83" height="83" rx="5.5" fill="none"/>
    </g>
    <g id="Group_37935" data-name="Group 37935" transform="translate(269.531 2510)">
      <g id="Group_37936" data-name="Group 37936" transform="translate(8.469 0)">
        <g id="Group_37935-2" data-name="Group 37935" transform="translate(0 0)">
          <path id="Path_51466" data-name="Path 51466" d="M57.762,119.338H43.78a.9.9,0,0,0,0,1.792H57.762a.9.9,0,0,1,.9.9v4.481H44.274a.9.9,0,0,0,0,1.792H58.658v29.576a.9.9,0,0,1-.9.9h-46.6a.9.9,0,0,1-.9-.9V128.3H24.646a.9.9,0,1,0,0-1.792H10.261v-4.481a.9.9,0,0,1,.9-.9H25.139a.9.9,0,0,0,0-1.792H11.158a2.692,2.692,0,0,0-2.689,2.689v35.849a2.692,2.692,0,0,0,2.689,2.689h46.6a2.692,2.692,0,0,0,2.689-2.689V122.027A2.692,2.692,0,0,0,57.762,119.338Z" transform="translate(-8.469 -106.804)" fill="#fff"/>
          <path id="Path_51467" data-name="Path 51467" d="M42.862,153.826a.9.9,0,0,0,.636,1.532.9.9,0,1,0-.636-1.532Z" transform="translate(-39.017 -137.448)" fill="#fff"/>
          <path id="Path_51468" data-name="Path 51468" d="M76.995,153.826a.9.9,0,1,0,1.273,0A.941.941,0,0,0,76.995,153.826Z" transform="translate(-69.565 -137.448)" fill="#fff"/>
          <path id="Path_51469" data-name="Path 51469" d="M111.129,153.826a.941.941,0,0,0-.26.636.886.886,0,0,0,.26.627.9.9,0,0,0,.636.269.888.888,0,0,0,.9-.9.9.9,0,0,0-1.532-.636Z" transform="translate(-100.114 -137.448)" fill="#fff"/>
          <path id="Path_51470" data-name="Path 51470" d="M128.107,30.827a.9.9,0,0,0-.108.86l1.793,4.481a.9.9,0,0,0,1.333.41l5-3.374c.314.886.6,1.606.795,2.076l0,0a.9.9,0,0,0,.194.29.871.871,0,0,0,.133.09.886.886,0,0,0,.153.1.9.9,0,0,0,.342.069h.387l-1.144,2.288a.9.9,0,0,0,.8,1.3h7.17a.9.9,0,0,0,.8-1.3l-1.144-2.288h.118a.835.835,0,0,0,.13-.026.928.928,0,0,0,.134.027.9.9,0,0,0,.829-.555c.194-.47.481-1.19.795-2.076l5,3.374a.9.9,0,0,0,1.333-.41l1.792-4.481a.9.9,0,0,0-.108-.86l-5.492-7.55a29.139,29.139,0,0,0-.825-12A28.534,28.534,0,0,0,142.045.284a.925.925,0,0,0-1.333,0,28.53,28.53,0,0,0-6.289,10.994,29.138,29.138,0,0,0-.825,12Zm11.137,6.8.9-1.792h2.477l.9,1.792Zm9.514-11.854,4.151,5.707-1.2,2.99-4.479-3.02A46.1,46.1,0,0,0,148.758,25.774ZM136.142,11.786a26.428,26.428,0,0,1,5.236-9.538,26.439,26.439,0,0,1,5.236,9.538,27.387,27.387,0,0,1,.742,11.584c0,.016,0,.032-.007.049a45.88,45.88,0,0,1-2.4,9.163c-.2.569-.388,1.058-.548,1.462h-6.042c-.16-.4-.347-.893-.548-1.462a45.871,45.871,0,0,1-2.4-9.163c0-.016,0-.032-.007-.048A27.386,27.386,0,0,1,136.142,11.786Zm-.619,19.666-4.479,3.02-1.2-2.99L134,25.774A46.138,46.138,0,0,0,135.523,31.452Z" transform="translate(-115.388 0)" fill="#fff"/>
          <path id="Path_51471" data-name="Path 51471" d="M247.4,410.367v2.689a.9.9,0,1,0,1.792,0v-2.689a.9.9,0,1,0-1.792,0Z" transform="translate(-222.308 -366.466)" fill="#fff"/>
          <path id="Path_51472" data-name="Path 51472" d="M213.269,393.3v2.689a.9.9,0,0,0,1.792,0V393.3a.9.9,0,0,0-1.792,0Z" transform="translate(-191.759 -351.192)" fill="#fff"/>
          <path id="Path_51473" data-name="Path 51473" d="M282.432,392.4a.9.9,0,0,0-.9.9v2.689a.9.9,0,1,0,1.792,0V393.3A.9.9,0,0,0,282.432,392.4Z" transform="translate(-252.857 -351.191)" fill="#fff"/>
          <path id="Path_51474" data-name="Path 51474" d="M217.749,119.766a4.481,4.481,0,1,0-4.481-4.481A4.486,4.486,0,0,0,217.749,119.766Zm0-7.17a2.689,2.689,0,1,1-2.689,2.689A2.692,2.692,0,0,1,217.749,112.6Z" transform="translate(-191.759 -99.167)" fill="#fff"/>
        </g>
      </g>
    </g>
  </g>
</svg>
