<svg xmlns="http://www.w3.org/2000/svg" xmlns:xlink="http://www.w3.org/1999/xlink" width="84" height="84" viewBox="0 0 84 84">
  <defs>
    <linearGradient id="linear-gradient" x1="0.5" x2="0.5" y2="1" gradientUnits="objectBoundingBox">
      <stop offset="0" stop-color="#440370"/>
      <stop offset="1" stop-color="#026888"/>
    </linearGradient>
  </defs>
  <g id="Group_37680" data-name="Group 37680" transform="translate(-262 -2495)">
    <g id="Rectangle_16472" data-name="Rectangle 16472" transform="translate(262 2495)" stroke="#fff" stroke-width="1" fill="url(#linear-gradient)">
      <rect width="84" height="84" rx="6" stroke="none"/>
      <rect x="0.5" y="0.5" width="83" height="83" rx="5.5" fill="none"/>
    </g>
    <g id="Group_37937" data-name="Group 37937" transform="translate(274.22 2508.92)">
      <path id="Path_51475" data-name="Path 51475" d="M37.748,39.213c4.665-6.063,9.767-13.919,9.767-19.265a17.868,17.868,0,0,0-35.735,0c0,5.347,5.1,13.194,9.767,19.265-5.684,1.347-9.17,3.983-9.17,7.022,0,4.437,7.587,7.915,17.261,7.915S46.9,50.673,46.9,46.235c.008-3.048-3.469-5.684-9.153-7.022Zm-8.1-35.55A16.3,16.3,0,0,1,45.932,19.948c0,8.05-13.329,23.214-16.285,26.481-2.955-3.267-16.285-18.423-16.285-26.481A16.3,16.3,0,0,1,29.648,3.663ZM29.075,48.13a.785.785,0,0,0,.573.253.771.771,0,0,0,.573-.253c.2-.219,1.768-1.9,3.873-4.4,2.156.581,3.629,1.575,3.629,2.492,0,1.44-3.452,3.048-8.075,3.048s-8.075-1.608-8.075-3.048c0-.918,1.474-1.911,3.629-2.492C27.3,46.235,28.864,47.911,29.075,48.13Zm.573,4.437c-9.38,0-15.687-3.275-15.687-6.34,0-2.307,3.461-4.547,8.664-5.641q.758.947,1.465,1.819c-2.593.834-4.1,2.223-4.1,3.823,0,2.636,4.151,4.623,9.658,4.623s9.658-1.987,9.658-4.623c0-1.6-1.507-2.981-4.1-3.823.472-.573.96-1.187,1.465-1.819,5.2,1.095,8.664,3.326,8.664,5.641,0,3.065-6.307,6.34-15.687,6.34Z" transform="translate(0)" fill="#fff"/>
      <path id="Path_51476" data-name="Path 51476" d="M43.356,20.438A12.748,12.748,0,1,0,30.608,33.186,12.761,12.761,0,0,0,43.356,20.438Zm-23.922,0A11.174,11.174,0,1,1,30.608,31.6,11.188,11.188,0,0,1,19.435,20.438Z" transform="translate(-0.961 -0.886)" fill="#fff"/>
      <path id="Path_51477" data-name="Path 51477" d="M24.322,21.271a.859.859,0,0,1,0-1.718.852.852,0,0,1,.808.581.788.788,0,0,0,1.49-.514,2.435,2.435,0,1,0-2.307,3.216.859.859,0,1,1-.791,1.2.791.791,0,0,0-1.457.615,2.432,2.432,0,1,0,2.257-3.376Z" transform="translate(-1.596 -2.51)" fill="#fff"/>
      <path id="Path_51478" data-name="Path 51478" d="M33.988,25.346a.791.791,0,0,0-.791-.791H31.185V22.845H33.2a.791.791,0,0,0,0-1.583H31.185V19.553H33.2a.791.791,0,0,0,0-1.583H30.4a.791.791,0,0,0-.791.791v6.576a.791.791,0,0,0,.791.791h2.8a.778.778,0,0,0,.791-.783Z" transform="translate(-2.817 -2.51)" fill="#fff"/>
      <path id="Path_51479" data-name="Path 51479" d="M39.849,26.139a3.1,3.1,0,0,0,3.1-3.1V21.079a3.1,3.1,0,1,0-6.2,0v1.962A3.107,3.107,0,0,0,39.849,26.139Zm-1.516-5.061a1.516,1.516,0,0,1,3.031,0v1.962a1.516,1.516,0,0,1-3.031,0Z" transform="translate(-3.945 -2.512)" fill="#fff"/>
    </g>
  </g>
</svg>
