<svg xmlns="http://www.w3.org/2000/svg" xmlns:xlink="http://www.w3.org/1999/xlink" width="94" height="94" viewBox="0 0 94 94">
  <defs>
    <linearGradient id="linear-gradient" x1="0.5" x2="0.5" y2="1" gradientUnits="objectBoundingBox">
      <stop offset="0" stop-color="#026888"/>
      <stop offset="1" stop-color="#440370"/>
    </linearGradient>
  </defs>
  <g id="Group_34003" data-name="Group 34003" transform="translate(-353 -4829)">
    <g id="Ellipse_17" data-name="Ellipse 17" transform="translate(353 4829)" stroke="#67dbff" stroke-width="0.6" fill="url(#linear-gradient)">
      <circle cx="47" cy="47" r="47" stroke="none"/>
      <circle cx="47" cy="47" r="46.7" fill="none"/>
    </g>
    <g id="Group_37532" data-name="Group 37532" transform="translate(374.248 4824.648)">
      <path id="Path_51007" data-name="Path 51007" d="M47.587,74.823h25.2a.754.754,0,0,0,0-1.509h-25.2a.754.754,0,0,0,0,1.509Z" transform="translate(-42.122 -40.339)" fill="#67dbff"/>
      <path id="Path_51008" data-name="Path 51008" d="M50.75,58.645a.754.754,0,0,0,.754-.754V31.342a2.883,2.883,0,0,0-2.879-2.879H2.879A2.883,2.883,0,0,0,0,31.342V71.361a2.883,2.883,0,0,0,2.879,2.879H48.625A2.883,2.883,0,0,0,51.5,71.361V61.418a.754.754,0,0,0-1.509,0v9.943a1.372,1.372,0,0,1-1.37,1.37H2.879a1.372,1.372,0,0,1-1.37-1.37V39H3.492a.754.754,0,1,0,0-1.509H1.509V31.342a1.372,1.372,0,0,1,1.37-1.37H48.625A1.372,1.372,0,0,1,50,31.342v6.144H7.019a.754.754,0,1,0,0,1.509H50v18.9A.754.754,0,0,0,50.75,58.645Z" fill="#67dbff"/>
      <path id="Path_51009" data-name="Path 51009" d="M417.369,57.721a2.587,2.587,0,1,0-2.587,2.587A2.59,2.59,0,0,0,417.369,57.721Zm-3.664,0a1.078,1.078,0,1,1,1.078,1.078A1.079,1.079,0,0,1,413.7,57.721Z" transform="translate(-370.732 -23.988)" fill="#67dbff"/>
      <path id="Path_51010" data-name="Path 51010" d="M344.336,57.721a2.587,2.587,0,1,0-2.587,2.587A2.59,2.59,0,0,0,344.336,57.721Zm-3.664,0A1.078,1.078,0,1,1,341.75,58.8,1.079,1.079,0,0,1,340.672,57.721Z" transform="translate(-305.045 -23.988)" fill="#67dbff"/>
      <path id="Path_51011" data-name="Path 51011" d="M310.307,194.984H300.166v-.006a2.229,2.229,0,0,0-4.458,0v.006h-1.361a.754.754,0,0,0,0,1.509h1.363a2.229,2.229,0,0,0,4.454,0h10.143a.754.754,0,0,0,0-1.509Zm-11.65,1.43a.72.72,0,0,1-1.44,0v-1.436a.72.72,0,0,1,1.44,0Z" transform="translate(-264.059 -147.76)" fill="#67dbff"/>
      <path id="Path_51012" data-name="Path 51012" d="M310.307,272.106h-1.362a2.228,2.228,0,0,0-4.456,0H294.346a.754.754,0,0,0,0,1.509h10.142a2.228,2.228,0,0,0,4.456,0h1.362a.754.754,0,0,0,0-1.509Zm-2.87,1.472a.72.72,0,1,1-1.44,0v-1.436a.72.72,0,1,1,1.44,0Z" transform="translate(-264.059 -217.162)" fill="#67dbff"/>
      <path id="Path_51013" data-name="Path 51013" d="M310.307,348.845H300.165a2.228,2.228,0,0,0-4.456,0h-1.362a.754.754,0,0,0,0,1.509h1.362a2.228,2.228,0,0,0,4.456,0h10.142a.754.754,0,0,0,0-1.509Zm-11.65,1.472a.72.72,0,1,1-1.44,0v-1.436a.72.72,0,1,1,1.44,0Z" transform="translate(-264.059 -286.181)" fill="#67dbff"/>
      <path id="Path_51014" data-name="Path 51014" d="M101.649,244.139a5.518,5.518,0,1,0,5.518,5.518A5.525,5.525,0,0,0,101.649,244.139Zm0,9.528a4.009,4.009,0,1,1,4.009-4.009A4.014,4.014,0,0,1,101.649,253.667Z" transform="translate(-86.461 -193.98)" fill="#67dbff"/>
      <path id="Path_51015" data-name="Path 51015" d="M64.737,205.737a1.381,1.381,0,0,0,1.379-1.379v-1.841a1.38,1.38,0,0,0-1.379-1.379h-.45a9.094,9.094,0,0,0-.969-2.338l.318-.319a1.379,1.379,0,0,0,0-1.95l-1.3-1.3a1.381,1.381,0,0,0-1.95,0l-.319.318a9.092,9.092,0,0,0-2.338-.969v-.45a1.38,1.38,0,0,0-1.379-1.379H54.507a1.38,1.38,0,0,0-1.379,1.379v.45a9.1,9.1,0,0,0-2.339.969l-.318-.318a1.381,1.381,0,0,0-1.95,0l-1.3,1.3a1.379,1.379,0,0,0,0,1.95l.318.318a9.1,9.1,0,0,0-.969,2.339h-.45a1.38,1.38,0,0,0-1.379,1.379v1.841a1.381,1.381,0,0,0,1.379,1.379h.45a9.1,9.1,0,0,0,.969,2.339l-.318.318a1.379,1.379,0,0,0,0,1.95l1.3,1.3a1.381,1.381,0,0,0,1.95,0l.318-.318a9.1,9.1,0,0,0,2.339.969v.45a1.381,1.381,0,0,0,1.379,1.379h1.841a1.381,1.381,0,0,0,1.379-1.379v-.45a9.093,9.093,0,0,0,2.338-.969l.318.318a1.381,1.381,0,0,0,1.95,0l1.3-1.3a1.379,1.379,0,0,0,0-1.95l-.318-.319a9.1,9.1,0,0,0,.969-2.338Zm-1.89-.458a7.591,7.591,0,0,1-.87,2.1,1.379,1.379,0,0,0,.2,1.691l.3.3-1.118,1.118-.3-.3a1.379,1.379,0,0,0-1.691-.2,7.588,7.588,0,0,1-2.1.87,1.378,1.378,0,0,0-1.051,1.339v.421H54.637V212.2a1.378,1.378,0,0,0-1.051-1.339,7.592,7.592,0,0,1-2.1-.87,1.379,1.379,0,0,0-1.691.2l-.3.3-1.118-1.118.3-.3a1.379,1.379,0,0,0,.2-1.691,7.587,7.587,0,0,1-.87-2.1,1.378,1.378,0,0,0-1.339-1.051h-.421v-1.581h.421a1.378,1.378,0,0,0,1.339-1.051,7.589,7.589,0,0,1,.87-2.1,1.379,1.379,0,0,0-.2-1.691l-.3-.3,1.118-1.118.3.3a1.379,1.379,0,0,0,1.691.2,7.588,7.588,0,0,1,2.1-.87,1.379,1.379,0,0,0,1.051-1.339v-.421h1.581v.421a1.378,1.378,0,0,0,1.051,1.339,7.584,7.584,0,0,1,2.1.87,1.379,1.379,0,0,0,1.691-.2l.3-.3,1.118,1.118-.3.3a1.379,1.379,0,0,0-.2,1.691,7.589,7.589,0,0,1,.87,2.1,1.378,1.378,0,0,0,1.339,1.051h.421v1.581h-.421A1.378,1.378,0,0,0,62.846,205.279Z" transform="translate(-40.239 -147.761)" fill="#67dbff"/>
    </g>
  </g>
</svg>
