<svg xmlns="http://www.w3.org/2000/svg" width="72" height="72" viewBox="0 0 72 72">
  <g id="Group_37518" data-name="Group 37518" transform="translate(0)">
    <path id="Path_50976" data-name="Path 50976" d="M140.645,400h-2.323A2.325,2.325,0,0,0,136,402.323v4.645a2.325,2.325,0,0,0,2.323,2.323h2.323a4.645,4.645,0,0,0,0-9.29Zm0,6.968h-2.323v-4.645h2.323a2.323,2.323,0,1,1,0,4.645Z" transform="translate(-116.258 -341.935)" fill="#67dbff"/>
    <path id="Path_50977" data-name="Path 50977" d="M222.968,406.779a.188.188,0,0,1-.367.06l-1.707-5.122a2.511,2.511,0,0,0-4.893.794v6.779h2.323v-6.779a.188.188,0,0,1,.367-.06l1.707,5.122a2.511,2.511,0,0,0,4.893-.794V400h-2.323v6.779Z" transform="translate(-184.645 -341.935)" fill="#67dbff"/>
    <path id="Path_50978" data-name="Path 50978" d="M296,402.6a2.583,2.583,0,0,0,1.436,2.323l3.058,1.529a.274.274,0,0,1-.122.519H296v2.323h4.371a2.6,2.6,0,0,0,1.161-4.919l-3.058-1.529a.274.274,0,0,1,.122-.519h4.371V400H298.6A2.6,2.6,0,0,0,296,402.6Z" transform="translate(-253.032 -341.935)" fill="#67dbff"/>
    <path id="Path_50979" data-name="Path 50979" d="M67.2,57.12a10.6,10.6,0,0,0-4.492-6.563V22.546l2.574-2.574L63.947,17.3a.718.718,0,0,1,.642-1.039h2.766V9.29H64.589a.718.718,0,0,1-.642-1.039l1.337-2.675L61.778,2.071,59.1,3.408a.718.718,0,0,1-1.039-.642V0H51.1V2.766a.718.718,0,0,1-1.039.642L47.384,2.071,44.809,4.645h-33.2A2.325,2.325,0,0,0,9.29,6.968V50.556A10.6,10.6,0,0,0,4.8,57.12a6.378,6.378,0,0,0,1.58,12.558h5.532A6.368,6.368,0,0,0,16.83,72H52.847a6.368,6.368,0,0,0,4.919-2.323h7.855A6.378,6.378,0,0,0,67.2,57.12ZM56.821,48.774H54.434a18.543,18.543,0,0,0,0-4.645h1.306a2.325,2.325,0,0,0,2.323-2.323V22.782A.718.718,0,0,1,59.1,22.14l1.284.642V49.393a10.627,10.627,0,0,0-3.566-.619Zm-4.563-2.323a16.265,16.265,0,0,1-1.571,6.976,10.629,10.629,0,0,0-5.883-2.3,22.761,22.761,0,0,0,.007-9.32h6.769a16.211,16.211,0,0,1,.677,4.645Zm-1.571-6.968H44.2A22.79,22.79,0,0,0,39.65,31.44l-.884-1.01a16.309,16.309,0,0,1,11.921,9.054ZM36,30.8l1.9,2.174a20.465,20.465,0,0,1,3.843,6.514H30.255A20.47,20.47,0,0,1,34.1,32.969Zm-3.65.645A22.787,22.787,0,0,0,27.8,39.484H21.313A16.309,16.309,0,0,1,33.234,30.43ZM20.217,50.356a16.27,16.27,0,0,1,.2-8.55h6.769a22.8,22.8,0,0,0-.478,4.645c0,.144,0,.29.007.435a15.021,15.021,0,0,0-6.5,3.47ZM29.033,46.5c0-.017,0-.035,0-.052a20.468,20.468,0,0,1,.534-4.645H42.434a20.428,20.428,0,0,1,0,9.29H41.126l-.263-.263a14.866,14.866,0,0,0-10.58-4.382q-.63,0-1.25.052ZM40.645,28.459V20.9h4.164l2.574,2.574,2.674-1.337a.718.718,0,0,1,1.039.642v2.766h4.645V41.806H53.993A18.65,18.65,0,0,0,40.645,28.459ZM47.842,4.9l1.177.589a3.04,3.04,0,0,0,4.4-2.719V2.323h2.323v.444a3.04,3.04,0,0,0,4.4,2.719L61.319,4.9l1.139,1.139-.589,1.177a3.04,3.04,0,0,0,2.719,4.4h.444v2.323h-.444a3.04,3.04,0,0,0-2.719,4.4l.589,1.177-1.139,1.139-1.177-.589a3.04,3.04,0,0,0-4.4,2.72v.444H53.419v-.444a3.04,3.04,0,0,0-4.4-2.719l-1.177.589L46.7,19.513l.589-1.177a3.04,3.04,0,0,0-2.719-4.4h-.444V11.613h.444a3.04,3.04,0,0,0,2.719-4.4L46.7,6.036Zm-3.27,2.071.642,1.284a.718.718,0,0,1-.642,1.039H41.806v2.323H25.548V9.29H23.226v2.323H20.9V9.29H18.581v2.323H16.258V9.29H13.936v2.323H11.613V6.968Zm-32.96,6.968H41.806v2.323h2.766a.718.718,0,0,1,.642,1.039l-.642,1.284H40.645A2.325,2.325,0,0,0,38.323,20.9v7.113A18.589,18.589,0,0,0,17.564,48.774H15.179a10.626,10.626,0,0,0-3.566.619ZM6.378,67.355a4.056,4.056,0,0,1-.984-7.99L6.846,59l.11-.773A8.347,8.347,0,0,1,15.179,51.1h2.826q.164.638.375,1.264a14.881,14.881,0,0,0-2.532,5.117l-.531,1.948-.034.009a6.373,6.373,0,0,0-4.59,7.921Zm46.469,2.323H16.83a4.056,4.056,0,0,1-.984-7.99l1.353-.338.889-3.26a12.64,12.64,0,0,1,21.132-5.612l.943.943h3.882a8.348,8.348,0,0,1,8.223,7.132l.11.773,1.451.363a4.056,4.056,0,0,1-.984,7.99Zm12.774-2.323H58.985a6.373,6.373,0,0,0-4.557-7.912,10.631,10.631,0,0,0-2.017-4.274A18.5,18.5,0,0,0,53.99,51.1h2.831a8.348,8.348,0,0,1,8.223,7.132l.11.773,1.451.363a4.056,4.056,0,0,1-.984,7.99Z" fill="#67dbff"/>
    <path id="Path_50980" data-name="Path 50980" d="M98.323,118.968h17.419a2.325,2.325,0,0,0,2.323-2.323v-2.323A2.325,2.325,0,0,0,115.742,112H98.323A2.325,2.325,0,0,0,96,114.323v2.323A2.325,2.325,0,0,0,98.323,118.968Zm0-4.645h17.419v2.323H98.323v-2.323Z" transform="translate(-82.064 -95.742)" fill="#67dbff"/>
    <path id="Path_50981" data-name="Path 50981" d="M96,176h11.613v2.323H96Z" transform="translate(-82.064 -150.452)" fill="#67dbff"/>
    <path id="Path_50982" data-name="Path 50982" d="M96,208h6.968v2.323H96Z" transform="translate(-82.064 -177.806)" fill="#67dbff"/>
    <path id="Path_50983" data-name="Path 50983" d="M96,240h4.645v2.323H96Z" transform="translate(-82.064 -205.161)" fill="#67dbff"/>
    <path id="Path_50984" data-name="Path 50984" d="M341.806,59.613A5.806,5.806,0,1,0,336,53.806,5.813,5.813,0,0,0,341.806,59.613Zm0-9.29a3.484,3.484,0,1,1-3.484,3.484A3.488,3.488,0,0,1,341.806,50.323Z" transform="translate(-287.226 -41.032)" fill="#67dbff"/>
  </g>
</svg>
