<svg xmlns="http://www.w3.org/2000/svg" xmlns:xlink="http://www.w3.org/1999/xlink" width="94" height="94" viewBox="0 0 94 94">
  <defs>
    <linearGradient id="linear-gradient" x1="0.5" x2="0.5" y2="1" gradientUnits="objectBoundingBox">
      <stop offset="0" stop-color="#026888"/>
      <stop offset="1" stop-color="#440370"/>
    </linearGradient>
  </defs>
  <g id="Group_34003" data-name="Group 34003" transform="translate(-353 -4829)">
    <g id="Ellipse_17" data-name="Ellipse 17" transform="translate(353 4829)" stroke="#67dbff" stroke-width="0.6" fill="url(#linear-gradient)">
      <circle cx="47" cy="47" r="47" stroke="none"/>
      <circle cx="47" cy="47" r="46.7" fill="none"/>
    </g>
    <g id="Line" transform="translate(373 4849.017)">
      <path id="Path_51004" data-name="Path 51004" d="M25.616,10A15.616,15.616,0,1,0,41.232,25.616,15.633,15.633,0,0,0,25.616,10Zm0,29A13.385,13.385,0,1,1,39,25.616,13.4,13.4,0,0,1,25.616,39Z" transform="translate(0.924 0.925)" fill="#67dbff"/>
      <path id="Path_51005" data-name="Path 51005" d="M30.712,19.327l-8.135,8.135L18.9,23.789a1.115,1.115,0,1,0-1.577,1.577l4.463,4.462a1.115,1.115,0,0,0,1.577,0L32.29,20.9a1.115,1.115,0,0,0-1.577-1.577Z" transform="translate(1.731 1.964)" fill="#67dbff"/>
      <path id="Path_51006" data-name="Path 51006" d="M48.7,22.913a1.145,1.145,0,0,1-.3-1.5c1.09-1.733,2.673-5.374-2.777-6.709a1.126,1.126,0,0,1-.849-1.268c.523-2.447-.21-6-5.136-5.136a1.122,1.122,0,0,1-1.268-.849c-.369-1.876-1.96-5.676-6.708-2.779a1.152,1.152,0,0,1-1.5-.3c-.737-1.393-3.967-4.606-7.262,0a1.174,1.174,0,0,1-1.5.3C19.25,3.126,15.758,2.739,14.7,7.452a1.131,1.131,0,0,1-1.269.848C11.544,7.941,7.4,8.059,8.3,13.435A1.107,1.107,0,0,1,7.453,14.7c-2.2.329-5.594,2.1-2.78,6.708a1.084,1.084,0,0,1-.3,1.5c-1.953.987-4.19,4.5,0,7.265a1.105,1.105,0,0,1,.3,1.479c-2.814,4.611.579,6.378,2.78,6.708A1.106,1.106,0,0,1,8.3,39.631c-.9,5.376,3.243,5.495,5.134,5.134a1.13,1.13,0,0,1,1.269.848c1.055,4.714,4.548,4.326,6.709,2.777a1.174,1.174,0,0,1,1.5.3c3.3,4.607,6.524,1.394,7.262,0a1.153,1.153,0,0,1,1.5-.3c4.748,2.9,6.339-.9,6.708-2.779a1.122,1.122,0,0,1,1.268-.849c4.926.866,5.658-2.688,5.136-5.136a1.125,1.125,0,0,1,.849-1.268c5.451-1.335,3.868-4.976,2.777-6.709a1.128,1.128,0,0,1,.3-1.495c1.457-1.007,4.607-3.833,0-7.241ZM47.111,34.027a1.158,1.158,0,0,1-.718,1.733c-1.582.522-4.5.951-3.719,5.568.148.878-.321,1.4-1.327,1.326-1.53-.117-4.682-.736-5.566,3.72a1.129,1.129,0,0,1-1.733.719c-3-1.516-4.2-1.71-6.567,1.306a1.252,1.252,0,0,1-1.877,0C24.333,46.954,22.9,44.73,19.035,47.1a1.159,1.159,0,0,1-1.733-.718c-.771-2.115-1-4.369-5.567-3.719a1.129,1.129,0,0,1-1.326-1.326c.24-1.816.515-4.732-3.721-5.568a1.173,1.173,0,0,1-.718-1.733c1.692-2.767,1.458-4.5-1.331-6.579A1.186,1.186,0,0,1,4.663,25.6c2.716-1.943,3-3.8,1.306-6.567A1.173,1.173,0,0,1,6.687,17.3c4.236-.837,3.961-3.752,3.721-5.568a1.13,1.13,0,0,1,1.326-1.326c4.569.649,4.8-1.6,5.567-3.719a1.158,1.158,0,0,1,1.733-.718c3.862,2.366,5.3.142,6.568-1.305a1.252,1.252,0,0,1,1.877,0c2.363,3.016,3.564,2.822,6.567,1.306a1.129,1.129,0,0,1,1.733.719c.885,4.456,4.036,3.837,5.566,3.72,1.007-.077,1.476.448,1.327,1.326-.777,4.618,2.137,5.046,3.719,5.568a1.158,1.158,0,0,1,.718,1.733c-2.481,3.984.141,5.568,1.306,6.568a1.2,1.2,0,0,1,.1,1.79c-1.393.964-3.892,2.647-1.411,6.631Z" transform="translate(0 0)" fill="#67dbff"/>
    </g>
  </g>
</svg>
