<svg id="Group_37519" data-name="Group 37519" xmlns="http://www.w3.org/2000/svg" width="72" height="72" viewBox="0 0 72 72">
  <g id="Group_37520" data-name="Group 37520">
    <g id="Group_37519-2" data-name="Group 37519">
      <path id="Path_50985" data-name="Path 50985" d="M45.067,34.133h-1.2a1.2,1.2,0,0,0,0,2.4h1.2a1.2,1.2,0,0,0,0-2.4Z" transform="translate(-36.667 -29.333)" fill="#67dbff"/>
      <path id="Path_50986" data-name="Path 50986" d="M87.734,34.133h-1.2a1.2,1.2,0,0,0,0,2.4h1.2a1.2,1.2,0,0,0,0-2.4Z" transform="translate(-73.334 -29.333)" fill="#67dbff"/>
      <path id="Path_50987" data-name="Path 50987" d="M130.4,34.133h-1.2a1.2,1.2,0,0,0,0,2.4h1.2a1.2,1.2,0,1,0,0-2.4Z" transform="translate(-110.001 -29.333)" fill="#67dbff"/>
      <path id="Path_50988" data-name="Path 50988" d="M204.267,34.133h-32.4a1.2,1.2,0,0,0,0,2.4h32.4a1.2,1.2,0,0,0,0-2.4Z" transform="translate(-146.667 -29.333)" fill="#67dbff"/>
      <path id="Path_50989" data-name="Path 50989" d="M69.6,43.2H68.4v-6a13.138,13.138,0,0,0-3.6-9.031V6a6.007,6.007,0,0,0-6-6H6A6.007,6.007,0,0,0,0,6V54a6.007,6.007,0,0,0,6,6H38.4v3.6A8.41,8.41,0,0,0,46.8,72H63.6A8.41,8.41,0,0,0,72,63.6v-18A2.4,2.4,0,0,0,69.6,43.2Zm-3.6-6v6H44.4v-6a10.8,10.8,0,0,1,21.6,0ZM2.4,6A3.6,3.6,0,0,1,6,2.4H58.8A3.6,3.6,0,0,1,62.4,6V9.6H2.4Zm36,39.6v12H6A3.6,3.6,0,0,1,2.4,54V12h60V26.15A13.183,13.183,0,0,0,42,37.2v6H40.8A2.4,2.4,0,0,0,38.4,45.6ZM69.6,48H66a1.2,1.2,0,1,0,0,2.4h3.6v2.4H66a1.2,1.2,0,1,0,0,2.4h3.6v2.4H66A1.2,1.2,0,1,0,66,60h3.6v2.4H66a1.2,1.2,0,1,0,0,2.4h3.48a6.011,6.011,0,0,1-5.88,4.8H46.8a6.011,6.011,0,0,1-5.88-4.8H44.4a1.2,1.2,0,0,0,0-2.4H40.8V60h3.6a1.2,1.2,0,1,0,0-2.4H40.8V55.2h3.6a1.2,1.2,0,1,0,0-2.4H40.8V50.4h3.6a1.2,1.2,0,1,0,0-2.4H40.8V45.6H69.6V48Z" fill="#67dbff"/>
      <path id="Path_50990" data-name="Path 50990" d="M369.341,373.912v2.621a1.2,1.2,0,1,0,2.4,0v-2.621a3.6,3.6,0,1,0-2.4,0Zm1.2-4.579a1.2,1.2,0,1,1-1.2,1.2A1.2,1.2,0,0,1,370.541,369.333Z" transform="translate(-315.341 -315.333)" fill="#67dbff"/>
      <path id="Path_50991" data-name="Path 50991" d="M64.4,126.667a1.2,1.2,0,0,0-1.2,1.2v3.6H53.6v-9.6h4.8a1.2,1.2,0,0,0,0-2.4H53.6a2.4,2.4,0,0,0-2.4,2.4v9.6a2.4,2.4,0,0,0,2.4,2.4h9.6a2.4,2.4,0,0,0,2.4-2.4v-3.6A1.2,1.2,0,0,0,64.4,126.667Z" transform="translate(-44 -102.667)" fill="#67dbff"/>
      <path id="Path_50992" data-name="Path 50992" d="M78.938,124.622a1.2,1.2,0,0,0-1.7,1.7l2.4,2.4a1.2,1.2,0,0,0,.848.352h.054a1.2,1.2,0,0,0,.868-.43l6-7.2a1.2,1.2,0,1,0-1.843-1.538l-5.16,6.192Z" transform="translate(-66.09 -102.67)" fill="#67dbff"/>
      <path id="Path_50993" data-name="Path 50993" d="M64.4,271.734a1.2,1.2,0,0,0-1.2,1.2v3.6H53.6v-9.6h4.8a1.2,1.2,0,0,0,0-2.4H53.6a2.4,2.4,0,0,0-2.4,2.4v9.6a2.4,2.4,0,0,0,2.4,2.4h9.6a2.4,2.4,0,0,0,2.4-2.4v-3.6A1.2,1.2,0,0,0,64.4,271.734Z" transform="translate(-44 -227.334)" fill="#67dbff"/>
      <path id="Path_50994" data-name="Path 50994" d="M78.938,269.69a1.2,1.2,0,0,0-1.7,1.7l2.4,2.4a1.2,1.2,0,0,0,.848.352h.054a1.2,1.2,0,0,0,.868-.43l6-7.2a1.2,1.2,0,0,0-1.843-1.538l-5.16,6.192Z" transform="translate(-66.09 -227.338)" fill="#67dbff"/>
      <path id="Path_50995" data-name="Path 50995" d="M180.4,130.4H190a1.2,1.2,0,0,0,0-2.4h-9.6a1.2,1.2,0,0,0,0,2.4Z" transform="translate(-154 -110)" fill="#67dbff"/>
      <path id="Path_50996" data-name="Path 50996" d="M197.2,171.867a1.2,1.2,0,0,0-1.2-1.2H180.4a1.2,1.2,0,0,0,0,2.4H196A1.2,1.2,0,0,0,197.2,171.867Z" transform="translate(-154 -146.667)" fill="#67dbff"/>
      <path id="Path_50997" data-name="Path 50997" d="M190,273.067h-9.6a1.2,1.2,0,1,0,0,2.4H190a1.2,1.2,0,1,0,0-2.4Z" transform="translate(-154 -234.667)" fill="#67dbff"/>
      <path id="Path_50998" data-name="Path 50998" d="M188.8,315.733h-8.4a1.2,1.2,0,1,0,0,2.4h8.4a1.2,1.2,0,1,0,0-2.4Z" transform="translate(-154.001 -271.333)" fill="#67dbff"/>
    </g>
  </g>
</svg>
