<svg xmlns="http://www.w3.org/2000/svg" xmlns:xlink="http://www.w3.org/1999/xlink" width="94" height="94" viewBox="0 0 94 94">
  <defs>
    <linearGradient id="linear-gradient" x1="0.5" x2="0.5" y2="1" gradientUnits="objectBoundingBox">
      <stop offset="0" stop-color="#026888"/>
      <stop offset="1" stop-color="#440370"/>
    </linearGradient>
  </defs>
  <g id="Group_34003" data-name="Group 34003" transform="translate(-353 -4829)">
    <g id="Ellipse_17" data-name="Ellipse 17" transform="translate(353 4829)" stroke="#67dbff" stroke-width="0.6" fill="url(#linear-gradient)">
      <circle cx="47" cy="47" r="47" stroke="none"/>
      <circle cx="47" cy="47" r="46.7" fill="none"/>
    </g>
    <g id="Group_37531" data-name="Group 37531" transform="translate(373.995 4850)">
      <path id="Path_50999" data-name="Path 50999" d="M369.545,188.179a.768.768,0,0,0,1.012-.394l3.83-8.712a.768.768,0,0,0-.7-1.077h-4.793a.768.768,0,0,0,0,1.536h3.616l-3.356,7.635a.768.768,0,0,0,.394,1.012Z" transform="translate(-330.419 -159.768)" fill="#67dbff"/>
      <path id="Path_51000" data-name="Path 51000" d="M232.909,179.306a1.389,1.389,0,0,0-.914-1.257,1.3,1.3,0,0,0-1.431.536c-.5.609-2.962,5.064-3.452,5.951a.768.768,0,0,0,.673,1.139h3.584c0,.637-.01,1.249-.014,1.8a.768.768,0,0,0,.762.775h.007a.768.768,0,0,0,.768-.761c0-.327.008-.993.014-1.81h.351a.768.768,0,1,0,0-1.536h-.341C232.928,182,232.935,179.622,232.909,179.306Zm-1.531,4.833h-2.289c.836-1.5,1.777-3.155,2.3-4.019C231.393,180.987,231.388,182.536,231.378,184.139Z" transform="translate(-203.763 -159.77)" fill="#67dbff"/>
      <path id="Path_51001" data-name="Path 51001" d="M172.341,180.672c.006-.025.01-.05.014-.076l.043-.337a.772.772,0,0,0,.006-.1,3,3,0,0,0-5.938-.58.768.768,0,0,0,1.507.3,1.461,1.461,0,0,1,2.894.24l-.031.242a5,5,0,0,1-.8,1.589c-1.382,1.975-2.208,3.056-2.651,3.636-.543.712-.727.951-.591,1.391a.811.811,0,0,0,.528.533,7.708,7.708,0,0,0,1.893.075c.66,0,1.562-.006,2.8-.022a.768.768,0,0,0-.009-1.536H172c-1.058.013-2.189.02-3.03.02.491-.649,1.24-1.659,2.33-3.216A6.407,6.407,0,0,0,172.341,180.672Z" transform="translate(-149.4 -159.021)" fill="#67dbff"/>
      <path id="Path_51002" data-name="Path 51002" d="M305.6,188.328a.768.768,0,0,0,.714-.484l3.5-8.8a.768.768,0,1,0-1.427-.568l-3.5,8.8a.768.768,0,0,0,.713,1.052Z" transform="translate(-273.613 -159.767)" fill="#67dbff"/>
      <path id="Path_51003" data-name="Path 51003" d="M46.659,7.972A.768.768,0,0,0,45.5,8.985a21.832,21.832,0,0,1-7.077,34.089,3.314,3.314,0,0,0-.641-.629l-.973-.732A19.918,19.918,0,1,0,15.8,8.512.768.768,0,1,0,16.83,9.655a18.379,18.379,0,1,1,18.54,30.972l-3.378-2.541a2.308,2.308,0,0,0-3.041.239l-2.732,2.823a.257.257,0,0,1-.319.039A45.888,45.888,0,0,1,11.25,26.538a.257.257,0,0,1,.039-.319l2.823-2.732a2.308,2.308,0,0,0,.239-3.041L11.81,17.068A18.233,18.233,0,0,1,14.628,12a.768.768,0,1,0-1.207-.95,19.765,19.765,0,0,0-2.7,4.574l-.73-.97a3.33,3.33,0,0,0-.631-.643A21.824,21.824,0,0,1,43.156,6.679a.768.768,0,0,0,.992-1.173A23.368,23.368,0,0,0,7.964,13.377a3.316,3.316,0,0,0-2.993.912L1.113,18.148A3.624,3.624,0,0,0,.056,20.357,17.25,17.25,0,0,0,1.8,28.875a.768.768,0,0,0,1.4-.624A15.763,15.763,0,0,1,1.586,20.5,2.085,2.085,0,0,1,2.2,19.234l3.859-3.859a1.792,1.792,0,0,1,2.707.2l4.359,5.794a.769.769,0,0,1-.08,1.014l-2.823,2.732a1.8,1.8,0,0,0-.275,2.234A47.431,47.431,0,0,0,25.088,42.492a1.8,1.8,0,0,0,2.234-.275l2.732-2.823a.769.769,0,0,1,1.014-.08l5.8,4.361a1.792,1.792,0,0,1,.2,2.7L33.2,50.238a2.152,2.152,0,0,1-1.331.619c-8.833.779-19.9-10.17-20.011-10.281a51.645,51.645,0,0,1-7.087-9.27.768.768,0,0,0-1.328.773,52.324,52.324,0,0,0,7.328,9.584,53.149,53.149,0,0,0,6.933,5.65c4.98,3.4,9.425,5.121,13.236,5.121q.539,0,1.062-.046a3.691,3.691,0,0,0,2.283-1.063l3.859-3.859a3.317,3.317,0,0,0,.912-2.992,23.36,23.36,0,0,0,7.6-36.5Z" transform="translate(0 0)" fill="#67dbff"/>
    </g>
  </g>
</svg>
