<svg xmlns="http://www.w3.org/2000/svg" width="71.987" height="65.413" viewBox="0 0 71.987 65.413">
  <g id="Group_34878" data-name="Group 34878" transform="translate(0 -23.38)">
    <path id="Path_2317" data-name="Path 2317" d="M65.2,105.783a3.863,3.863,0,1,0,3.863,3.863A3.868,3.868,0,0,0,65.2,105.783Zm0,5.617a1.754,1.754,0,1,1,1.754-1.754A1.756,1.756,0,0,1,65.2,111.4Z" transform="translate(-52.711 -70.817)" fill="#67dbff"/>
    <path id="Path_2318" data-name="Path 2318" d="M135.75,105.783a3.863,3.863,0,1,0,3.863,3.863A3.868,3.868,0,0,0,135.75,105.783Zm0,5.617a1.754,1.754,0,1,1,1.754-1.754A1.756,1.756,0,0,1,135.75,111.4Z" transform="translate(-113.344 -70.817)" fill="#67dbff"/>
    <path id="Path_2319" data-name="Path 2319" d="M210.166,109.646a3.863,3.863,0,1,0-3.863,3.863A3.868,3.868,0,0,0,210.166,109.646ZM206.3,111.4a1.754,1.754,0,1,1,1.754-1.754A1.756,1.756,0,0,1,206.3,111.4Z" transform="translate(-173.977 -70.817)" fill="#67dbff"/>
    <path id="Path_2320" data-name="Path 2320" d="M68.751,32.874a6.92,6.92,0,0,0-11.734-7.013l-3.485,4.172c-.545-.03,2.243-.01-43.141-.016A10.4,10.4,0,0,0,0,40.408V78.4a10.4,10.4,0,0,0,10.39,10.39H61.6A10.4,10.4,0,0,0,71.987,78.4V40.408a10.342,10.342,0,0,0-3.236-7.533ZM37.173,52.5a2.876,2.876,0,0,1-1.482-2.621c.049-1.644.633-1.253,2.715-4.383,1.906-2.865,3.618-4.641,9.1-5.861l5.484,5.484C51.136,52.834,43.775,56.166,37.173,52.5ZM55.1,45.362,61.24,40.23c0,.059.005.119.005.178v5.124H55.059Zm3.538-18.148a4.813,4.813,0,1,1,6.78,6.78l-11.21,9.365L49.27,38.424ZM2.109,40.408a8.291,8.291,0,0,1,8.281-8.281H51.783l-4.515,5.4c-6.246,1.341-8.395,3.458-10.619,6.8-.287.432-.537.807-.831,1.2H2.109Zm0,37.995V47.641H34.157a5.009,5.009,0,0,0,1.993,6.708c7.208,4,15.343.927,18.263-6.708h6.832V78.4a8.29,8.29,0,0,1-8.28,8.281H10.39A8.291,8.291,0,0,1,2.109,78.4Zm67.769,0a8.29,8.29,0,0,1-8.28,8.281H59.234A10.4,10.4,0,0,0,63.355,78.4V47.641h6.523Zm0-32.871H63.355V40.408A10.687,10.687,0,0,0,63.2,38.6l3.572-2.984.007-.006a7.322,7.322,0,0,0,.863-.862,8.242,8.242,0,0,1,2.24,5.664Z" fill="#67dbff"/>
    <path id="Path_2321" data-name="Path 2321" d="M76.625,276.883H66a4.668,4.668,0,0,0-4.663,4.663v10.627A4.668,4.668,0,0,0,66,296.836H76.625a4.668,4.668,0,0,0,4.663-4.663V281.546A4.668,4.668,0,0,0,76.625,276.883Zm2.554,15.29a2.557,2.557,0,0,1-2.554,2.554H66a2.557,2.557,0,0,1-2.554-2.554V281.546A2.557,2.557,0,0,1,66,278.992H76.625a2.557,2.557,0,0,1,2.554,2.554v10.627Z" transform="translate(-52.711 -217.861)" fill="#67dbff"/>
    <path id="Path_2322" data-name="Path 2322" d="M232.1,288.778h15.239a3.939,3.939,0,0,0,0-7.879H232.1a3.939,3.939,0,0,0,0,7.879Zm0-5.77h15.239a1.83,1.83,0,0,1,0,3.661H232.1a1.83,1.83,0,0,1,0-3.661Z" transform="translate(-196.077 -221.312)" fill="#67dbff"/>
    <path id="Path_2323" data-name="Path 2323" d="M251.273,362.685a3.944,3.944,0,0,0-3.939-3.939H232.1a3.939,3.939,0,0,0,0,7.879h15.239A3.944,3.944,0,0,0,251.273,362.685Zm-3.939,1.83H232.1a1.83,1.83,0,0,1,0-3.661h15.239a1.83,1.83,0,0,1,0,3.661Z" transform="translate(-196.077 -288.214)" fill="#67dbff"/>
  </g>
</svg>
