<svg xmlns="http://www.w3.org/2000/svg" width="58.26" height="71.548" viewBox="0 0 58.26 71.548">
  <g id="Group_34883" data-name="Group 34883" transform="translate(-47.544 0)">
    <path id="Path_2334" data-name="Path 2334" d="M103.009,39.748h-.994V20.409a1.4,1.4,0,0,0-2.795,0v19.34H63A2.8,2.8,0,0,0,60.2,42.543V60.469A2.8,2.8,0,0,0,63,63.264H99.221v4.092a1.4,1.4,0,0,1-1.4,1.4H51.736a1.4,1.4,0,0,1-1.4-1.4V15.451H58.8A4.2,4.2,0,0,0,63,11.258V2.795H97.823a1.4,1.4,0,0,1,1.4,1.4V7.675a1.4,1.4,0,0,0,2.795,0V4.192A4.2,4.2,0,0,0,97.823,0H61.6a1.419,1.419,0,0,0-.988.409L47.953,13.065a1.42,1.42,0,0,0-.409.989v53.3a4.2,4.2,0,0,0,4.192,4.192H97.823a4.2,4.2,0,0,0,4.192-4.192V63.264h.994a2.8,2.8,0,0,0,2.795-2.795V42.543a2.8,2.8,0,0,0-2.795-2.795ZM58.8,12.656H52.316L60.2,4.771v6.487A1.4,1.4,0,0,1,58.8,12.656Zm44.205,47.813H63V42.543h40.013l0,17.926Z" transform="translate(0 0)" fill="#67dbff"/>
    <path id="Path_2335" data-name="Path 2335" d="M214.2,143.025l-6.611,10.452a1.4,1.4,0,1,0,2.362,1.494l6.611-10.452a1.4,1.4,0,1,0-2.362-1.494Z" transform="translate(-137.496 -122.478)" fill="#67dbff"/>
    <path id="Path_2336" data-name="Path 2336" d="M136.751,142.767a1.4,1.4,0,0,0-1.976.036l-5.037,5.226a1.4,1.4,0,0,0,0,1.94l5.037,5.226a1.4,1.4,0,0,0,2.012-1.94l-4.1-4.256,4.1-4.256A1.4,1.4,0,0,0,136.751,142.767Z" transform="translate(-70.371 -122.48)" fill="#67dbff"/>
    <path id="Path_2337" data-name="Path 2337" d="M299.919,155.231a1.4,1.4,0,0,0,1.976-.036l5.037-5.226a1.4,1.4,0,0,0,0-1.94l-5.037-5.226a1.4,1.4,0,1,0-2.012,1.94l4.1,4.256-4.1,4.256a1.4,1.4,0,0,0,.036,1.976Z" transform="translate(-216.74 -122.48)" fill="#67dbff"/>
    <path id="Path_2338" data-name="Path 2338" d="M230.271,320.664a1.4,1.4,0,0,0-1.4,1.4v8.47a.748.748,0,0,1-.371.661c-.294.163-1.1-.271-1.507-.63a1.4,1.4,0,0,0-1.872,2.076,6.411,6.411,0,0,0,1.364.911,4.2,4.2,0,0,0,1.858.474,3.088,3.088,0,0,0,1.512-.387,3.544,3.544,0,0,0,1.809-3.1v-8.47A1.4,1.4,0,0,0,230.271,320.664Z" transform="translate(-152.37 -275.854)" fill="#67dbff"/>
    <path id="Path_2339" data-name="Path 2339" d="M301.77,326.133c-1.289-.476-2.49-.993-2.872-1.16a.665.665,0,0,1-.226-.617.994.994,0,0,1,.792-.79,3.457,3.457,0,0,1,2.849.661,1.4,1.4,0,0,0,1.791-2.146,6.252,6.252,0,0,0-5.446-1.191,3.8,3.8,0,0,0-2.752,3.069,3.441,3.441,0,0,0,1.535,3.406,35.85,35.85,0,0,0,3.362,1.391c.349.129,1.478.607,1.343,1.362a1.716,1.716,0,0,1-1.779,1.145,3.616,3.616,0,0,1-2.657-1.112,1.4,1.4,0,0,0-2.071,1.877,6.363,6.363,0,0,0,4.728,2.03,4.443,4.443,0,0,0,4.531-3.449C305.166,329.1,304.486,327.135,301.77,326.133Z" transform="translate(-213.113 -275.855)" fill="#67dbff"/>
    <circle id="Ellipse_4" data-name="Ellipse 4" cx="1.397" cy="1.397" r="1.397" transform="translate(99.22 12.656)" fill="#67dbff"/>
  </g>
</svg>
