<svg xmlns="http://www.w3.org/2000/svg" width="71.874" height="47.917" viewBox="0 0 71.874 47.917">
  <g id="layer1" transform="translate(-0.529 -283.242)">
    <path id="path12853" d="M4.123,283.242a3.613,3.613,0,0,0-3.594,3.594v33.543a3.613,3.613,0,0,0,3.594,3.594H20.916a5.933,5.933,0,0,1-.152.791,7.908,7.908,0,0,1-2.707,4H16.1a1.2,1.2,0,1,0,0,2.4h14.38a1.2,1.2,0,1,0,0-2.4H21.37a9.515,9.515,0,0,0,1.713-3.393,7.319,7.319,0,0,0,.218-1.4h7.178a1.2,1.2,0,1,0,0-2.4H4.123a1.17,1.17,0,0,1-1.2-1.2v-5.99H30.479a1.2,1.2,0,1,0,0-2.4H2.925V286.836a1.17,1.17,0,0,1,1.2-1.2H49.646a1.17,1.17,0,0,1,1.2,1.2,1.2,1.2,0,1,0,2.4,0,3.613,3.613,0,0,0-3.594-3.594Zm33.543,7.183a3.623,3.623,0,0,0-3.6,3.6v33.543a3.613,3.613,0,0,0,3.6,3.589H52.038a1.2,1.2,0,1,0,0-2.4H37.666a1.17,1.17,0,0,1-1.2-1.193v-5.987H52.038a1.2,1.2,0,1,0,0-2.4H36.464v-21.57H60.43v3.6a1.2,1.2,0,1,0,2.4,0v-7.19a3.623,3.623,0,0,0-3.6-3.6ZM6.5,292.8a1.2,1.2,0,0,0-1.184,1.221v2.4a1.2,1.2,0,1,0,2.4,0v-2.4A1.2,1.2,0,0,0,6.5,292.8Zm31.164.018H59.228a1.178,1.178,0,0,1,1.2,1.2v1.193H36.464v-1.193a1.178,1.178,0,0,1,1.2-1.2ZM6.5,299.994a1.2,1.2,0,0,0-1.184,1.221v7.179a1.2,1.2,0,1,0,2.4,0v-7.179A1.2,1.2,0,0,0,6.5,299.994Zm33.543,0a1.2,1.2,0,0,0-1.184,1.221v2.4a1.2,1.2,0,1,0,2.4,0v-2.4A1.2,1.2,0,0,0,40.046,299.994ZM59.228,304.8a3.607,3.607,0,0,0-3.592,3.589v19.175a3.607,3.607,0,0,0,3.592,3.589h9.586a3.6,3.6,0,0,0,3.589-3.589V308.394a3.6,3.6,0,0,0-3.589-3.589Zm-19.182,2.38a1.2,1.2,0,0,0-1.184,1.21v7.19a1.2,1.2,0,1,0,2.4,0v-7.19A1.2,1.2,0,0,0,40.046,307.185Zm19.182.018h9.586a1.162,1.162,0,0,1,1.193,1.193v1.2H58.034v-1.205a1.162,1.162,0,0,1,1.193-1.193ZM58.034,312H70.007V323.97H58.034Zm-32.35,7.19h2.4a1.2,1.2,0,0,0,0-2.4H25.627a1.2,1.2,0,1,0,.057,2.4Zm21.571,4.783a1.2,1.2,0,1,0,0,2.4h2.4a1.2,1.2,0,1,0,0-2.4Zm10.779,2.4H70.007v1.205a1.162,1.162,0,0,1-1.193,1.193H59.228a1.162,1.162,0,0,1-1.193-1.193Z" transform="translate(0)" fill="#67dbff"/>
  </g>
</svg>
