<svg xmlns="http://www.w3.org/2000/svg" width="72.01" height="64.82" viewBox="0 0 72.01 64.82">
  <g id="Group_34882" data-name="Group 34882" transform="translate(-2 -5)">
    <path id="Path_2324" data-name="Path 2324" d="M68.02,5H8a6,6,0,0,0-6,6V51.814a6,6,0,0,0,6,6H27.46L23.991,64.6a3.561,3.561,0,0,0,.132,3.481,3.639,3.639,0,0,0,3.133,1.741h21.5a3.639,3.639,0,0,0,3.133-1.741,3.531,3.531,0,0,0,.132-3.481L48.55,57.816H68.008a6,6,0,0,0,6-6V11a6,6,0,0,0-6-6Zm3.6,6V48.213H44.013V7.4H68.02A3.612,3.612,0,0,1,71.621,11ZM8,7.4h33.61V48.213H4.4V11A3.612,3.612,0,0,1,8,7.4Zm41.881,58.29a1.145,1.145,0,0,1-.048,1.14,1.23,1.23,0,0,1-1.08.588h-21.5a1.256,1.256,0,0,1-1.08-.588,1.176,1.176,0,0,1-.048-1.14l4.021-7.874h15.7l4.021,7.874ZM71.621,51.814a3.612,3.612,0,0,1-3.6,3.6H8a3.612,3.612,0,0,1-3.6-3.6v-1.2H71.621Z" transform="translate(0 0)" fill="#67dbff"/>
    <path id="Path_2325" data-name="Path 2325" d="M9.4,26.805H35.809a2.408,2.408,0,0,0,2.4-2.4v-12a2.408,2.408,0,0,0-2.4-2.4H9.4A2.408,2.408,0,0,0,7,12.4v12A2.408,2.408,0,0,0,9.4,26.805Zm0-14.4H35.809v12H9.4Z" transform="translate(1.002 1.002)" fill="#67dbff"/>
    <path id="Path_2326" data-name="Path 2326" d="M9.4,40.4H19A2.408,2.408,0,0,0,21.4,38V28.4A2.408,2.408,0,0,0,19,26H9.4A2.408,2.408,0,0,0,7,28.4V38A2.408,2.408,0,0,0,9.4,40.4Zm0-12H19V38H9.4Z" transform="translate(1.002 4.208)" fill="#67dbff"/>
    <path id="Path_2327" data-name="Path 2327" d="M33,26H23.4A2.408,2.408,0,0,0,21,28.4V38a2.408,2.408,0,0,0,2.4,2.4H33A2.408,2.408,0,0,0,35.4,38V28.4A2.408,2.408,0,0,0,33,26ZM23.4,38V28.4H33V38Z" transform="translate(3.807 4.208)" fill="#67dbff"/>
    <path id="Path_2328" data-name="Path 2328" d="M59.206,36H41.2a1.2,1.2,0,1,0,0,2.4H59.206a1.2,1.2,0,1,0,0-2.4Z" transform="translate(7.614 6.211)" fill="#67dbff"/>
    <path id="Path_2329" data-name="Path 2329" d="M59.206,31H41.2a1.2,1.2,0,0,0,0,2.4H59.206a1.2,1.2,0,1,0,0-2.4Z" transform="translate(7.614 5.21)" fill="#67dbff"/>
    <path id="Path_2330" data-name="Path 2330" d="M59.206,26H41.2a1.2,1.2,0,1,0,0,2.4H59.206a1.2,1.2,0,1,0,0-2.4Z" transform="translate(7.614 4.208)" fill="#67dbff"/>
    <path id="Path_2331" data-name="Path 2331" d="M52.48,22.763a1.235,1.235,0,0,0,.72.24,1.216,1.216,0,0,0,.96-.48l3.6-4.8a1.189,1.189,0,0,0,0-1.44l-3.6-4.8a1.2,1.2,0,0,0-1.921,1.44L55.3,17,52.24,21.083a1.2,1.2,0,0,0,.24,1.681Z" transform="translate(10.019 1.202)" fill="#67dbff"/>
    <path id="Path_2332" data-name="Path 2332" d="M39.241,17.722l3.6,4.8a1.216,1.216,0,0,0,.96.48,1.235,1.235,0,0,0,.72-.24,1.2,1.2,0,0,0,.24-1.681L41.7,17l3.061-4.081a1.2,1.2,0,0,0-1.921-1.44l-3.6,4.8a1.189,1.189,0,0,0,0,1.44Z" transform="translate(7.413 1.202)" fill="#67dbff"/>
    <path id="Path_2333" data-name="Path 2333" d="M46.912,22.968a1.2,1.2,0,0,0,1.452-.876l2.4-9.6a1.2,1.2,0,0,0-2.329-.576l-2.4,9.6a1.194,1.194,0,0,0,.876,1.452Z" transform="translate(8.816 1.202)" fill="#67dbff"/>
  </g>
</svg>
