<svg xmlns="http://www.w3.org/2000/svg" width="74.804" height="74.929" viewBox="0 0 74.804 74.929">
  <g id="Layer_2" transform="translate(-2 -2)">
    <g id="Group_41575" data-name="Group 41575" transform="translate(48.254 48.378)">
      <path id="Path_55108" data-name="Path 55108" d="M58.674,67.75a3.588,3.588,0,0,1-2.618-1.122L40.222,50.795A3.588,3.588,0,0,1,39.1,48.176a3.4,3.4,0,0,1,1.122-2.618l5.236-5.236a3.615,3.615,0,0,1,5.236,0L66.528,56.156a3.588,3.588,0,0,1,1.122,2.618,3.4,3.4,0,0,1-1.122,2.618l-5.236,5.236a3.4,3.4,0,0,1-2.618,1.122Zm-10.6-26.181a1.132,1.132,0,0,0-.873.374l-5.236,5.236a1.205,1.205,0,0,0,0,1.745L57.8,64.758a1.205,1.205,0,0,0,1.745,0l5.236-5.236a1.205,1.205,0,0,0,0-1.745L48.949,41.943A1.132,1.132,0,0,0,48.076,41.569Z" transform="translate(-39.1 -39.2)" fill="#67dbff"/>
    </g>
    <g id="Group_41576" data-name="Group 41576" transform="translate(16.961 23.194)">
      <path id="Path_55109" data-name="Path 55109" d="M21.48,28.974H17.74A3.673,3.673,0,0,1,14,25.234V22.74A3.673,3.673,0,0,1,17.74,19h3.74v2.493H17.74a1.178,1.178,0,0,0-1.247,1.247v2.493A1.178,1.178,0,0,0,17.74,26.48h3.74Z" transform="translate(-14 -19)" fill="#67dbff"/>
    </g>
    <g id="Group_41577" data-name="Group 41577" transform="translate(23.194 18.208)">
      <path id="Path_55110" data-name="Path 55110" d="M19,15h2.493V29.961H19Z" transform="translate(-19 -15)" fill="#67dbff"/>
    </g>
    <g id="Group_41578" data-name="Group 41578" transform="translate(40.649 23.194)">
      <path id="Path_55111" data-name="Path 55111" d="M33,19h2.493v9.974H33Z" transform="translate(-33 -19)" fill="#67dbff"/>
    </g>
    <g id="Group_41579" data-name="Group 41579" transform="translate(69.324 23.194)">
      <path id="Path_55112" data-name="Path 55112" d="M56,19h2.493v9.974H56Z" transform="translate(-56 -19)" fill="#67dbff"/>
    </g>
    <g id="Group_41580" data-name="Group 41580" transform="translate(70.57 24.441)">
      <path id="Path_55113" data-name="Path 55113" d="M63.234,28.727H60.74V22.493H57V20h3.74a2.5,2.5,0,0,1,2.493,2.493Z" transform="translate(-57 -20)" fill="#67dbff"/>
    </g>
    <g id="Group_41581" data-name="Group 41581" transform="translate(41.895 24.441)">
      <path id="Path_55114" data-name="Path 55114" d="M45.221,28.727H42.727V22.493H40.234v6.234H37.74V22.493H34V20h3.74a2.106,2.106,0,0,1,1.247.374A2.106,2.106,0,0,1,40.234,20h2.493a2.5,2.5,0,0,1,2.493,2.493Z" transform="translate(-34 -20)" fill="#67dbff"/>
    </g>
    <g id="Group_41582" data-name="Group 41582" transform="translate(54.363 25.688)">
      <path id="Path_55115" data-name="Path 55115" d="M48.987,28.48H46.493A2.5,2.5,0,0,1,44,25.987V23.493A2.5,2.5,0,0,1,46.493,21h2.493v2.493H46.493v2.493h2.493Z" transform="translate(-44 -21)" fill="#67dbff"/>
    </g>
    <g id="Group_41583" data-name="Group 41583" transform="translate(54.363 21.948)">
      <path id="Path_55116" data-name="Path 55116" d="M51.48,29.221H48.987V21.74a1.178,1.178,0,0,0-1.247-1.247H44V18h3.74a3.673,3.673,0,0,1,3.74,3.74Z" transform="translate(-44 -18)" fill="#67dbff"/>
    </g>
    <g id="Group_41584" data-name="Group 41584" transform="translate(64.337 24.441)">
      <path id="Path_55117" data-name="Path 55117" d="M52,20h2.493v8.727H52Z" transform="translate(-52 -20)" fill="#67dbff"/>
    </g>
    <path id="Path_55118" data-name="Path 55118" d="M52,16h2.493v2.493H52Z" transform="translate(12.337 3.454)" fill="#67dbff"/>
    <path id="Path_55119" data-name="Path 55119" d="M53.241,35.662H50.623a22.012,22.012,0,0,1-4.114,7.48l-.748.873,7.106,7.106-1.745,1.745L44.015,45.76l-.873.748A23.683,23.683,0,1,1,51,21.948h2.618A26.187,26.187,0,1,0,43.89,49.126l7.231,7.231,5.236-5.236L49.126,43.89a25.508,25.508,0,0,0,4.114-8.228Z" fill="#67dbff"/>
    <path id="Path_55120" data-name="Path 55120" d="M44.275,34.675a18.693,18.693,0,1,1,.5-13.714h2.618a21.116,21.116,0,1,0-.374,13.714Z" transform="translate(0.987 0.987)" fill="#67dbff"/>
    <g id="Group_41585" data-name="Group 41585" transform="translate(28.181 23.194)">
      <path id="Path_55121" data-name="Path 55121" d="M27.987,28.974a4.987,4.987,0,1,1,4.987-4.987A5,5,0,0,1,27.987,28.974Zm0-7.48a2.493,2.493,0,1,0,2.493,2.493A2.5,2.5,0,0,0,27.987,21.493Z" transform="translate(-23 -19)" fill="#67dbff"/>
    </g>
    <path id="Path_55122" data-name="Path 55122" d="M10,25h2.493v2.493H10Z" transform="translate(1.974 5.675)" fill="#67dbff"/>
  </g>
</svg>
