<svg xmlns="http://www.w3.org/2000/svg" width="75.833" height="76.265" viewBox="0 0 75.833 76.265">
  <g id="Group_41574" data-name="Group 41574" transform="translate(-6.256 -5.329)">
    <path id="Path_55100" data-name="Path 55100" d="M84.614,33.988H76.784l-.02,0a.915.915,0,0,0-.159.016.075.075,0,0,0-.014,0,.932.932,0,0,0-.142.043l-.046.02a.918.918,0,0,0-.1.056c-.014.009-.028.016-.041.026a.916.916,0,0,0-.127.1L65.022,45.327a.9.9,0,0,0-.105.128c-.009.013-.017.027-.026.041a.9.9,0,0,0-.057.106c-.007.015-.014.029-.02.044a.921.921,0,0,0-.046.153v0a.942.942,0,0,0-.016.162c0,.006,0,.013,0,.019V61.477a.926.926,0,0,0,1.853,0V46.909h7.725a3.386,3.386,0,0,0,3.381-3.382V35.841h6.9a.926.926,0,1,0,0-1.853Zm-8.757,9.539a1.531,1.531,0,0,1-1.528,1.529H67.918l.869-.866,7.07-7.046Z" transform="translate(-44.95 -22.022)" fill="#67dbff"/>
    <path id="Path_55101" data-name="Path 55101" d="M103.562,144.523a.926.926,0,1,0,0,1.853h24.023l-.587.839a3.007,3.007,0,0,0,4.929,3.447L144.138,133.2v9.54a1.786,1.786,0,0,1-1.783,1.783h-3.017a.926.926,0,0,0,0,1.853h3.017a3.641,3.641,0,0,0,3.636-3.636V130.55l6.906-9.876a7.3,7.3,0,0,0,1.2-2.877l.639-3.456a.926.926,0,0,0-1.368-.974l-3.041,1.726a7.4,7.4,0,0,0-2.4,2.181l-1.944,2.78V99.482a.926.926,0,1,0-1.852,0v22.7a.915.915,0,0,0,.091.394l-15.349,21.95Zm45.891-26.188a5.533,5.533,0,0,1,1.793-1.632l1.312-.744-.278,1.5a5.466,5.466,0,0,1-.9,2.154L144.3,129.741h0L130.409,149.6a1.155,1.155,0,1,1-1.893-1.324Z" transform="translate(-74.062 -71.639)" fill="#67dbff"/>
    <path id="Path_55102" data-name="Path 55102" d="M6.867,199.042c5.84,2.116,15.914,3.229,16.339,3.275a.927.927,0,0,0,1-.7l1.686-6.976a.926.926,0,0,0-.712-1.124l-1.065-.221,1.573-5.976c1.322.1,2.672.122,3.651.124a3.7,3.7,0,0,0,3.547-2.624l.673-2.184a.926.926,0,0,0-.625-1.162,28.3,28.3,0,0,1-6.724-3.267,5.025,5.025,0,0,1-2.064-2.644,62.886,62.886,0,0,1-2.057-10.032,2.489,2.489,0,0,0-3.615-1.879l-.767.4a2.764,2.764,0,0,0-4.156-1.065l-3.233,2.4a3.369,3.369,0,0,0-1.355,2.891c.057,1.083.158,2.032.226,2.594l-1.012.8A3.352,3.352,0,0,0,6.9,174.584a24.447,24.447,0,0,0,3.16,10.034,2.163,2.163,0,0,1,.25,1.51l-.82,4.131-.563-.116a.926.926,0,0,0-1.093.709l-1.56,7.122a.926.926,0,0,0,.589,1.069Zm1.884-24.613a1.505,1.505,0,0,1,.573-1.309l.166-.13a21.293,21.293,0,0,0,1.527,5.018.926.926,0,0,0,1.68-.781,21.11,21.11,0,0,1-1.6-6.04.139.139,0,0,0,0-.016.146.146,0,0,0,0-.032c0-.011-.193-1.348-.278-2.961a1.521,1.521,0,0,1,.609-1.306l.875-.65a29.886,29.886,0,0,0,1.939,9.4.926.926,0,1,0,1.7-.737c-1.545-3.562-1.8-8.485-1.841-9.994l.561-.417a.906.906,0,0,1,1.441.635l.042.408a55.87,55.87,0,0,0,1.394,8.368.926.926,0,1,0,1.79-.476,53.062,53.062,0,0,1-1.28-7.443l1.286-.669a.636.636,0,0,1,.924.482,62.972,62.972,0,0,0,2.135,10.368,6.883,6.883,0,0,0,2.825,3.623,32.272,32.272,0,0,0,6.306,3.2l-.4,1.311a1.856,1.856,0,0,1-1.779,1.318,42.076,42.076,0,0,1-4.247-.186.927.927,0,0,0-.994.685l-1.8,6.829-10.992-2.283.823-4.146a4.012,4.012,0,0,0-.466-2.8,22.557,22.557,0,0,1-2.914-9.257Zm.7,17.713,14.417,2.992L22.6,200.38a89.977,89.977,0,0,1-14.336-2.817Z" transform="translate(0 -120.729)" fill="#67dbff"/>
    <path id="Path_55103" data-name="Path 55103" d="M201.763,7.33l-7.25.77a.926.926,0,0,0-.824,1.009l.054.573-4.2.363a2.157,2.157,0,0,1-1.473-.414,24.447,24.447,0,0,0-9.628-4.238,3.354,3.354,0,0,0-3.041.945l-.9.918c-.551-.129-1.482-.333-2.553-.509a3.37,3.37,0,0,0-3.021,1.031l-3.064,3.3a2.49,2.49,0,0,0,.865,3.992l-.207.309a2.757,2.757,0,0,0,1.616,4.207,60.093,60.093,0,0,1,9.389,3.054,5.027,5.027,0,0,1,2.4,2.341,28.281,28.281,0,0,1,2.511,7.042.926.926,0,0,0,1.086.748l2.245-.43a3.7,3.7,0,0,0,3-3.238c.108-.967.234-2.316.277-3.643l6.113-.909.1,1.083a.926.926,0,0,0,.921.839.959.959,0,0,0,.118-.007l7.118-.912a.926.926,0,0,0,.809-.917c0-.428,0-10.563-1.466-16.6A.928.928,0,0,0,201.763,7.33ZM188,23.74a.926.926,0,0,0-.79.913,42.152,42.152,0,0,1-.28,4.242,1.856,1.856,0,0,1-1.505,1.624l-1.347.258a32.24,32.24,0,0,0-2.485-6.618,6.883,6.883,0,0,0-3.291-3.205,61.79,61.79,0,0,0-9.708-3.167.9.9,0,0,1-.529-1.381l.593-.887a53.078,53.078,0,0,1,7.258,2.087.926.926,0,1,0,.669-1.727,55.9,55.9,0,0,0-8.166-2.3l-.863-.185a.636.636,0,0,1-.332-1.055l.8-.86c1.495.206,6.355,1,9.732,2.925a.926.926,0,0,0,.919-1.609,29.879,29.879,0,0,0-9.128-2.957l.741-.8a1.521,1.521,0,0,1,1.365-.463c1.594.261,2.9.6,2.913.6a.222.222,0,0,0,.031.006.092.092,0,0,1,.017.005,21.047,21.047,0,0,1,5.828,2.25.926.926,0,0,0,.961-1.584,21.285,21.285,0,0,0-4.82-2.067l.148-.151a1.506,1.506,0,0,1,1.364-.426,22.559,22.559,0,0,1,8.882,3.91,4.015,4.015,0,0,0,2.734.77l4.212-.364L194.982,22.7Zm9.017.763L195.62,9.845l5.518-.586a90.042,90.042,0,0,1,1.23,14.558Z" transform="translate(-122.138 0)" fill="#67dbff"/>
    <path id="Path_55104" data-name="Path 55104" d="M126.22,96.883a14.89,14.89,0,0,0-7.247,27.774.823.823,0,0,1,.4.713v6.338a6.2,6.2,0,0,0,6.188,6.188H127.3a6.2,6.2,0,0,0,6.188-6.188v-3.142a.926.926,0,0,0-.926-.926H129.4v-2.691a2.446,2.446,0,0,1,1.016-1.988c1.558-1.115,4.273-3.481,4.95-6.831a9.376,9.376,0,0,0-.526-4.821,5.183,5.183,0,0,0-3.338-2.939,5.125,5.125,0,0,0-4.346.682.926.926,0,0,0,1.049,1.527,3.281,3.281,0,0,1,2.782-.43,3.336,3.336,0,0,1,2.151,1.89,7.573,7.573,0,0,1,.409,3.743c-.547,2.707-2.871,4.714-4.208,5.671a4.3,4.3,0,0,0-1.791,3.495v2.691h-2.041v-2.691a4.3,4.3,0,0,0-1.791-3.495,12.516,12.516,0,0,1-3.126-3.136.926.926,0,1,0-1.546,1.021,14.374,14.374,0,0,0,3.595,3.623,2.446,2.446,0,0,1,1.016,1.988v2.691h-2.425v-2.269a2.681,2.681,0,0,0-1.326-2.316,13.037,13.037,0,1,1,13.047.007,2.667,2.667,0,0,0-1.315,2.31.926.926,0,0,0,1.853,0,.811.811,0,0,1,.39-.7,14.89,14.89,0,0,0-7.658-27.782Zm-4.991,32.608h10.407v2.216a4.341,4.341,0,0,1-4.336,4.336h-1.735a4.341,4.341,0,0,1-4.336-4.336Z" transform="translate(-80.905 -70.352)" fill="#67dbff"/>
    <path id="Path_55105" data-name="Path 55105" d="M63.29,310.648a.886.886,0,0,0-.174.053,1.063,1.063,0,0,0-.16.083,1.135,1.135,0,0,0-.141.116.928.928,0,0,0,0,1.311,1.136,1.136,0,0,0,.141.116,1.057,1.057,0,0,0,.16.083.886.886,0,0,0,.174.053.957.957,0,0,0,.181.019.926.926,0,1,0-.181-1.834Z" transform="translate(-43.254 -234.603)" fill="#67dbff"/>
    <path id="Path_55106" data-name="Path 55106" d="M313.037,70.227a1.063,1.063,0,0,0-.086-.16,1.136,1.136,0,0,0-.116-.141.851.851,0,0,0-.141-.113.816.816,0,0,0-.16-.086.888.888,0,0,0-.174-.053.909.909,0,0,0-.949.394.884.884,0,0,0-.086.16.922.922,0,0,0-.053.174.96.96,0,0,0-.019.181.94.94,0,0,0,.019.181.873.873,0,0,0,.053.174.885.885,0,0,0,.086.16.906.906,0,0,0,.769.412.783.783,0,0,0,.181-.019.881.881,0,0,0,.174-.051.959.959,0,0,0,.16-.086,1,1,0,0,0,.141-.116.923.923,0,0,0,.271-.655.954.954,0,0,0-.016-.181A1.158,1.158,0,0,0,313.037,70.227Z" transform="translate(-234.372 -49.43)" fill="#67dbff"/>
    <path id="Path_55107" data-name="Path 55107" d="M142.45,160.2a2.344,2.344,0,0,0,2.14,1.362c.043,0,.087,0,.131,0a2.324,2.324,0,0,0,2.093-1.576l.022-.066a6.082,6.082,0,0,0-.575-4.988,4.452,4.452,0,0,0-4.549-2.276c-3.124.273-4.129,3.087-4.037,5.423a.926.926,0,1,0,1.851-.072c-.039-1,.116-3.329,2.377-3.508a.931.931,0,0,0,.116-.016,2.391,2.391,0,0,1,1.064.086A5.332,5.332,0,0,0,142.45,160.2Zm2.1-4.508q.059.087.116.182a4.232,4.232,0,0,1,.405,3.472l-.013.041a.47.47,0,0,1-.438.321.49.49,0,0,1-.49-.286,3.478,3.478,0,0,1,.421-3.731Z" transform="translate(-100.982 -113.176)" fill="#67dbff"/>
  </g>
</svg>
