<svg xmlns="http://www.w3.org/2000/svg" width="74.459" height="74.459" viewBox="0 0 74.459 74.459">
  <g id="Group_41569" data-name="Group 41569" transform="translate(-0.001)">
    <path id="Path_55074" data-name="Path 55074" d="M65.081,9.379a32.021,32.021,0,0,0-45.285,0c-.442.442-.875.9-1.289,1.365A1.093,1.093,0,0,0,20.14,12.2c.386-.433.79-.861,1.2-1.274A29.836,29.836,0,0,1,63.536,53.119,29.839,29.839,0,0,1,17.563,15.537a1.093,1.093,0,1,0-1.821-1.209,32.022,32.022,0,0,0,.663,36.334L13.2,53.871a1.093,1.093,0,0,0-1.545,0l-9.8,9.8a6.32,6.32,0,0,0,8.938,8.938l2.77-2.77A1.093,1.093,0,0,0,12.012,68.3l-2.77,2.77a4.135,4.135,0,1,1-5.847-5.847l9.029-9.029,5.847,5.847L15.1,65.2a1.093,1.093,0,0,0,1.546,1.546l3.941-3.941a1.093,1.093,0,0,0,0-1.545l3.2-3.2A32.026,32.026,0,0,0,74.46,32.022,31.812,31.812,0,0,0,65.081,9.379ZM19.044,59.718l-4.3-4.3,3.007-3.007q.967,1.172,2.047,2.255t2.252,2.05Z" transform="translate(0)" fill="#67dbff"/>
    <path id="Path_55075" data-name="Path 55075" d="M151.249,91.743a25.772,25.772,0,1,0-4.276,1.6,1.093,1.093,0,0,0-.582-2.107,23.526,23.526,0,1,1,3.912-1.465,1.093,1.093,0,1,0,.946,1.971Z" transform="translate(-97.631 -36.423)" fill="#67dbff"/>
    <path id="Path_55076" data-name="Path 55076" d="M264.37,173.1a1.093,1.093,0,0,0,0-2.186h-5.118a1.093,1.093,0,0,0-1.093,1.093v12.146a1.093,1.093,0,0,0,1.093,1.093h5.118a1.093,1.093,0,1,0,0-2.186h-4.025v-3.887h3.647a1.093,1.093,0,0,0,0-2.186h-3.647V173.1Z" transform="translate(-220.614 -146.058)" fill="#67dbff"/>
    <path id="Path_55077" data-name="Path 55077" d="M180.262,182.785a4.713,4.713,0,0,1-3.462-1.458,1.093,1.093,0,1,0-1.619,1.468,6.93,6.93,0,0,0,5.081,2.176,4.677,4.677,0,0,0,4.726-3.557c.418-2.34-1.422-3.907-3.283-4.593-1.577-.582-3.041-1.217-3.41-1.379a1.279,1.279,0,0,1-.511-1.241,1.7,1.7,0,0,1,1.283-1.34,4.529,4.529,0,0,1,3.779.861,1.093,1.093,0,0,0,1.4-1.677,6.68,6.68,0,0,0-5.812-1.277,3.877,3.877,0,0,0-2.816,3.123,3.461,3.461,0,0,0,1.543,3.426,1.111,1.111,0,0,0,.152.083c.07.031,1.745.777,3.633,1.473,1.355.5,2.043,1.286,1.888,2.158A2.474,2.474,0,0,1,180.262,182.785Z" transform="translate(-149.461 -145.728)" fill="#67dbff"/>
    <path id="Path_55078" data-name="Path 55078" d="M330.222,177.751A7.222,7.222,0,1,0,323,184.972,7.23,7.23,0,0,0,330.222,177.751Zm-12.258,0A5.036,5.036,0,1,1,323,182.787,5.042,5.042,0,0,1,317.964,177.751Z" transform="translate(-269.854 -145.729)" fill="#67dbff"/>
  </g>
</svg>
