<svg xmlns="http://www.w3.org/2000/svg" width="90.087" height="82.58" viewBox="0 0 90.087 82.58">
  <g id="Group_41573" data-name="Group 41573" transform="translate(0 -0.5)">
    <path id="Path_55088" data-name="Path 55088" d="M144,256.5h19.519v3H144Zm0,0" transform="translate(-116.974 -207.954)" fill="#67dbff"/>
    <path id="Path_55089" data-name="Path 55089" d="M144,216.5h16.516v3H144Zm0,0" transform="translate(-116.974 -175.461)" fill="#67dbff"/>
    <path id="Path_55090" data-name="Path 55090" d="M85.583,8.007H69.067V2a1.5,1.5,0,0,0-1.5-1.5H22.522A1.5,1.5,0,0,0,21.02,2V8.007H4.5a4.5,4.5,0,0,0-4.5,4.5V57.555a4.5,4.5,0,0,0,4.5,4.5H37.536v9.009H24.023a1.5,1.5,0,0,0-1.5,1.5v7.507h-3v3H70.568v-3h-3V72.57a1.5,1.5,0,0,0-1.5-1.5H52.551V62.06H85.583a4.5,4.5,0,0,0,4.5-4.5V12.512A4.5,4.5,0,0,0,85.583,8.007Zm0,3a1.5,1.5,0,0,1,1.5,1.5V50.048H69.067V33.127l7.279-8.674a6.006,6.006,0,0,0-7.279-9.231V11.01ZM57.639,42.074l-4.6-3.86,13.513-16.1,4.6,3.86Zm-5.65-.821,2.839,2.383-3.4,1.174ZM74.046,22.522l-.966,1.149-4.6-3.861.966-1.15a3,3,0,0,1,4.6,3.861ZM24.023,3.5H66.064V18.019L49.773,37.436a1.5,1.5,0,0,0-.333.728l-1.375,8.647a1.5,1.5,0,0,0,1.973,1.651l8.276-2.853a1.486,1.486,0,0,0,.661-.45l7.09-8.454V54.552H24.023ZM4.5,11.01H21.02V50.048H3V12.512a1.5,1.5,0,0,1,1.5-1.5ZM64.563,80.077H25.525V74.071H64.563ZM49.548,71.068H40.539V62.06h9.009ZM85.583,59.057H4.5a1.5,1.5,0,0,1-1.5-1.5v-4.5H21.02v3a1.5,1.5,0,0,0,1.5,1.5H67.565a1.5,1.5,0,0,0,1.5-1.5v-3H87.084v4.5A1.5,1.5,0,0,1,85.583,59.057Zm0,0" fill="#67dbff"/>
    <path id="Path_55091" data-name="Path 55091" d="M432,288.5h3v3h-3Zm0,0" transform="translate(-350.922 -233.948)" fill="#67dbff"/>
    <path id="Path_55092" data-name="Path 55092" d="M144,32.5h6.006v3H144Zm0,0" transform="translate(-116.974 -25.994)" fill="#67dbff"/>
    <path id="Path_55093" data-name="Path 55093" d="M192,32.5h25.525v3H192Zm0,0" transform="translate(-155.965 -25.994)" fill="#67dbff"/>
    <path id="Path_55094" data-name="Path 55094" d="M144,72.5h34.533v3H144Zm0,0" transform="translate(-116.974 -58.487)" fill="#67dbff"/>
    <path id="Path_55095" data-name="Path 55095" d="M144,112.5h3v3h-3Zm0,0" transform="translate(-116.974 -90.98)" fill="#67dbff"/>
    <path id="Path_55096" data-name="Path 55096" d="M176,112.5h3v3h-3Zm0,0" transform="translate(-142.968 -90.98)" fill="#67dbff"/>
    <path id="Path_55097" data-name="Path 55097" d="M208,112.5h16.516v3H208Zm0,0" transform="translate(-168.962 -90.98)" fill="#67dbff"/>
    <path id="Path_55098" data-name="Path 55098" d="M144,152.5h9.009v3H144Zm0,0" transform="translate(-116.974 -123.472)" fill="#67dbff"/>
    <path id="Path_55099" data-name="Path 55099" d="M208,152.5h10.51v3H208Zm0,0" transform="translate(-168.962 -123.472)" fill="#67dbff"/>
  </g>
</svg>
