<svg xmlns="http://www.w3.org/2000/svg" width="76.185" height="77.289" viewBox="0 0 76.185 77.289">
  <g id="Group_41570" data-name="Group 41570" transform="translate(-1.93 -1.48)">
    <path id="Path_55079" data-name="Path 55079" d="M58.616,11.121A2.906,2.906,0,1,0,55.71,8.216,2.9,2.9,0,0,0,58.616,11.121Zm0-3.739a.846.846,0,0,1,0,1.692.846.846,0,1,1,0-1.692Z" transform="translate(12.156 0.866)" fill="#67dbff"/>
    <path id="Path_55080" data-name="Path 55080" d="M74,1.48H14.264A4.128,4.128,0,0,0,10.144,5.6v6.29H6.049A4.128,4.128,0,0,0,1.93,16.008V67.661A4.128,4.128,0,0,0,6.049,71.78H33.427v5.958a1.036,1.036,0,0,0,1.03,1.03H53.8a1.036,1.036,0,0,0,1.03-1.03V71.78H65.781A4.128,4.128,0,0,0,69.9,67.661v-6.29H74a4.128,4.128,0,0,0,4.119-4.119V5.6A4.128,4.128,0,0,0,74,1.48ZM12.2,5.6a2.064,2.064,0,0,1,2.06-2.06H74a2.064,2.064,0,0,1,2.06,2.06v9.036H36.97l-4.6-4.769a1.885,1.885,0,0,0-1.349-.576H20.9a1.884,1.884,0,0,0-1.876,1.876v3.47H12.2ZM6.049,69.733a2.064,2.064,0,0,1-2.06-2.06V16.008a2.064,2.064,0,0,1,2.06-2.06h4.095V57.264a4.128,4.128,0,0,0,4.119,4.119H36.627a4.754,4.754,0,0,1,.515,2.575H35.548a2.122,2.122,0,0,0-2.121,2.121v3.654ZM43.112,48.167a1.166,1.166,0,0,1,1.018-.6,1.151,1.151,0,0,1,1.152,1.152,1.163,1.163,0,0,1-.576,1.005,1.287,1.287,0,0,1-1.336-.061.341.341,0,0,1-.147-.147A1.3,1.3,0,0,1,43.112,48.167ZM43.1,45.7a3.189,3.189,0,0,0-1.778,1.471,3.357,3.357,0,0,0,.172,3.445,2.575,2.575,0,0,0,.87.834,3.633,3.633,0,0,0,1.778.49A3.2,3.2,0,0,0,45.16,45.7v-5.3l9.109,16.441a.133.133,0,0,1-.061.049,6.93,6.93,0,0,0-5.162,7.062h-9.82A7.07,7.07,0,0,0,34,56.8l9.1-16.392Zm9.673,31.006H35.486l.061-10.7H52.712a.058.058,0,0,1,.061.061Zm15.068-9.048a2.064,2.064,0,0,1-2.06,2.06H54.833V66.067a2.122,2.122,0,0,0-2.121-2.121H51.118a4.869,4.869,0,0,1,.515-2.575H67.841ZM74,59.324H53.632a4.431,4.431,0,0,1,1.079-.441,2.185,2.185,0,0,0,1.447-1.238,2.1,2.1,0,0,0-.1-1.851L45.515,36.8a1.56,1.56,0,0,0-1.373-.821,1.612,1.612,0,0,0-1.4.809l-10.556,19a2.136,2.136,0,0,0,1.349,3.09,4.64,4.64,0,0,1,1.079.441H14.264a2.064,2.064,0,0,1-2.06-2.06V16.695h6.988a1.884,1.884,0,0,0,1.876-1.876V11.35h9.87l4.6,4.769a1.885,1.885,0,0,0,1.349.576H76.056V57.252A2.067,2.067,0,0,1,74,59.324Z" fill="#67dbff"/>
    <path id="Path_55081" data-name="Path 55081" d="M52.9,11.121A2.906,2.906,0,1,0,49.99,8.216,2.9,2.9,0,0,0,52.9,11.121Zm0-3.739a.846.846,0,0,1,0,1.692.846.846,0,0,1,0-1.692Z" transform="translate(10.863 0.866)" fill="#67dbff"/>
    <path id="Path_55082" data-name="Path 55082" d="M47.166,11.121A2.906,2.906,0,1,0,44.26,8.216,2.9,2.9,0,0,0,47.166,11.121Zm0-3.739a.846.846,0,0,1,0,1.692.846.846,0,0,1,0-1.692Z" transform="translate(9.568 0.866)" fill="#67dbff"/>
    <path id="Path_55083" data-name="Path 55083" d="M61.136,21.477a4.092,4.092,0,0,0-1.128,2.17H45.6V22.028a2,2,0,0,0-2-2H38.957a2,2,0,0,0-2,2v1.618H22.565a4.087,4.087,0,0,0-1.128-2.182,4.167,4.167,0,0,0-5.738.012,4.055,4.055,0,0,0,0,5.738,3.958,3.958,0,0,0,2.869,1.2,4.421,4.421,0,0,0,2.011-.49A3.616,3.616,0,0,0,22.2,26.258a5.173,5.173,0,0,0,.221-.552H32.41A20.469,20.469,0,0,0,21.462,39.34H19.868a2,2,0,0,0-2,2v4.647a2,2,0,0,0,2,2h4.647a2,2,0,0,0,2-2V41.338a2,2,0,0,0-2-2h-.932A18.4,18.4,0,0,1,37,26.221v.441a2,2,0,0,0,2,2H43.64a2,2,0,0,0,2-2v-.441A18.435,18.435,0,0,1,59.052,39.34h-.846a2,2,0,0,0-2,2v4.647a2,2,0,0,0,2,2h4.647a2,2,0,0,0,2-2V41.338a2,2,0,0,0-2-2h-1.68A20.509,20.509,0,0,0,50.224,25.707H60.241a4.055,4.055,0,0,0,3.813,2.71,4.421,4.421,0,0,0,2.011-.49,3.616,3.616,0,0,0,1.618-1.667,4.137,4.137,0,0,0-.748-4.794A4.257,4.257,0,0,0,61.136,21.477ZM20.321,25.388a1.577,1.577,0,0,1-.687.7,2.046,2.046,0,0,1-2.489-.331,1.945,1.945,0,0,1-.588-1.41,2.036,2.036,0,0,1,.588-1.422,2.013,2.013,0,0,1,2.832-.012A2.137,2.137,0,0,1,20.321,25.388ZM24.49,45.924l-4.585.061L19.843,41.4h4.585Zm38.326,0-4.585.061L58.169,41.4h4.585ZM39.031,26.675l-.025-1.545a1.064,1.064,0,0,0,.012-.343v-.012c0-.037.025-.061.025-.1a.608.608,0,0,0-.037-.159L38.969,22.1h4.585l.037,2.415a.859.859,0,0,0-.037.172.288.288,0,0,0,.025.1V24.8a1.051,1.051,0,0,0,.025.441l.025,1.385Zm26.74-1.287a1.577,1.577,0,0,1-.687.7,2.046,2.046,0,0,1-2.489-.331,1.945,1.945,0,0,1-.588-1.41,2.036,2.036,0,0,1,.588-1.422,2.013,2.013,0,0,1,2.832-.012A2.137,2.137,0,0,1,65.77,25.388Z" transform="translate(2.843 4.193)" fill="#67dbff"/>
  </g>
</svg>
