<svg xmlns="http://www.w3.org/2000/svg" width="72.998" height="72.998" viewBox="0 0 72.998 72.998">
  <g id="Group_41571" data-name="Group 41571" transform="translate(-1 -1)">
    <path id="Path_55084" data-name="Path 55084" d="M64.579,52.812V48.1a5.894,5.894,0,0,0-5.887-5.887H48.781A33.187,33.187,0,0,0,51.4,35.889l4.474-3.58A4.349,4.349,0,0,0,53.3,24.563l2.623-7.213A12.186,12.186,0,0,0,44.474,1h-10A39.872,39.872,0,0,0,13.327,7.066a1.177,1.177,0,0,0,.252,2.119l2.839.942a3.024,3.024,0,0,1,1.851,3.99,5.378,5.378,0,0,0,.182,4.4l3.035,6.065a4.343,4.343,0,0,0-2.364,7.725l4.474,3.58a33.187,33.187,0,0,0,2.621,6.319H16.306A5.894,5.894,0,0,0,10.419,48.1v4.717A15.327,15.327,0,0,0,1,66.934V72.82A1.177,1.177,0,0,0,2.177,74H72.82A1.177,1.177,0,0,0,74,72.82V66.934a15.327,15.327,0,0,0-9.419-14.122ZM46.918,24.548H39.854a1.177,1.177,0,0,0-1.177,1.177V26.9H36.322V25.725a1.177,1.177,0,0,0-1.177-1.177h-10.6V22.823l7.349-4.9a9.6,9.6,0,0,1,5.343-1.618,12.023,12.023,0,0,0,7.487-2.627l1.924-1.539,2.019,3.031a10.56,10.56,0,0,1,1.78,5.877v3.5ZM45.741,26.9v3.532a1.177,1.177,0,0,1-1.177,1.177H42.208a1.177,1.177,0,0,1-1.177-1.177V26.9Zm-11.774,0v3.532a1.177,1.177,0,0,1-1.177,1.177H30.435a1.177,1.177,0,0,1-1.177-1.177V26.9Zm21.193,2a1.994,1.994,0,0,1-.751,1.564l-2.135,1.707a33.133,33.133,0,0,0,.512-5.272h.372A2,2,0,0,1,55.16,28.9ZM20.454,14.992a5.378,5.378,0,0,0-3.291-7.1l-.36-.118A37.515,37.515,0,0,1,34.478,3.355h10a9.831,9.831,0,0,1,9.239,13.187L52.69,19.355a12.911,12.911,0,0,0-2.06-5.5L47.9,9.761a1.179,1.179,0,0,0-1.715-.266l-2.926,2.347a9.672,9.672,0,0,1-6.016,2.11,11.953,11.953,0,0,0-6.65,2.013l-7.873,5.249a1.168,1.168,0,0,0-.2.172l-1.959-3.92A3.022,3.022,0,0,1,20.454,14.992ZM20.59,30.47A2,2,0,0,1,21.84,26.9h.37a33.133,33.133,0,0,0,.512,5.275ZM24.567,26.9H26.9v3.532a3.532,3.532,0,0,0,3.532,3.532h2.355a3.532,3.532,0,0,0,3.532-3.532V29.257h2.355v1.177a3.532,3.532,0,0,0,3.532,3.532h2.355A3.532,3.532,0,0,0,48.1,30.435V26.9h2.336a30.828,30.828,0,0,1-4.369,15.306H28.936A30.827,30.827,0,0,1,24.567,26.9ZM16.306,44.563H58.692A3.532,3.532,0,0,1,62.224,48.1V71.643H12.774V48.1a3.532,3.532,0,0,1,3.532-3.532ZM3.355,66.934A12.97,12.97,0,0,1,10.419,55.4v16.24H3.355Zm68.288,4.71H64.579V55.4a12.971,12.971,0,0,1,7.064,11.53Z" transform="translate(0 0)" fill="#67dbff"/>
    <path id="Path_55085" data-name="Path 55085" d="M32.71,59.419A4.71,4.71,0,1,0,28,54.71,4.71,4.71,0,0,0,32.71,59.419Zm0-7.064a2.355,2.355,0,1,1-2.355,2.355A2.355,2.355,0,0,1,32.71,52.355Z" transform="translate(4.789 8.692)" fill="#67dbff"/>
    <path id="Path_55086" data-name="Path 55086" d="M26.054,50.377l1.665-1.665-3.877-3.877,3.877-3.877-1.665-1.665L21.345,44a1.177,1.177,0,0,0,0,1.665Z" transform="translate(3.548 6.793)" fill="#67dbff"/>
    <path id="Path_55087" data-name="Path 55087" d="M38.958,50.377l4.71-4.71a1.177,1.177,0,0,0,0-1.665l-4.71-4.71-1.665,1.665,3.877,3.877-3.877,3.877Z" transform="translate(6.438 6.793)" fill="#67dbff"/>
    <rect id="Rectangle_16639" data-name="Rectangle 16639" width="11.774" height="2.355" transform="matrix(0.6, -0.8, 0.8, 0.6, 33.024, 55.629)" fill="#67dbff"/>
  </g>
</svg>
