<?xml version="1.0" encoding="UTF-8"?>
<svg xmlns="http://www.w3.org/2000/svg" xmlns:xlink="http://www.w3.org/1999/xlink" width="29px" height="32px" viewBox="0 0 29 31" version="1.1">
<g id="surface1">
<path style=" stroke:none;fill-rule:nonzero;fill:rgb(99.607843%,99.607843%,99.607843%);fill-opacity:1;" d="M 18.21875 0 C 19.152344 1.355469 18.972656 2.304688 18.820312 3.851562 C 18.789062 4.230469 18.789062 4.230469 18.757812 4.621094 C 18.707031 5.242188 18.648438 5.867188 18.589844 6.488281 C 18.835938 6.371094 19.082031 6.25 19.332031 6.128906 C 19.148438 5.414062 19.148438 5.414062 18.960938 4.6875 C 19.207031 4.6875 19.453125 4.6875 19.707031 4.6875 C 19.890625 5.042969 19.890625 5.042969 20.078125 5.40625 C 20.324219 4.929688 20.566406 4.457031 20.820312 3.964844 C 21.066406 4.441406 21.3125 4.917969 21.5625 5.40625 C 21.933594 5.167969 22.300781 4.929688 22.679688 4.6875 C 22.558594 5.160156 22.433594 5.636719 22.308594 6.128906 C 22.675781 6.246094 23.042969 6.367188 23.421875 6.488281 C 23.421875 6.132812 23.421875 5.773438 23.421875 5.40625 C 24.894531 5.40625 26.367188 5.40625 27.882812 5.40625 C 27.917969 8.207031 27.945312 11.007812 27.960938 13.8125 C 27.96875 15.113281 27.980469 16.414062 27.996094 17.710938 C 28.011719 18.96875 28.023438 20.222656 28.027344 21.476562 C 28.03125 22.191406 28.042969 22.902344 28.054688 23.613281 C 28.054688 24.265625 28.054688 24.265625 28.054688 24.925781 C 28.058594 25.308594 28.058594 25.691406 28.0625 26.082031 C 27.882812 27.035156 27.882812 27.035156 27.292969 27.699219 C 26.082031 28.261719 25.144531 28.246094 23.804688 28.238281 C 23.417969 28.238281 23.417969 28.238281 23.023438 28.238281 C 22.175781 28.238281 21.328125 28.230469 20.476562 28.222656 C 19.886719 28.21875 19.296875 28.21875 18.707031 28.21875 C 17.160156 28.214844 15.609375 28.203125 14.058594 28.191406 C 12.476562 28.179688 10.894531 28.175781 9.3125 28.167969 C 6.207031 28.15625 3.105469 28.140625 0 28.117188 C 0 26.6875 0 25.261719 0 23.789062 C 7.730469 23.789062 15.460938 23.789062 23.421875 23.789062 C 23.191406 21 23.191406 21 21.609375 19.234375 C 21.152344 18.792969 21.152344 18.792969 20.683594 18.34375 C 20.355469 18.039062 20.023438 17.734375 19.679688 17.417969 C 19.34375 17.09375 19.003906 16.773438 18.65625 16.441406 C 17.761719 15.589844 16.863281 14.742188 15.960938 13.898438 C 14.683594 12.707031 13.417969 11.503906 12.152344 10.300781 C 11.476562 9.660156 10.800781 9.023438 10.121094 8.390625 C 9.816406 8.101562 9.515625 7.816406 9.199219 7.519531 C 8.929688 7.269531 8.660156 7.015625 8.382812 6.757812 C 7.808594 6.128906 7.808594 6.128906 7.808594 5.40625 C 13.441406 5.019531 13.441406 5.019531 15.128906 5.96875 C 15.75 6.59375 16.265625 7.191406 16.730469 7.929688 C 16.914062 7.75 16.914062 7.75 17.101562 7.570312 C 17.007812 6.285156 16.898438 5.007812 16.75 3.730469 C 16.570312 1.640625 16.570312 1.640625 17.46875 0.523438 C 17.714844 0.351562 17.960938 0.179688 18.21875 0 Z M 22.46875 7.390625 C 22.292969 7.566406 22.117188 7.746094 21.9375 7.929688 C 22.355469 9.722656 22.355469 9.722656 23.421875 11.175781 C 23.421875 9.746094 23.421875 8.320312 23.421875 6.847656 C 22.960938 6.808594 22.960938 6.808594 22.46875 7.390625 Z M 22.46875 7.390625 "/>
<path style=" stroke:none;fill-rule:nonzero;fill:rgb(99.607843%,99.607843%,99.607843%);fill-opacity:1;" d="M 4.460938 5.40625 C 5.410156 6.019531 5.410156 6.019531 6.292969 6.890625 C 6.796875 7.375 6.796875 7.375 7.308594 7.871094 C 7.664062 8.226562 8.019531 8.585938 8.375 8.941406 C 8.746094 9.304688 9.117188 9.667969 9.488281 10.03125 C 10.464844 10.984375 11.429688 11.945312 12.394531 12.90625 C 13.1875 13.691406 13.984375 14.472656 14.78125 15.253906 C 16.425781 16.863281 18.066406 18.476562 19.699219 20.097656 C 19.988281 20.386719 20.277344 20.671875 20.574219 20.96875 C 21.191406 21.628906 21.191406 21.628906 21.191406 21.988281 C 16.222656 22.703125 16.222656 22.703125 14.117188 21.589844 C 12.351562 20.308594 10.914062 18.710938 9.457031 17.121094 C 9.003906 16.652344 8.550781 16.183594 8.09375 15.714844 C 6.984375 14.578125 5.914062 13.421875 4.832031 12.253906 C 4.710938 15.46875 4.589844 18.679688 4.460938 21.988281 C 2.988281 21.988281 1.515625 21.988281 0 21.988281 C -0.046875 19.800781 -0.078125 17.613281 -0.101562 15.425781 C -0.113281 14.679688 -0.125 13.9375 -0.140625 13.191406 C -0.164062 12.121094 -0.171875 11.054688 -0.179688 9.984375 C -0.191406 9.652344 -0.199219 9.316406 -0.210938 8.972656 C -0.210938 6.695312 -0.210938 6.695312 0.777344 5.730469 C 2.097656 5.335938 3.085938 5.292969 4.460938 5.40625 Z M 4.460938 5.40625 "/>
<path style=" stroke:none;fill-rule:nonzero;fill:rgb(77.254903%,77.254903%,78.823531%);fill-opacity:1;" d="M 18.21875 0 C 19.152344 1.355469 18.972656 2.304688 18.820312 3.851562 C 18.800781 4.105469 18.78125 4.359375 18.757812 4.621094 C 18.707031 5.242188 18.648438 5.867188 18.589844 6.488281 C 18.835938 6.371094 19.082031 6.25 19.332031 6.128906 C 19.210938 5.652344 19.089844 5.175781 18.960938 4.6875 C 19.207031 4.6875 19.453125 4.6875 19.707031 4.6875 C 19.828125 4.925781 19.949219 5.160156 20.078125 5.40625 C 20.324219 4.929688 20.566406 4.457031 20.820312 3.964844 C 21.066406 4.441406 21.3125 4.917969 21.5625 5.40625 C 21.933594 5.167969 22.300781 4.929688 22.679688 4.6875 C 22.433594 5.398438 22.1875 6.113281 21.9375 6.847656 C 22.179688 6.96875 22.425781 7.085938 22.679688 7.210938 C 22.800781 7.445312 22.925781 7.683594 23.050781 7.929688 C 22.683594 7.929688 22.316406 7.929688 21.9375 7.929688 C 21.691406 8.40625 21.445312 8.882812 21.191406 9.371094 C 20.703125 9.371094 20.210938 9.371094 19.707031 9.371094 C 19.335938 9.492188 18.96875 9.609375 18.589844 9.734375 C 18.589844 9.375 18.589844 9.019531 18.589844 8.652344 C 18.34375 9.007812 18.097656 9.363281 17.847656 9.734375 C 17.101562 9.011719 17.101562 9.011719 17.042969 8.292969 C 17.054688 8 17.066406 7.710938 17.078125 7.410156 C 17.121094 6 17.019531 4.6875 16.824219 3.289062 C 16.636719 1.570312 16.636719 1.570312 17.449219 0.472656 C 17.703125 0.316406 17.957031 0.160156 18.21875 0 Z M 18.21875 0 "/>
<path style=" stroke:none;fill-rule:nonzero;fill:rgb(89.411765%,89.411765%,93.333334%);fill-opacity:1;" d="M 18.589844 7.210938 C 18.710938 7.210938 18.835938 7.210938 18.960938 7.210938 C 18.960938 7.921875 18.960938 8.636719 18.960938 9.371094 C 20.132812 9.371094 20.566406 9.183594 21.5625 8.652344 C 21.808594 8.53125 22.054688 8.414062 22.308594 8.289062 C 23.230469 10.539062 23.542969 12.359375 23.421875 14.777344 C 22.171875 14.265625 21.476562 13.644531 20.613281 12.640625 C 19.707031 11.585938 19.707031 11.585938 18.6875 10.636719 C 18.21875 10.09375 18.21875 10.09375 18.191406 9.355469 C 18.324219 8.640625 18.457031 7.925781 18.589844 7.210938 Z M 18.589844 7.210938 "/>
<path style=" stroke:none;fill-rule:nonzero;fill:rgb(60.784316%,60.784316%,61.56863%);fill-opacity:1;" d="M 17.472656 3.964844 C 17.71875 3.964844 17.964844 3.964844 18.21875 3.964844 C 18.214844 4.210938 18.210938 4.460938 18.203125 4.714844 C 18.203125 5.039062 18.199219 5.363281 18.195312 5.699219 C 18.191406 6.023438 18.1875 6.34375 18.179688 6.675781 C 18.175781 7.617188 18.175781 7.617188 18.589844 8.652344 C 18.222656 9.1875 18.222656 9.1875 17.847656 9.734375 C 17.601562 9.496094 17.355469 9.257812 17.101562 9.011719 C 17.109375 7.835938 17.109375 7.835938 17.242188 6.441406 C 17.285156 5.980469 17.324219 5.519531 17.367188 5.042969 C 17.402344 4.6875 17.4375 4.332031 17.472656 3.964844 Z M 17.472656 3.964844 "/>
<path style=" stroke:none;fill-rule:nonzero;fill:rgb(60.392159%,60.392159%,61.176473%);fill-opacity:1;" d="M 19.332031 7.210938 C 20.449219 7.570312 20.449219 7.570312 20.820312 7.929688 C 20.820312 7.691406 20.820312 7.453125 20.820312 7.210938 C 21.925781 7.386719 21.925781 7.386719 23.050781 7.570312 C 22.683594 7.6875 22.316406 7.808594 21.9375 7.929688 C 21.488281 8.652344 21.488281 8.652344 21.191406 9.371094 C 20.703125 9.371094 20.210938 9.371094 19.707031 9.371094 C 19.332031 9.011719 19.332031 9.011719 19.308594 8.089844 C 19.316406 7.796875 19.324219 7.507812 19.332031 7.210938 Z M 19.332031 7.210938 "/>
<path style=" stroke:none;fill-rule:nonzero;fill:rgb(78.039217%,78.039217%,78.823531%);fill-opacity:1;" d="M 20.449219 3.964844 C 20.695312 4.085938 20.941406 4.203125 21.191406 4.324219 C 21.316406 4.683594 21.4375 5.039062 21.5625 5.40625 C 21.933594 5.167969 22.300781 4.929688 22.679688 4.6875 C 22.433594 5.398438 22.1875 6.113281 21.9375 6.847656 C 22.179688 6.96875 22.425781 7.085938 22.679688 7.210938 C 22.3125 7.386719 22.3125 7.386719 21.9375 7.570312 C 20.960938 7.230469 20.960938 7.230469 20.078125 6.847656 C 20.199219 5.898438 20.324219 4.945312 20.449219 3.964844 Z M 20.449219 3.964844 "/>
</g>
</svg>
