<svg xmlns="http://www.w3.org/2000/svg" xmlns:xlink="http://www.w3.org/1999/xlink" width="100" height="100" viewBox="0 0 100 100">
  <defs>
    <linearGradient id="linear-gradient" x1="0.5" x2="1" y2="1.066" gradientUnits="objectBoundingBox">
      <stop offset="0" stop-color="#551382"/>
      <stop offset="1" stop-color="#290343"/>
    </linearGradient>
  </defs>
  <g id="Group_34900" data-name="Group 34900" transform="translate(-174 -2446)">
    <g id="Rectangle_6920" data-name="Rectangle 6920" transform="translate(174 2446)" stroke="#fff" stroke-width="0.6" fill="url(#linear-gradient)">
      <rect width="100" height="100" rx="6" stroke="none"/>
      <rect x="0.3" y="0.3" width="99.4" height="99.4" rx="5.7" fill="none"/>
    </g>
    <g id="Group_34899" data-name="Group 34899" transform="translate(190 2423.21)">
      <path id="Path_2333" data-name="Path 2333" d="M64.25,59.923H54.589V46.985a2.2,2.2,0,0,0-2.2-2.2H10.074a.986.986,0,1,0,0,1.973H52.392a.223.223,0,0,1,.224.222v3.064H1.973V46.985a.222.222,0,0,1,.222-.222H5.47a.986.986,0,1,0,0-1.973H2.2a2.2,2.2,0,0,0-2.2,2.2V87.742a2.2,2.2,0,0,0,2.2,2.2H20.632l-.474,4.345H17.72a5.06,5.06,0,0,0-5.056,4.581,1.351,1.351,0,0,0,1.343,1.486H40.581a1.351,1.351,0,0,0,1.343-1.486,5.06,5.06,0,0,0-5.056-4.581H34.429l-.474-4.345H43.7v7.321a3.094,3.094,0,0,0,3.091,3.091H64.25a3.094,3.094,0,0,0,3.091-3.091V91.834a.986.986,0,0,0-1.973,0v1.939H45.678V66.5h6.543l.481.835a1.452,1.452,0,0,0,1.255.726h3.133a1.452,1.452,0,0,0,1.255-.726l.481-.835h6.543V87.231a.986.986,0,0,0,1.973,0V63.014a3.094,3.094,0,0,0-3.091-3.091Zm-11.635-7.9v7.9H46.8A3.094,3.094,0,0,0,43.7,63.014V82.7H1.973V52.022Zm-12.8,46.355H14.771a3.094,3.094,0,0,1,2.949-2.121H36.868A3.094,3.094,0,0,1,39.817,98.376Zm-7.372-4.094h-10.3l.474-4.345h9.354ZM2.2,87.965a.222.222,0,0,1-.222-.222V84.678H43.7v3.287H2.2Zm63.173,7.781v1.513a1.119,1.119,0,0,1-1.118,1.118H46.8a1.119,1.119,0,0,1-1.118-1.118V95.746ZM58.444,64.527a1.316,1.316,0,0,0-1.138.658l-.52.9H54.26l-.52-.9a1.316,1.316,0,0,0-1.138-.658H45.678V63.014A1.119,1.119,0,0,1,46.8,61.9H64.25a1.119,1.119,0,0,1,1.118,1.118v1.513Z" fill="#fff"/>
      <path id="Path_2334" data-name="Path 2334" d="M108.864,126.1l2.552,9.6a2.636,2.636,0,0,0,2.529,1.968H128.6v1.8H113.5a3.466,3.466,0,1,0,3.126,1.973h5.688a3.464,3.464,0,1,0,6.253,0h.037a1.982,1.982,0,0,0,1.98-1.98V123.376h3.2a.986.986,0,0,0,0-1.973H130.5a1.89,1.89,0,0,0-1.888,1.888v.639h-18.08a1.724,1.724,0,0,0-1.666,2.168Zm6.127,16.835a1.492,1.492,0,1,1-1.492-1.492A1.493,1.493,0,0,1,114.991,142.932Zm11.941,0a1.492,1.492,0,1,1-1.492-1.492A1.493,1.493,0,0,1,126.932,142.932Zm-13.609-7.744-.9-3.4h4.042l.69,3.9h-3.2A.669.669,0,0,1,113.323,135.188Zm8.7-9.285.346,3.917h-4.249l-.694-3.917Zm.521,5.89.345,3.9h-3.728l-.69-3.9Zm2.325,3.9-.345-3.9h4.086v3.9Zm3.744-5.87h-4.263L124,125.9h4.609Zm-13.19-3.917.694,3.917H111.9l-1.042-3.917Z" transform="translate(-94.495 -66.536)" fill="#fff"/>
      <path id="Path_2335" data-name="Path 2335" d="M378.6,250.736a3.242,3.242,0,0,0-3.238,3.238v1.519H374.3a2.3,2.3,0,0,0-2.3,2.3v7.157a2.3,2.3,0,0,0,2.3,2.3h8.587a2.3,2.3,0,0,0,2.3-2.3v-7.157a2.3,2.3,0,0,0-2.3-2.3h-1.056v-1.519a3.242,3.242,0,0,0-3.238-3.238Zm-1.265,3.238a1.265,1.265,0,0,1,2.53,0v1.519h-2.53v-1.519Zm5.559,3.492a.329.329,0,0,1,.329.329v7.157a.329.329,0,0,1-.329.329H374.3a.329.329,0,0,1-.329-.329v-7.157a.329.329,0,0,1,.329-.329h1.055v.917a.986.986,0,0,0,1.973,0v-.917h2.53v.917a.986.986,0,1,0,1.973,0v-.917Z" transform="translate(-323.072 -178.859)" fill="#fff"/>
    </g>
  </g>
</svg>
