<svg xmlns="http://www.w3.org/2000/svg" xmlns:xlink="http://www.w3.org/1999/xlink" width="100" height="100" viewBox="0 0 100 100">
  <defs>
    <linearGradient id="linear-gradient" x1="0.5" x2="1" y2="1.066" gradientUnits="objectBoundingBox">
      <stop offset="0" stop-color="#551382"/>
      <stop offset="1" stop-color="#290343"/>
    </linearGradient>
  </defs>
  <g id="Group_34898" data-name="Group 34898" transform="translate(-174 -2446)">
    <g id="Rectangle_6920" data-name="Rectangle 6920" transform="translate(174 2446)" stroke="#fff" stroke-width="0.6" fill="url(#linear-gradient)">
      <rect width="100" height="100" rx="6" stroke="none"/>
      <rect x="0.3" y="0.3" width="99.4" height="99.4" rx="5.7" fill="none"/>
    </g>
    <path id="Path_2332" data-name="Path 2332" d="M38.419,44.146V32.717a.923.923,0,0,1,.922-.923H50.27l-2.22-2.219a.923.923,0,1,1,1.3-1.306l3.8,3.795.006.007h0s0,0,0,0,0,0,0,0h0a.923.923,0,0,1,0,1.286h0s0,0,0,0h0s0,0,0,0h0l-3.8,3.8a.923.923,0,1,1-1.3-1.306l2.22-2.219h-10V44.146a.923.923,0,0,1-1.846,0ZM84.544,62.952a.923.923,0,0,1-1.306,1.306l-2.219-2.219V76.107a.923.923,0,0,1-.923.923H70.035a.923.923,0,1,1,0-1.846h9.137V62.039l-2.22,2.219a.923.923,0,0,1-1.3-1.306l3.8-3.8a.922.922,0,0,1,1.3,0ZM73,43.856a1.849,1.849,0,0,0-1.037-1.548c-1.086-.6-2.317-.111-3.8-.966A3.642,3.642,0,0,1,66.2,38.212a.357.357,0,0,1,0-.059,3.566,3.566,0,0,1,2-3.132,4.641,4.641,0,0,1,1.382-.5v-.906a.923.923,0,0,1,1.846,0V34.5a7.449,7.449,0,0,1,2.97,1.034.923.923,0,0,1-.963,1.575,5.88,5.88,0,0,0-2.916-.834,3.013,3.013,0,0,0-1.429.358l-.016.008A1.723,1.723,0,0,0,68.042,38.2a1.805,1.805,0,0,0,1.046,1.548c1.031.583,2.319.116,3.782.955a3.7,3.7,0,0,1,1.977,3.114.95.95,0,0,1,0,.1,3.916,3.916,0,0,1-3.426,3.622v.9a.923.923,0,0,1-1.846,0v-.881a7.9,7.9,0,0,1-2.972-1.03.923.923,0,1,1,.931-1.594c1.237.723,3.1,1.217,4.437.48A1.8,1.8,0,0,0,73,43.856ZM70.5,30.736A10.288,10.288,0,1,0,80.784,41.024,10.3,10.3,0,0,0,70.5,30.736Zm0,22.422A12.134,12.134,0,1,0,58.362,41.024,12.148,12.148,0,0,0,70.5,53.158Zm0-26.134a14,14,0,1,0,14,14A14.015,14.015,0,0,0,70.5,27.024Zm0,29.845A15.846,15.846,0,1,0,54.651,41.024,15.863,15.863,0,0,0,70.5,56.869Zm-13.2,21.946A2.708,2.708,0,1,1,60,76.107a2.711,2.711,0,0,1-2.708,2.708Zm0-7.262a4.554,4.554,0,1,0,4.554,4.554A4.559,4.559,0,0,0,57.293,71.553Zm8.151,5.1v-1.1l-1.276-.415a.921.921,0,0,1-.608-.649,6.456,6.456,0,0,0-.7-1.674.925.925,0,0,1-.027-.89l.609-1.2-.779-.779-1.2.609a.922.922,0,0,1-.89-.028,6.478,6.478,0,0,0-1.674-.694.922.922,0,0,1-.649-.608l-.415-1.276h-1.1l-.414,1.276a.924.924,0,0,1-.649.608A6.5,6.5,0,0,0,54,70.534a.92.92,0,0,1-.888.028l-1.2-.609-.779.779.609,1.2a.923.923,0,0,1-.029.89,6.447,6.447,0,0,0-.694,1.674.926.926,0,0,1-.608.649l-1.276.415v1.1l1.276.415a.925.925,0,0,1,.608.649,6.452,6.452,0,0,0,.694,1.674.923.923,0,0,1,.029.89l-.609,1.2.779.779,1.2-.609a.922.922,0,0,1,.89.028,6.416,6.416,0,0,0,1.674.694.924.924,0,0,1,.649.609l.414,1.275h1.1l.415-1.276a.923.923,0,0,1,.649-.608,6.468,6.468,0,0,0,1.674-.694.923.923,0,0,1,.89-.028l1.2.609.779-.779-.609-1.2a.925.925,0,0,1,.027-.89,6.461,6.461,0,0,0,.7-1.674.923.923,0,0,1,.608-.649Zm1.209-2.651-1.451-.47a8.151,8.151,0,0,0-.5-1.2l.693-1.359a.924.924,0,0,0-.17-1.072L63.5,68.173A.923.923,0,0,0,62.426,68l-1.358.693a8.208,8.208,0,0,0-1.2-.5l-.471-1.45a.922.922,0,0,0-.877-.638H56.071a.925.925,0,0,0-.879.638l-.47,1.45a8.393,8.393,0,0,0-1.2.5L52.16,68a.925.925,0,0,0-1.073.17L49.36,69.9a.921.921,0,0,0-.17,1.072l.692,1.359a8.41,8.41,0,0,0-.5,1.2l-1.45.47a.924.924,0,0,0-.637.879v2.443a.924.924,0,0,0,.637.879l1.45.47a8.423,8.423,0,0,0,.5,1.2l-.692,1.359a.921.921,0,0,0,.17,1.072l1.728,1.728a.924.924,0,0,0,1.073.17l1.358-.692a8.4,8.4,0,0,0,1.2.5l.47,1.45a.925.925,0,0,0,.879.638h2.444a.922.922,0,0,0,.877-.638l.471-1.45a8.331,8.331,0,0,0,1.2-.5l1.358.692a.923.923,0,0,0,1.072-.17l1.729-1.728a.924.924,0,0,0,.17-1.072L64.7,79.881a8.183,8.183,0,0,0,.5-1.2l1.451-.47a.924.924,0,0,0,.637-.879V74.885A.925.925,0,0,0,66.653,74.006Zm-23.578-11.4a5.368,5.368,0,1,1,.125-7.59A5.367,5.367,0,0,1,43.076,62.607ZM39.462,51.536a7.214,7.214,0,1,0,7.094,7.332,7.21,7.21,0,0,0-7.094-7.332Zm5.905,14.969a.925.925,0,0,0-.353.817l.211,2.245-2.028.878-1.492-1.692a.919.919,0,0,0-.837-.3,9.82,9.82,0,0,1-2.751.045.924.924,0,0,0-.827.326l-1.437,1.737L33.8,69.745l.141-2.25a.923.923,0,0,0-.379-.805,9.74,9.74,0,0,1-1.974-1.916.925.925,0,0,0-.817-.353l-2.245.212L27.647,62.6l1.692-1.491a.922.922,0,0,0,.3-.837,9.844,9.844,0,0,1-.044-2.752.919.919,0,0,0-.327-.827l-1.736-1.438.813-2.054,2.25.142a.922.922,0,0,0,.8-.378,9.7,9.7,0,0,1,1.917-1.976.922.922,0,0,0,.353-.816l-.211-2.246,2.028-.878,1.49,1.692a.923.923,0,0,0,.837.3A9.724,9.724,0,0,1,40.568,49a.918.918,0,0,0,.826-.328l1.437-1.735,2.055.814L44.745,50a.923.923,0,0,0,.378.8A9.744,9.744,0,0,1,47.1,52.725a.922.922,0,0,0,.816.353l2.246-.212.876,2.028-1.691,1.492a.922.922,0,0,0-.3.837,9.773,9.773,0,0,1,.043,2.751.922.922,0,0,0,.328.827l1.736,1.438-.814,2.054-2.25-.142a.929.929,0,0,0-.8.378A9.687,9.687,0,0,1,45.367,66.505ZM46.9,67.64a11.5,11.5,0,0,0,1.567-1.615l2.426.154a.926.926,0,0,0,.916-.582l1.308-3.3a.92.92,0,0,0-.27-1.051l-1.872-1.551a11.666,11.666,0,0,0-.036-2.249l1.824-1.609A.921.921,0,0,0,53,54.778l-1.41-3.261a.925.925,0,0,0-.934-.552l-2.421.229a11.513,11.513,0,0,0-1.615-1.567l.153-2.426a.923.923,0,0,0-.581-.917l-3.3-1.307a.921.921,0,0,0-1.051.27l-1.55,1.872a11.52,11.52,0,0,0-2.25.036L36.43,45.33a.923.923,0,0,0-1.059-.238L32.111,46.5a.924.924,0,0,0-.553.934l.229,2.421a11.5,11.5,0,0,0-1.567,1.615l-2.426-.154a.925.925,0,0,0-.917.582l-1.307,3.3a.923.923,0,0,0,.27,1.053l1.872,1.55a11.627,11.627,0,0,0,.036,2.25l-1.824,1.607a.922.922,0,0,0-.238,1.059l1.41,3.26a.924.924,0,0,0,.935.553L30.45,66.3a11.606,11.606,0,0,0,1.616,1.567L31.913,70.3a.923.923,0,0,0,.582.917l3.3,1.307a.92.92,0,0,0,1.051-.27L38.4,70.38a11.527,11.527,0,0,0,2.25-.036l1.609,1.824a.922.922,0,0,0,1.059.238L46.574,71a.923.923,0,0,0,.552-.934Z" transform="translate(168.076 2440.359)" fill="#fff" fill-rule="evenodd"/>
  </g>
</svg>
