<svg xmlns="http://www.w3.org/2000/svg" xmlns:xlink="http://www.w3.org/1999/xlink" width="100" height="100" viewBox="0 0 100 100">
  <defs>
    <linearGradient id="linear-gradient" x1="0.5" x2="1" y2="1.066" gradientUnits="objectBoundingBox">
      <stop offset="0" stop-color="#551382"/>
      <stop offset="1" stop-color="#290343"/>
    </linearGradient>
  </defs>
  <g id="Group_34893" data-name="Group 34893" transform="translate(-174 -2446)">
    <g id="Rectangle_6920" data-name="Rectangle 6920" transform="translate(174 2446)" stroke="#fff" stroke-width="0.6" fill="url(#linear-gradient)">
      <rect width="100" height="100" rx="6" stroke="none"/>
      <rect x="0.3" y="0.3" width="99.4" height="99.4" rx="5.7" fill="none"/>
    </g>
    <g id="Group_34883" data-name="Group 34883" transform="translate(190.899 2396.188)">
      <g id="Group_34884" data-name="Group 34884" transform="translate(0 76.943)">
        <g id="Group_34883-2" data-name="Group 34883" transform="translate(0 0)">
          <path id="Path_2319" data-name="Path 2319" d="M65.156,86.891A1.045,1.045,0,0,0,66.2,85.846V81.778a4.84,4.84,0,0,0-4.835-4.835H4.835A4.84,4.84,0,0,0,0,81.778v36.634a4.841,4.841,0,0,0,4.835,4.835H61.366a4.84,4.84,0,0,0,4.835-4.835V89.237a1.045,1.045,0,0,0-2.091,0v29.175a2.748,2.748,0,0,1-2.744,2.745H4.835a2.748,2.748,0,0,1-2.744-2.745V81.778a2.747,2.747,0,0,1,2.744-2.744H61.366a2.748,2.748,0,0,1,2.744,2.745v4.068A1.045,1.045,0,0,0,65.156,86.891Z" transform="translate(0 -76.943)" fill="#fff"/>
        </g>
      </g>
      <g id="Group_34886" data-name="Group 34886" transform="translate(25.773 97.836)">
        <g id="Group_34885" data-name="Group 34885" transform="translate(0 0)">
          <path id="Path_2320" data-name="Path 2320" d="M201.491,238.528c-1.437,0-2.164,2.139-2.164,3.494,0,1.016.5,1.693,1.35,1.693h.017c1.35,0,2.129-2.05,2.129-3.529C202.824,239.366,202.478,238.528,201.491,238.528Z" transform="translate(-199.327 -238.528)" fill="#fff"/>
        </g>
      </g>
      <g id="Group_34888" data-name="Group 34888" transform="translate(34.402 98.036)">
        <g id="Group_34887" data-name="Group 34887" transform="translate(0 0)">
          <path id="Path_2321" data-name="Path 2321" d="M268.489,240.076c-.935,0-1.8,1.069-2.112,2.78l-.312,1.889a1.631,1.631,0,0,0,1.143.41c1.333,0,2.372-1.943,2.372-3.654C269.579,240.807,269.285,240.076,268.489,240.076Z" transform="translate(-266.065 -240.076)" fill="#fff"/>
        </g>
      </g>
      <g id="Group_34890" data-name="Group 34890" transform="translate(5.417 89.909)">
        <g id="Group_34889" data-name="Group 34889" transform="translate(0 0)">
          <path id="Path_2322" data-name="Path 2322" d="M95.751,181.4H93.117a2.09,2.09,0,0,0-1.558.7A2.089,2.089,0,0,0,90,181.4h-.23l.305-1.434a2.09,2.09,0,0,0-1.186-2.342,5.385,5.385,0,0,0-2.174-.4,5.833,5.833,0,0,0-3.7,1.256,3.393,3.393,0,0,0-2.6-1.149,3.589,3.589,0,0,0-3.614,3.641,3.674,3.674,0,0,0,.14,1,4.656,4.656,0,0,0-2.672-.8,5.206,5.206,0,0,0-1.751.3,2.084,2.084,0,0,0-.845-.178H69.44a2.087,2.087,0,0,0-1.538.676,5.879,5.879,0,0,0-3.161-.876,6.9,6.9,0,0,0-4.436,1.569c-.023-.027-.046-.055-.07-.081a4.126,4.126,0,0,0-3.066-1.292l.228-1.211a2.092,2.092,0,0,0-2.043-2.532H52.86a2.091,2.091,0,0,0-2.056,1.711l-.371,2.008a8.145,8.145,0,0,0-1.69-.172c-3.368,0-5.813,2.146-5.813,5.1a4.117,4.117,0,0,0,.468,1.9,2.089,2.089,0,0,0-.791,1.052l-.606,1.8a2.091,2.091,0,0,0,.732,2.343,6.793,6.793,0,0,0,3.794,1.091h.089a7.383,7.383,0,0,0,2.614-.448,2.09,2.09,0,0,0,1.292.448h2.493a2.087,2.087,0,0,0,1.342-.487,2.09,2.09,0,0,0,1.342.487h2.493a2.09,2.09,0,0,0,1.767-.976,5.9,5.9,0,0,0,3.328.976H63.3a7.143,7.143,0,0,0,2.187-.337l-.236,1.274a2.09,2.09,0,0,0,2.056,2.471H69.8a2.09,2.09,0,0,0,2.056-1.714l.3-1.619a6.457,6.457,0,0,0,3.28-.921,2.089,2.089,0,0,0,1.569.713H79.5a2.083,2.083,0,0,0,.839-.177,2.087,2.087,0,0,0,.839.178H83.67a2.093,2.093,0,0,0,.442-.049,2.08,2.08,0,0,0,.053.327l.554,2.192a2.088,2.088,0,0,0,2.358,1.552,7.7,7.7,0,0,0,3.843-2.044,19.259,19.259,0,0,0,3.679-5.577l3.007-6.21a2.091,2.091,0,0,0-1.856-3.05Zm-47.5,10.669-.011,0q-.093.029-.19.054l-.034.009q-.088.022-.179.042l-.036.008q-.1.021-.2.038l-.013,0q-.112.018-.227.032l-.032,0c-.062.007-.125.013-.189.019l-.076.005-.151.009-.088,0-.151,0h-.114a4.9,4.9,0,0,1-2.58-.677l.606-1.8a5.4,5.4,0,0,0,2.216.606c.693,0,1.056-.356,1.056-.784s-.277-.731-1.056-1.123a2.737,2.737,0,0,1-1.783-2.317c0-1.818,1.541-3.012,3.722-3.012.124,0,.245,0,.362.01h0a5.767,5.767,0,0,1,.946.127h0a3.118,3.118,0,0,1,.854.308l-.588,1.818a4.12,4.12,0,0,0-.617-.224c-.071-.02-.146-.038-.224-.055l-.025-.006c-.068-.015-.14-.027-.213-.039l-.053-.009c-.067-.01-.138-.017-.209-.024l-.069-.007c-.093-.007-.189-.011-.288-.011-.658,0-1.091.285-1.091.766,0,.356.347.659,1.022.98q.1.049.191.1l.021.012q.088.049.176.1l.007,0a2.6,2.6,0,0,1,1.509,2.187A2.861,2.861,0,0,1,48.255,192.066Zm10.855-4.759-.918,4.991H55.7l.883-4.777a5.468,5.468,0,0,0,.1-1.07c0-.588-.225-1-.848-1-.883,0-1.766,1.105-2.077,2.852l-.745,3.992H50.523l1.871-10.132.466-2.522h2.493L54.4,184.7h.035a3.531,3.531,0,0,1,2.7-1.319c.091,0,.18.005.266.013l.074.01c.061.008.122.017.181.029l.075.017q.088.021.171.048l.059.02a1.97,1.97,0,0,1,.189.079l.024.011a2.195,2.195,0,0,1,1.09,2.126A10.465,10.465,0,0,1,59.11,187.306Zm21.306-7.886a1.669,1.669,0,0,1,.186.011l.045.006a1.507,1.507,0,0,1,.163.032l.011,0a1.352,1.352,0,0,1,.166.057l.029.013a1.223,1.223,0,0,1,.146.075l0,0a1.177,1.177,0,0,1,.143.1l.009.008a1.178,1.178,0,0,1,.318.437h0a1.555,1.555,0,0,1-1.461,2.14h-.017a1.4,1.4,0,0,1-.217-.018h0c-.037-.006-.073-.013-.108-.022l-.007,0c-.035-.009-.068-.019-.1-.03l-.008,0c-.033-.012-.066-.024-.1-.039l0,0a1.163,1.163,0,0,1-.414-.315l-.014-.016c-.016-.02-.031-.041-.045-.062l-.024-.034c-.012-.019-.024-.039-.035-.059l-.026-.046c-.01-.019-.019-.038-.028-.058s-.016-.036-.024-.055-.015-.038-.022-.057-.014-.042-.02-.063-.011-.037-.016-.056-.011-.048-.016-.073-.008-.036-.011-.054-.008-.058-.011-.087,0-.031-.005-.047c0-.046-.006-.092-.006-.14A1.51,1.51,0,0,1,80.416,179.42Zm-14.46,12.12h0l0,0c-.085.054-.172.105-.261.154l-.06.032q-.118.063-.24.12l-.042.02q-.144.065-.293.12l-.045.016c-.083.03-.168.058-.253.083l-.078.023c-.089.025-.18.048-.271.068l-.038.009c-.1.022-.208.04-.315.055l-.081.01q-.123.016-.249.026l-.093.007c-.109.007-.219.011-.33.011h-.017c-.07,0-.14,0-.209,0l-.066,0-.139-.009-.074-.008-.126-.015-.075-.011-.121-.02-.073-.015-.119-.026-.068-.017-.118-.032-.063-.019-.119-.04-.056-.02-.123-.048-.046-.019c-.044-.019-.087-.039-.13-.059l-.034-.016c-.049-.024-.1-.049-.143-.075l-.014-.008a3.156,3.156,0,0,1-.839-.681h0a3.662,3.662,0,0,1-.843-2.451,5.775,5.775,0,0,1,1.563-4.06h0c.03-.03.061-.059.091-.089s.054-.054.082-.08.063-.056.095-.084.058-.052.087-.077.064-.052.1-.078.061-.049.093-.073.066-.048.1-.072l.1-.07.1-.066.1-.065.1-.061.107-.06.107-.055.113-.055.109-.05.118-.05.111-.044.123-.044.112-.038.129-.039.112-.032c.045-.012.09-.022.136-.033l.112-.026c.047-.01.1-.018.143-.027l.111-.019c.051-.008.1-.014.155-.021l.105-.013c.058-.006.117-.01.176-.014l.09-.007q.134-.007.271-.007c.069,0,.136,0,.2,0l.069,0,.129.009.082.009.11.013.088.013.1.016.092.018.088.019.095.023.079.021.1.028.07.022.1.034.059.023.1.042.046.02c.038.016.075.033.111.051l.026.013a3.211,3.211,0,0,1,.761.522h0a3.61,3.61,0,0,1,1.094,2.7A5.494,5.494,0,0,1,65.957,191.54Zm8.473.166-.023.015q-.074.046-.149.088l-.036.02a4.351,4.351,0,0,1-.453.217l-.078.032-.12.044-.1.035-.112.035-.131.036-.09.024c-.072.017-.146.033-.22.047l-.08.013c-.053.009-.107.017-.162.024l-.088.01c-.055.006-.112.011-.168.015l-.079.005c-.082,0-.165.007-.249.007a3.262,3.262,0,0,1-1.558-.356H70.48l-.675,3.69H67.311l1.645-8.876c.19-1.034.38-2.549.484-3.44h2.233l-.156,1.337h.035a3.4,3.4,0,0,1,2.718-1.462q.086,0,.17,0l.042,0c.041,0,.083.006.123.01l.048.007.111.015.045.009.109.021.04.01c.037.009.073.018.109.028l.033.01c.037.011.074.023.111.036l.026.01c.038.014.075.028.112.044l.019.009c.038.017.076.034.113.053l.014.008c.038.02.075.039.112.061l.011.007q.056.033.11.069l.006,0c.037.025.074.051.109.078l0,0c.036.028.072.057.107.087h0a3.538,3.538,0,0,1,1.051,2.73A6.019,6.019,0,0,1,74.429,191.706Zm5.07.458H77.006l1.529-8.277h0l.081-.438h2.476Zm5.417-6.754h0l-1.246,6.755H81.177l1.246-6.755H81.333l.346-1.961h1.108l.069-.446a5.109,5.109,0,0,1,1.183-2.625l.031-.032c.071-.073.144-.145.222-.212a3.739,3.739,0,0,1,2.424-.82,3.366,3.366,0,0,1,1.316.214l-.4,1.869-.035.163a2.025,2.025,0,0,0-.557-.131h0c-.077-.007-.156-.012-.239-.012-.814,0-1.315.731-1.471,1.6l-.069.428h1.662l-.363,1.961H84.916Zm1.477,3.517.482,2.293a3.044,3.044,0,0,1-.464.408l-.02.014a2.415,2.415,0,0,1-.552.289Zm6.326.816a17.444,17.444,0,0,1-3.255,4.991,5.6,5.6,0,0,1-2.718,1.479l-.554-2.192a4.966,4.966,0,0,0,1.437-.695,4.749,4.749,0,0,0,1.385-1.515.539.539,0,0,0,.035-.41l-1.662-7.914H90l.519,3.8c.121.909.208,1.533.277,2.085h.035c.19-.535.381-1.105.744-2.05l1.541-3.832h2.631Z" transform="translate(-41.892 -177.223)" fill="#fff"/>
        </g>
      </g>
    </g>
  </g>
</svg>
