<svg xmlns="http://www.w3.org/2000/svg" xmlns:xlink="http://www.w3.org/1999/xlink" width="100" height="100" viewBox="0 0 100 100">
  <defs>
    <linearGradient id="linear-gradient" x1="0.5" x2="1" y2="1.066" gradientUnits="objectBoundingBox">
      <stop offset="0" stop-color="#551382"/>
      <stop offset="1" stop-color="#290343"/>
    </linearGradient>
  </defs>
  <g id="Group_34892" data-name="Group 34892" transform="translate(-174 -2446)">
    <g id="Rectangle_6920" data-name="Rectangle 6920" transform="translate(174 2446)" stroke="#fff" stroke-width="0.6" fill="url(#linear-gradient)">
      <rect width="100" height="100" rx="6" stroke="none"/>
      <rect x="0.3" y="0.3" width="99.4" height="99.4" rx="5.7" fill="none"/>
    </g>
    <g id="wordpress_web_blog_website" data-name="wordpress, web, blog, website" transform="translate(196 2468.268)">
      <path id="Path_2318" data-name="Path 2318" d="M51.406,6.443a6.645,6.645,0,0,0-7.035-1.189,6.509,6.509,0,0,0-3.7,6.372,12.8,12.8,0,0,0,1.949,5.32c1.4,2.845,3,6.06,2.475,9.549L39.343,42.28,29.191,13.556H31.51l5.5,15.59a1.954,1.954,0,0,0,3.683-1.306L35.641,13.556H37.18a1.949,1.949,0,0,0,0-3.9H24.28a1.949,1.949,0,0,0,0,3.9h.779l2.592,7.288L19.993,42.28,9.859,13.556h2.3l5.515,15.59a1.945,1.945,0,1,0,3.664-1.306L16.29,13.556h1.559a1.949,1.949,0,1,0,0-3.9H4.949a1.949,1.949,0,1,0,0,3.9h.779L18.161,48.769a1.943,1.943,0,0,0,3.664.019L29.7,26.69,37.492,48.75a1.943,1.943,0,0,0,3.664.019l7.542-21.1v-.1l3.176-8.906L53.062,15.1a7.8,7.8,0,0,0-1.656-8.652Zm-1.949,7.425L47.7,18.9c-.546-1.364-1.15-2.592-1.7-3.7a12.258,12.258,0,0,1-1.442-3.586A2.865,2.865,0,0,1,45.872,8.8a2.261,2.261,0,0,1,.955-.195,2.9,2.9,0,0,1,1.949.721,4.151,4.151,0,0,1,.624,4.54Z" transform="translate(0 0)" fill="#fff"/>
    </g>
  </g>
</svg>
