<svg xmlns="http://www.w3.org/2000/svg" xmlns:xlink="http://www.w3.org/1999/xlink" width="100" height="100" viewBox="0 0 100 100">
  <defs>
    <linearGradient id="linear-gradient" x1="0.5" x2="1" y2="1.066" gradientUnits="objectBoundingBox">
      <stop offset="0" stop-color="#551382"/>
      <stop offset="1" stop-color="#290343"/>
    </linearGradient>
  </defs>
  <g id="Group_34891" data-name="Group 34891" transform="translate(-174 -2446)">
    <g id="Rectangle_6920" data-name="Rectangle 6920" transform="translate(174 2446)" stroke="#fff" stroke-width="0.6" fill="url(#linear-gradient)">
      <rect width="100" height="100" rx="6" stroke="none"/>
      <rect x="0.3" y="0.3" width="99.4" height="99.4" rx="5.7" fill="none"/>
    </g>
    <path id="Path_2317" data-name="Path 2317" d="M51.478,47.967a.938.938,0,0,0-1.2.561l-1.707,4.691L46.86,48.528a.939.939,0,0,0-1.765,0l-1.707,4.691-1.707-4.691a.939.939,0,1,0-1.765.642l2.59,7.115a.939.939,0,0,0,1.765,0l1.707-4.691,1.707,4.691a.939.939,0,0,0,1.765,0l2.59-7.115A.939.939,0,0,0,51.478,47.967Zm8.411-4.178a29.2,29.2,0,0,0-4.527-8.847.944.944,0,0,0-.159-.212,29.238,29.238,0,0,0-5.427-5.45A28.866,28.866,0,0,0,32.05,23.27h0a29.2,29.2,0,0,0-13.565,3.344.939.939,0,0,0,.875,1.661,27.273,27.273,0,0,1,10.177-3.011,44.764,44.764,0,0,0-6.954,9.192H11.543a27.282,27.282,0,0,1,4.1-3.821.939.939,0,1,0-1.131-1.5,29.246,29.246,0,0,0-5.623,5.6.941.941,0,0,0-.138.182,29.183,29.183,0,0,0-4.541,8.867A4.5,4.5,0,0,0,0,48.274v8.265a4.5,4.5,0,0,0,4.211,4.485,29.2,29.2,0,0,0,4.527,8.846.941.941,0,0,0,.16.212,29.229,29.229,0,0,0,5.427,5.45,29.155,29.155,0,0,0,32.451,2.02.939.939,0,1,0-.95-1.62,27.2,27.2,0,0,1-11.262,3.615,44.791,44.791,0,0,0,6.953-9.192H52.568a27.61,27.61,0,0,1-3.162,3.07.939.939,0,1,0,1.2,1.447,29.015,29.015,0,0,0,9.287-13.849A4.5,4.5,0,0,0,64.1,56.539V48.274a4.5,4.5,0,0,0-4.211-4.485Zm-5.832-7.453a27.34,27.34,0,0,1,3.856,7.444H45.636a45.639,45.639,0,0,0-3.089-7.444ZM48.631,30.77a27.259,27.259,0,0,1,3.925,3.687H41.517a44.758,44.758,0,0,0-6.957-9.195A26.951,26.951,0,0,1,48.631,30.77ZM32.05,25.461a40.891,40.891,0,0,1,7.289,9H24.761A40.888,40.888,0,0,1,32.05,25.461ZM23.677,36.335H40.423a44.531,44.531,0,0,1,3.242,7.444H20.435a44.531,44.531,0,0,1,3.242-7.444Zm-13.635,0h11.51a45.634,45.634,0,0,0-3.089,7.444H6.187A27.318,27.318,0,0,1,10.042,36.335Zm0,32.143a27.341,27.341,0,0,1-3.856-7.444H18.464a45.638,45.638,0,0,0,3.089,7.444Zm5.426,5.565a27.253,27.253,0,0,1-3.925-3.687H22.583a44.787,44.787,0,0,0,6.956,9.195A26.951,26.951,0,0,1,15.469,74.043ZM32.05,79.352a40.885,40.885,0,0,1-7.289-9H39.339A40.888,40.888,0,0,1,32.05,79.352Zm8.373-10.874H23.677a44.559,44.559,0,0,1-3.243-7.444H43.665a44.559,44.559,0,0,1-3.243,7.444Zm13.652,0H42.548a45.634,45.634,0,0,0,3.089-7.444H57.914A27.054,27.054,0,0,1,54.075,68.478Zm8.147-11.939A2.62,2.62,0,0,1,59.6,59.157H4.5a2.62,2.62,0,0,1-2.617-2.617V48.274A2.62,2.62,0,0,1,4.5,45.657H59.6a2.62,2.62,0,0,1,2.617,2.617ZM37.55,47.967a.938.938,0,0,0-1.2.561L34.64,53.219l-1.707-4.691a.939.939,0,0,0-1.765,0L29.46,53.219l-1.707-4.691a.939.939,0,0,0-1.765.642l2.59,7.115a.939.939,0,0,0,1.765,0l1.707-4.691,1.707,4.691a.939.939,0,0,0,1.765,0l2.59-7.115a.939.939,0,0,0-.561-1.2Zm-13.928,0a.939.939,0,0,0-1.2.561l-1.707,4.691L19,48.528a.939.939,0,0,0-1.765,0l-1.707,4.691-1.707-4.691a.939.939,0,0,0-1.765.642l2.59,7.115a.939.939,0,0,0,1.765,0l1.707-4.691,1.707,4.691a.939.939,0,0,0,1.765,0l2.59-7.115a.939.939,0,0,0-.561-1.2Z" transform="translate(191.95 2443.594)" fill="#fff"/>
  </g>
</svg>
